{
    "asset" : {
        "generator" : "Khronos glTF Blender I/O v1.5.17",
        "version" : "2.0"
    },
    "scene" : 0,
    "scenes" : [
        {
            "name" : "Scene",
            "nodes" : [
                0
            ]
        }
    ],
    "nodes" : [
        {
            "mesh" : 0,
            "name" : "barista-hot"
        }
    ],
    "materials" : [
        {
            "doubleSided" : true,
            "name" : "mat-posters",
            "pbrMetallicRoughness" : {
                "baseColorTexture" : {
                    "index" : 0
                },
                "metallicFactor" : 0,
                "roughnessFactor" : 0.20000000298023224
            }
        }
    ],
    "meshes" : [
        {
            "name" : "mesh-barista-hot",
            "primitives" : [
                {
                    "attributes" : {
                        "POSITION" : 0,
                        "NORMAL" : 1,
                        "TEXCOORD_0" : 2
                    },
                    "indices" : 3,
                    "material" : 0
                }
            ]
        }
    ],
    "textures" : [
        {
            "sampler" : 0,
            "source" : 0
        }
    ],
    "images" : [
        {
            "mimeType" : "image/png",
            "name" : "tx-ld49-outfrost",
            "uri" : "tx-ld49-outfrost.png"
        }
    ],
    "accessors" : [
        {
            "bufferView" : 0,
            "componentType" : 5126,
            "count" : 1108,
            "max" : [
                0.2729964852333069,
                0.3156299293041229,
                0.025000017136335373
            ],
            "min" : [
                -0.20700351893901825,
                -0.33437004685401917,
                -0.025000015273690224
            ],
            "type" : "VEC3"
        },
        {
            "bufferView" : 1,
            "componentType" : 5126,
            "count" : 1108,
            "type" : "VEC3"
        },
        {
            "bufferView" : 2,
            "componentType" : 5126,
            "count" : 1108,
            "type" : "VEC2"
        },
        {
            "bufferView" : 3,
            "componentType" : 5123,
            "count" : 1572,
            "type" : "SCALAR"
        }
    ],
    "bufferViews" : [
        {
            "buffer" : 0,
            "byteLength" : 13296,
            "byteOffset" : 0
        },
        {
            "buffer" : 0,
            "byteLength" : 13296,
            "byteOffset" : 13296
        },
        {
            "buffer" : 0,
            "byteLength" : 8864,
            "byteOffset" : 26592
        },
        {
            "buffer" : 0,
            "byteLength" : 3144,
            "byteOffset" : 35456
        }
    ],
    "samplers" : [
        {
            "magFilter" : 9729,
            "minFilter" : 9987
        }
    ],
    "buffers" : [
        {
            "byteLength" : 38600,
            "uri" : "barista-hot.bin"
        }
    ]
}
