{
    "asset" : {
        "generator" : "Khronos glTF Blender I/O v1.6.16",
        "version" : "2.0"
    },
    "extensionsUsed" : [
        "KHR_materials_clearcoat",
        "KHR_materials_transmission"
    ],
    "scene" : 0,
    "scenes" : [
        {
            "name" : "Scene",
            "nodes" : [
                4
            ]
        }
    ],
    "nodes" : [
        {
            "name" : "BottomFlap",
            "rotation" : [
                0.608761727809906,
                -4.0139402912586775e-10,
                3.1344363216057047e-10,
                0.7933531403541565
            ],
            "translation" : [
                1.3578005907122215e-15,
                0.07915002852678299,
                -1.5302249745108298e-10
            ]
        },
        {
            "children" : [
                0
            ],
            "name" : "Body",
            "rotation" : [
                0.7071065902709961,
                8.735636583878659e-06,
                8.735636583878659e-06,
                0.7071070671081543
            ],
            "translation" : [
                0,
                0.006736500188708305,
                0.29999998211860657
            ]
        },
        {
            "mesh" : 0,
            "name" : "Conditioner",
            "skin" : 0
        },
        {
            "mesh" : 1,
            "name" : "ControlFlap",
            "skin" : 0
        },
        {
            "children" : [
                2,
                3,
                1
            ],
            "name" : "Armature"
        }
    ],
    "materials" : [
        {
            "doubleSided" : true,
            "name" : "LCDScreenDead",
            "pbrMetallicRoughness" : {
                "baseColorFactor" : [
                    0.008760485798120499,
                    0.011454908177256584,
                    0.02539408951997757,
                    1
                ],
                "metallicFactor" : 0,
                "roughnessFactor" : 0.5
            }
        },
        {
            "doubleSided" : true,
            "extensions" : {
                "KHR_materials_clearcoat" : {
                    "clearcoatFactor" : 0.5714285969734192,
                    "clearcoatRoughnessFactor" : 0.053809523582458496
                },
                "KHR_materials_transmission" : {
                    "transmissionFactor" : 0.5884353518486023
                }
            },
            "name" : "WhitePlastic",
            "pbrMetallicRoughness" : {
                "baseColorFactor" : [
                    0.6266639828681946,
                    0.602956235408783,
                    0.4898477792739868,
                    1
                ],
                "metallicFactor" : 0,
                "roughnessFactor" : 0.5
            }
        },
        {
            "doubleSided" : true,
            "emissiveFactor" : [
                0.1024739220738411,
                0.009058698080480099,
                0.010432382114231586
            ],
            "extensions" : {
                "KHR_materials_transmission" : {
                    "transmissionFactor" : 0.08163265138864517
                }
            },
            "name" : "RedButton",
            "pbrMetallicRoughness" : {
                "baseColorFactor" : [
                    0.21403515338897705,
                    0.04177707061171532,
                    0.03954731673002243,
                    1
                ],
                "metallicFactor" : 0,
                "roughnessFactor" : 0.5
            }
        },
        {
            "doubleSided" : true,
            "extensions" : {
                "KHR_materials_clearcoat" : {
                    "clearcoatFactor" : 0.5714285969734192,
                    "clearcoatRoughnessFactor" : 0.053809523582458496
                },
                "KHR_materials_transmission" : {
                    "transmissionFactor" : 0.5884353518486023
                }
            },
            "name" : "BlackPlastic",
            "pbrMetallicRoughness" : {
                "baseColorFactor" : [
                    0.025393981486558914,
                    0.025393981486558914,
                    0.025393981486558914,
                    1
                ],
                "metallicFactor" : 0,
                "roughnessFactor" : 0.5
            }
        }
    ],
    "meshes" : [
        {
            "name" : "Cube",
            "primitives" : [
                {
                    "attributes" : {
                        "POSITION" : 0,
                        "NORMAL" : 1,
                        "TEXCOORD_0" : 2,
                        "JOINTS_0" : 3,
                        "WEIGHTS_0" : 4
                    },
                    "indices" : 5,
                    "material" : 0
                },
                {
                    "attributes" : {
                        "POSITION" : 6,
                        "NORMAL" : 7,
                        "TEXCOORD_0" : 8,
                        "JOINTS_0" : 9,
                        "WEIGHTS_0" : 10
                    },
                    "indices" : 11,
                    "material" : 1
                },
                {
                    "attributes" : {
                        "POSITION" : 12,
                        "NORMAL" : 13,
                        "TEXCOORD_0" : 14,
                        "JOINTS_0" : 15,
                        "WEIGHTS_0" : 16
                    },
                    "indices" : 17,
                    "material" : 2
                },
                {
                    "attributes" : {
                        "POSITION" : 18,
                        "NORMAL" : 19,
                        "TEXCOORD_0" : 20,
                        "JOINTS_0" : 21,
                        "WEIGHTS_0" : 22
                    },
                    "indices" : 23,
                    "material" : 3
                }
            ]
        },
        {
            "name" : "Cube.001",
            "primitives" : [
                {
                    "attributes" : {
                        "POSITION" : 25,
                        "NORMAL" : 26,
                        "TEXCOORD_0" : 27,
                        "JOINTS_0" : 28,
                        "WEIGHTS_0" : 29
                    },
                    "indices" : 30,
                    "material" : 1
                }
            ]
        }
    ],
    "skins" : [
        {
            "inverseBindMatrices" : 24,
            "joints" : [
                1,
                0
            ],
            "name" : "Armature"
        }
    ],
    "accessors" : [
        {
            "bufferView" : 0,
            "componentType" : 5126,
            "count" : 54,
            "max" : [
                0.8799999952316284,
                0.1912374496459961,
                0.5887625813484192
            ],
            "min" : [
                0.7199999690055847,
                0.10123743116855621,
                0.5187392234802246
            ],
            "type" : "VEC3"
        },
        {
            "bufferView" : 1,
            "componentType" : 5126,
            "count" : 54,
            "type" : "VEC3"
        },
        {
            "bufferView" : 2,
            "componentType" : 5126,
            "count" : 54,
            "type" : "VEC2"
        },
        {
            "bufferView" : 3,
            "componentType" : 5121,
            "count" : 54,
            "type" : "VEC4"
        },
        {
            "bufferView" : 4,
            "componentType" : 5126,
            "count" : 54,
            "type" : "VEC4"
        },
        {
            "bufferView" : 5,
            "componentType" : 5123,
            "count" : 78,
            "type" : "SCALAR"
        },
        {
            "bufferView" : 6,
            "componentType" : 5126,
            "count" : 4071,
            "max" : [
                1,
                1,
                0.6000000238418579
            ],
            "min" : [
                -1,
                0,
                0
            ],
            "type" : "VEC3"
        },
        {
            "bufferView" : 7,
            "componentType" : 5126,
            "count" : 4071,
            "type" : "VEC3"
        },
        {
            "bufferView" : 8,
            "componentType" : 5126,
            "count" : 4071,
            "type" : "VEC2"
        },
        {
            "bufferView" : 9,
            "componentType" : 5121,
            "count" : 4071,
            "type" : "VEC4"
        },
        {
            "bufferView" : 10,
            "componentType" : 5126,
            "count" : 4071,
            "type" : "VEC4"
        },
        {
            "bufferView" : 11,
            "componentType" : 5123,
            "count" : 8652,
            "type" : "SCALAR"
        },
        {
            "bufferView" : 12,
            "componentType" : 5126,
            "count" : 92,
            "max" : [
                0.7462830543518066,
                0.08451323211193085,
                0.5025706887245178
            ],
            "min" : [
                0.7187169194221497,
                0.07207456976175308,
                0.48523011803627014
            ],
            "type" : "VEC3"
        },
        {
            "bufferView" : 13,
            "componentType" : 5126,
            "count" : 92,
            "type" : "VEC3"
        },
        {
            "bufferView" : 14,
            "componentType" : 5126,
            "count" : 92,
            "type" : "VEC2"
        },
        {
            "bufferView" : 15,
            "componentType" : 5121,
            "count" : 92,
            "type" : "VEC4"
        },
        {
            "bufferView" : 16,
            "componentType" : 5126,
            "count" : 92,
            "type" : "VEC4"
        },
        {
            "bufferView" : 17,
            "componentType" : 5123,
            "count" : 126,
            "type" : "SCALAR"
        },
        {
            "bufferView" : 18,
            "componentType" : 5126,
            "count" : 419,
            "max" : [
                0.7935330271720886,
                0.29500001668930054,
                0.5425000190734863
            ],
            "min" : [
                -0.8999999761581421,
                0.05569455772638321,
                0.3987500071525574
            ],
            "type" : "VEC3"
        },
        {
            "bufferView" : 19,
            "componentType" : 5126,
            "count" : 419,
            "type" : "VEC3"
        },
        {
            "bufferView" : 20,
            "componentType" : 5126,
            "count" : 419,
            "type" : "VEC2"
        },
        {
            "bufferView" : 21,
            "componentType" : 5121,
            "count" : 419,
            "type" : "VEC4"
        },
        {
            "bufferView" : 22,
            "componentType" : 5126,
            "count" : 419,
            "type" : "VEC4"
        },
        {
            "bufferView" : 23,
            "componentType" : 5123,
            "count" : 717,
            "type" : "SCALAR"
        },
        {
            "bufferView" : 24,
            "componentType" : 5126,
            "count" : 2,
            "type" : "MAT4"
        },
        {
            "bufferView" : 25,
            "componentType" : 5126,
            "count" : 1376,
            "max" : [
                0.5999999046325684,
                0.2101789265871048,
                0.5999923348426819
            ],
            "min" : [
                -0.8999999761581421,
                0,
                0.37101706862449646
            ],
            "type" : "VEC3"
        },
        {
            "bufferView" : 26,
            "componentType" : 5126,
            "count" : 1376,
            "type" : "VEC3"
        },
        {
            "bufferView" : 27,
            "componentType" : 5126,
            "count" : 1376,
            "type" : "VEC2"
        },
        {
            "bufferView" : 28,
            "componentType" : 5121,
            "count" : 1376,
            "type" : "VEC4"
        },
        {
            "bufferView" : 29,
            "componentType" : 5126,
            "count" : 1376,
            "type" : "VEC4"
        },
        {
            "bufferView" : 30,
            "componentType" : 5123,
            "count" : 2238,
            "type" : "SCALAR"
        }
    ],
    "bufferViews" : [
        {
            "buffer" : 0,
            "byteLength" : 648,
            "byteOffset" : 0
        },
        {
            "buffer" : 0,
            "byteLength" : 648,
            "byteOffset" : 648
        },
        {
            "buffer" : 0,
            "byteLength" : 432,
            "byteOffset" : 1296
        },
        {
            "buffer" : 0,
            "byteLength" : 216,
            "byteOffset" : 1728
        },
        {
            "buffer" : 0,
            "byteLength" : 864,
            "byteOffset" : 1944
        },
        {
            "buffer" : 0,
            "byteLength" : 156,
            "byteOffset" : 2808
        },
        {
            "buffer" : 0,
            "byteLength" : 48852,
            "byteOffset" : 2964
        },
        {
            "buffer" : 0,
            "byteLength" : 48852,
            "byteOffset" : 51816
        },
        {
            "buffer" : 0,
            "byteLength" : 32568,
            "byteOffset" : 100668
        },
        {
            "buffer" : 0,
            "byteLength" : 16284,
            "byteOffset" : 133236
        },
        {
            "buffer" : 0,
            "byteLength" : 65136,
            "byteOffset" : 149520
        },
        {
            "buffer" : 0,
            "byteLength" : 17304,
            "byteOffset" : 214656
        },
        {
            "buffer" : 0,
            "byteLength" : 1104,
            "byteOffset" : 231960
        },
        {
            "buffer" : 0,
            "byteLength" : 1104,
            "byteOffset" : 233064
        },
        {
            "buffer" : 0,
            "byteLength" : 736,
            "byteOffset" : 234168
        },
        {
            "buffer" : 0,
            "byteLength" : 368,
            "byteOffset" : 234904
        },
        {
            "buffer" : 0,
            "byteLength" : 1472,
            "byteOffset" : 235272
        },
        {
            "buffer" : 0,
            "byteLength" : 252,
            "byteOffset" : 236744
        },
        {
            "buffer" : 0,
            "byteLength" : 5028,
            "byteOffset" : 236996
        },
        {
            "buffer" : 0,
            "byteLength" : 5028,
            "byteOffset" : 242024
        },
        {
            "buffer" : 0,
            "byteLength" : 3352,
            "byteOffset" : 247052
        },
        {
            "buffer" : 0,
            "byteLength" : 1676,
            "byteOffset" : 250404
        },
        {
            "buffer" : 0,
            "byteLength" : 6704,
            "byteOffset" : 252080
        },
        {
            "buffer" : 0,
            "byteLength" : 1434,
            "byteOffset" : 258784
        },
        {
            "buffer" : 0,
            "byteLength" : 128,
            "byteOffset" : 260220
        },
        {
            "buffer" : 0,
            "byteLength" : 16512,
            "byteOffset" : 260348
        },
        {
            "buffer" : 0,
            "byteLength" : 16512,
            "byteOffset" : 276860
        },
        {
            "buffer" : 0,
            "byteLength" : 11008,
            "byteOffset" : 293372
        },
        {
            "buffer" : 0,
            "byteLength" : 5504,
            "byteOffset" : 304380
        },
        {
            "buffer" : 0,
            "byteLength" : 22016,
            "byteOffset" : 309884
        },
        {
            "buffer" : 0,
            "byteLength" : 4476,
            "byteOffset" : 331900
        }
    ],
    "buffers" : [
        {
            "byteLength" : 336376,
            "uri" : "data:application/octet-stream;base64,"
        }
    ]
}
