{
    "asset" : {
        "generator" : "Khronos glTF Blender I/O v1.6.16",
        "version" : "2.0"
    },
    "extensionsUsed" : [
        "KHR_materials_clearcoat",
        "KHR_materials_transmission"
    ],
    "scene" : 0,
    "scenes" : [
        {
            "name" : "Scene",
            "nodes" : [
                4
            ]
        }
    ],
    "nodes" : [
        {
            "name" : "BottomFlap",
            "rotation" : [
                0.608761727809906,
                -4.0139402912586775e-10,
                3.1344363216057047e-10,
                0.7933531403541565
            ],
            "translation" : [
                1.0706225402751235e-14,
                0.07915002107620239,
                -2.0622793750479929e-10
            ]
        },
        {
            "children" : [
                0
            ],
            "name" : "Body",
            "rotation" : [
                0.7071065902709961,
                8.735636583878659e-06,
                8.735636583878659e-06,
                0.7071070671081543
            ],
            "translation" : [
                1.4210854715202004e-14,
                0.006736500188708305,
                0.09999999403953552
            ]
        },
        {
            "mesh" : 0,
            "name" : "Conditioner",
            "skin" : 0
        },
        {
            "mesh" : 1,
            "name" : "ControlFlap",
            "skin" : 0
        },
        {
            "children" : [
                2,
                3,
                1
            ],
            "name" : "Armature"
        }
    ],
    "materials" : [
        {
            "doubleSided" : true,
            "name" : "LCDScreenDead",
            "pbrMetallicRoughness" : {
                "baseColorFactor" : [
                    0.008760485798120499,
                    0.011454908177256584,
                    0.02539408951997757,
                    1
                ],
                "metallicFactor" : 0,
                "roughnessFactor" : 0.5
            }
        },
        {
            "doubleSided" : true,
            "extensions" : {
                "KHR_materials_clearcoat" : {
                    "clearcoatFactor" : 0.5714285969734192,
                    "clearcoatRoughnessFactor" : 0.053809523582458496
                },
                "KHR_materials_transmission" : {
                    "transmissionFactor" : 0.5884353518486023
                }
            },
            "name" : "WhitePlastic",
            "pbrMetallicRoughness" : {
                "baseColorFactor" : [
                    0.6266639828681946,
                    0.602956235408783,
                    0.4898477792739868,
                    1
                ],
                "metallicFactor" : 0,
                "roughnessFactor" : 0.5
            }
        },
        {
            "doubleSided" : true,
            "emissiveFactor" : [
                0.1024739220738411,
                0.009058698080480099,
                0.010432382114231586
            ],
            "extensions" : {
                "KHR_materials_transmission" : {
                    "transmissionFactor" : 0.08163265138864517
                }
            },
            "name" : "RedButton",
            "pbrMetallicRoughness" : {
                "baseColorFactor" : [
                    0.21403515338897705,
                    0.04177707061171532,
                    0.03954731673002243,
                    1
                ],
                "metallicFactor" : 0,
                "roughnessFactor" : 0.5
            }
        },
        {
            "doubleSided" : true,
            "extensions" : {
                "KHR_materials_clearcoat" : {
                    "clearcoatFactor" : 0.5714285969734192,
                    "clearcoatRoughnessFactor" : 0.053809523582458496
                },
                "KHR_materials_transmission" : {
                    "transmissionFactor" : 0.5884353518486023
                }
            },
            "name" : "BlackPlastic",
            "pbrMetallicRoughness" : {
                "baseColorFactor" : [
                    0.025393981486558914,
                    0.025393981486558914,
                    0.025393981486558914,
                    1
                ],
                "metallicFactor" : 0,
                "roughnessFactor" : 0.5
            }
        }
    ],
    "meshes" : [
        {
            "name" : "Cube",
            "primitives" : [
                {
                    "attributes" : {
                        "POSITION" : 0,
                        "NORMAL" : 1,
                        "TEXCOORD_0" : 2,
                        "JOINTS_0" : 3,
                        "WEIGHTS_0" : 4
                    },
                    "indices" : 5,
                    "material" : 0
                },
                {
                    "attributes" : {
                        "POSITION" : 6,
                        "NORMAL" : 7,
                        "TEXCOORD_0" : 8,
                        "JOINTS_0" : 9,
                        "WEIGHTS_0" : 10
                    },
                    "indices" : 11,
                    "material" : 1
                },
                {
                    "attributes" : {
                        "POSITION" : 12,
                        "NORMAL" : 13,
                        "TEXCOORD_0" : 14,
                        "JOINTS_0" : 15,
                        "WEIGHTS_0" : 16
                    },
                    "indices" : 17,
                    "material" : 2
                },
                {
                    "attributes" : {
                        "POSITION" : 18,
                        "NORMAL" : 19,
                        "TEXCOORD_0" : 20,
                        "JOINTS_0" : 21,
                        "WEIGHTS_0" : 22
                    },
                    "indices" : 23,
                    "material" : 3
                }
            ]
        },
        {
            "name" : "Cube.001",
            "primitives" : [
                {
                    "attributes" : {
                        "POSITION" : 25,
                        "NORMAL" : 26,
                        "TEXCOORD_0" : 27,
                        "JOINTS_0" : 28,
                        "WEIGHTS_0" : 29
                    },
                    "indices" : 30,
                    "material" : 1
                }
            ]
        }
    ],
    "skins" : [
        {
            "inverseBindMatrices" : 24,
            "joints" : [
                1,
                0
            ],
            "name" : "Armature"
        }
    ],
    "accessors" : [
        {
            "bufferView" : 0,
            "componentType" : 5126,
            "count" : 54,
            "max" : [
                0.8799999952316284,
                0.1912374496459961,
                0.38876259326934814
            ],
            "min" : [
                0.7199999690055847,
                0.10123743116855621,
                0.31873923540115356
            ],
            "type" : "VEC3"
        },
        {
            "bufferView" : 1,
            "componentType" : 5126,
            "count" : 54,
            "type" : "VEC3"
        },
        {
            "bufferView" : 2,
            "componentType" : 5126,
            "count" : 54,
            "type" : "VEC2"
        },
        {
            "bufferView" : 3,
            "componentType" : 5121,
            "count" : 54,
            "type" : "VEC4"
        },
        {
            "bufferView" : 4,
            "componentType" : 5126,
            "count" : 54,
            "type" : "VEC4"
        },
        {
            "bufferView" : 5,
            "componentType" : 5123,
            "count" : 78,
            "type" : "SCALAR"
        },
        {
            "bufferView" : 6,
            "componentType" : 5126,
            "count" : 3240,
            "max" : [
                1,
                0.7499999403953552,
                0.3999999761581421
            ],
            "min" : [
                -1,
                0,
                1.4901161193847656e-08
            ],
            "type" : "VEC3"
        },
        {
            "bufferView" : 7,
            "componentType" : 5126,
            "count" : 3240,
            "type" : "VEC3"
        },
        {
            "bufferView" : 8,
            "componentType" : 5126,
            "count" : 3240,
            "type" : "VEC2"
        },
        {
            "bufferView" : 9,
            "componentType" : 5121,
            "count" : 3240,
            "type" : "VEC4"
        },
        {
            "bufferView" : 10,
            "componentType" : 5126,
            "count" : 3240,
            "type" : "VEC4"
        },
        {
            "bufferView" : 11,
            "componentType" : 5123,
            "count" : 6420,
            "type" : "SCALAR"
        },
        {
            "bufferView" : 12,
            "componentType" : 5126,
            "count" : 92,
            "max" : [
                0.7462830543518066,
                0.08451323211193085,
                0.30257073044776917
            ],
            "min" : [
                0.7187169194221497,
                0.07207456976175308,
                0.2852301299571991
            ],
            "type" : "VEC3"
        },
        {
            "bufferView" : 13,
            "componentType" : 5126,
            "count" : 92,
            "type" : "VEC3"
        },
        {
            "bufferView" : 14,
            "componentType" : 5126,
            "count" : 92,
            "type" : "VEC2"
        },
        {
            "bufferView" : 15,
            "componentType" : 5121,
            "count" : 92,
            "type" : "VEC4"
        },
        {
            "bufferView" : 16,
            "componentType" : 5126,
            "count" : 92,
            "type" : "VEC4"
        },
        {
            "bufferView" : 17,
            "componentType" : 5123,
            "count" : 126,
            "type" : "SCALAR"
        },
        {
            "bufferView" : 18,
            "componentType" : 5126,
            "count" : 419,
            "max" : [
                0.7935330271720886,
                0.29500001668930054,
                0.3425000309944153
            ],
            "min" : [
                -0.8999999761581421,
                0.05569455772638321,
                0.19875001907348633
            ],
            "type" : "VEC3"
        },
        {
            "bufferView" : 19,
            "componentType" : 5126,
            "count" : 419,
            "type" : "VEC3"
        },
        {
            "bufferView" : 20,
            "componentType" : 5126,
            "count" : 419,
            "type" : "VEC2"
        },
        {
            "bufferView" : 21,
            "componentType" : 5121,
            "count" : 419,
            "type" : "VEC4"
        },
        {
            "bufferView" : 22,
            "componentType" : 5126,
            "count" : 419,
            "type" : "VEC4"
        },
        {
            "bufferView" : 23,
            "componentType" : 5123,
            "count" : 717,
            "type" : "SCALAR"
        },
        {
            "bufferView" : 24,
            "componentType" : 5126,
            "count" : 2,
            "type" : "MAT4"
        },
        {
            "bufferView" : 25,
            "componentType" : 5126,
            "count" : 1376,
            "max" : [
                0.5999999046325684,
                0.2101789265871048,
                0.39999234676361084
            ],
            "min" : [
                -0.8999999761581421,
                0,
                0.1710170954465866
            ],
            "type" : "VEC3"
        },
        {
            "bufferView" : 26,
            "componentType" : 5126,
            "count" : 1376,
            "type" : "VEC3"
        },
        {
            "bufferView" : 27,
            "componentType" : 5126,
            "count" : 1376,
            "type" : "VEC2"
        },
        {
            "bufferView" : 28,
            "componentType" : 5121,
            "count" : 1376,
            "type" : "VEC4"
        },
        {
            "bufferView" : 29,
            "componentType" : 5126,
            "count" : 1376,
            "type" : "VEC4"
        },
        {
            "bufferView" : 30,
            "componentType" : 5123,
            "count" : 2238,
            "type" : "SCALAR"
        }
    ],
    "bufferViews" : [
        {
            "buffer" : 0,
            "byteLength" : 648,
            "byteOffset" : 0
        },
        {
            "buffer" : 0,
            "byteLength" : 648,
            "byteOffset" : 648
        },
        {
            "buffer" : 0,
            "byteLength" : 432,
            "byteOffset" : 1296
        },
        {
            "buffer" : 0,
            "byteLength" : 216,
            "byteOffset" : 1728
        },
        {
            "buffer" : 0,
            "byteLength" : 864,
            "byteOffset" : 1944
        },
        {
            "buffer" : 0,
            "byteLength" : 156,
            "byteOffset" : 2808
        },
        {
            "buffer" : 0,
            "byteLength" : 38880,
            "byteOffset" : 2964
        },
        {
            "buffer" : 0,
            "byteLength" : 38880,
            "byteOffset" : 41844
        },
        {
            "buffer" : 0,
            "byteLength" : 25920,
            "byteOffset" : 80724
        },
        {
            "buffer" : 0,
            "byteLength" : 12960,
            "byteOffset" : 106644
        },
        {
            "buffer" : 0,
            "byteLength" : 51840,
            "byteOffset" : 119604
        },
        {
            "buffer" : 0,
            "byteLength" : 12840,
            "byteOffset" : 171444
        },
        {
            "buffer" : 0,
            "byteLength" : 1104,
            "byteOffset" : 184284
        },
        {
            "buffer" : 0,
            "byteLength" : 1104,
            "byteOffset" : 185388
        },
        {
            "buffer" : 0,
            "byteLength" : 736,
            "byteOffset" : 186492
        },
        {
            "buffer" : 0,
            "byteLength" : 368,
            "byteOffset" : 187228
        },
        {
            "buffer" : 0,
            "byteLength" : 1472,
            "byteOffset" : 187596
        },
        {
            "buffer" : 0,
            "byteLength" : 252,
            "byteOffset" : 189068
        },
        {
            "buffer" : 0,
            "byteLength" : 5028,
            "byteOffset" : 189320
        },
        {
            "buffer" : 0,
            "byteLength" : 5028,
            "byteOffset" : 194348
        },
        {
            "buffer" : 0,
            "byteLength" : 3352,
            "byteOffset" : 199376
        },
        {
            "buffer" : 0,
            "byteLength" : 1676,
            "byteOffset" : 202728
        },
        {
            "buffer" : 0,
            "byteLength" : 6704,
            "byteOffset" : 204404
        },
        {
            "buffer" : 0,
            "byteLength" : 1434,
            "byteOffset" : 211108
        },
        {
            "buffer" : 0,
            "byteLength" : 128,
            "byteOffset" : 212544
        },
        {
            "buffer" : 0,
            "byteLength" : 16512,
            "byteOffset" : 212672
        },
        {
            "buffer" : 0,
            "byteLength" : 16512,
            "byteOffset" : 229184
        },
        {
            "buffer" : 0,
            "byteLength" : 11008,
            "byteOffset" : 245696
        },
        {
            "buffer" : 0,
            "byteLength" : 5504,
            "byteOffset" : 256704
        },
        {
            "buffer" : 0,
            "byteLength" : 22016,
            "byteOffset" : 262208
        },
        {
            "buffer" : 0,
            "byteLength" : 4476,
            "byteOffset" : 284224
        }
    ],
    "buffers" : [
        {
            "byteLength" : 288700,
            "uri" : "data:application/octet-stream;base64,"
        }
    ]
}
