{
    "asset" : {
        "generator" : "Khronos glTF Blender I/O v1.5.17",
        "version" : "2.0"
    },
    "extensionsUsed" : [
        "KHR_materials_transmission"
    ],
    "scene" : 0,
    "scenes" : [
        {
            "name" : "Scene",
            "nodes" : [
                0
            ]
        }
    ],
    "nodes" : [
        {
            "mesh" : 0,
            "name" : "ceil-lamp"
        }
    ],
    "materials" : [
        {
            "doubleSided" : true,
            "name" : "mat-copper",
            "pbrMetallicRoughness" : {
                "baseColorFactor" : [
                    0.2140350043773651,
                    0.06044594943523407,
                    0.024249905720353127,
                    1
                ],
                "roughnessFactor" : 0.6000000238418579
            }
        },
        {
            "doubleSided" : true,
            "name" : "mat-black-metal",
            "pbrMetallicRoughness" : {
                "baseColorFactor" : [
                    0.002579460386186838,
                    0.002579460386186838,
                    0.002579460386186838,
                    1
                ],
                "roughnessFactor" : 0.5
            }
        },
        {
            "doubleSided" : true,
            "emissiveFactor" : [
                1,
                1,
                1
            ],
            "extensions" : {
                "KHR_materials_transmission" : {
                    "transmissionFactor" : 1
                }
            },
            "name" : "mat-lightbulb",
            "pbrMetallicRoughness" : {
                "baseColorFactor" : [
                    0.6738476753234863,
                    0.5128107666969299,
                    0.3267052471637726,
                    1
                ],
                "metallicFactor" : 0,
                "roughnessFactor" : 0
            }
        }
    ],
    "meshes" : [
        {
            "name" : "mesh-ceil-lamp",
            "primitives" : [
                {
                    "attributes" : {
                        "POSITION" : 0,
                        "NORMAL" : 1,
                        "TEXCOORD_0" : 2
                    },
                    "indices" : 3,
                    "material" : 0
                },
                {
                    "attributes" : {
                        "POSITION" : 4,
                        "NORMAL" : 5,
                        "TEXCOORD_0" : 6
                    },
                    "indices" : 7,
                    "material" : 1
                },
                {
                    "attributes" : {
                        "POSITION" : 8,
                        "NORMAL" : 9,
                        "TEXCOORD_0" : 10
                    },
                    "indices" : 11,
                    "material" : 2
                }
            ]
        }
    ],
    "accessors" : [
        {
            "bufferView" : 0,
            "componentType" : 5126,
            "count" : 526,
            "max" : [
                0.1732282191514969,
                -0.2896825671195984,
                0.17322823405265808
            ],
            "min" : [
                -0.17322814464569092,
                -0.43338528275489807,
                -0.1732282191514969
            ],
            "type" : "VEC3"
        },
        {
            "bufferView" : 1,
            "componentType" : 5126,
            "count" : 526,
            "type" : "VEC3"
        },
        {
            "bufferView" : 2,
            "componentType" : 5126,
            "count" : 526,
            "type" : "VEC2"
        },
        {
            "bufferView" : 3,
            "componentType" : 5123,
            "count" : 2688,
            "type" : "SCALAR"
        },
        {
            "bufferView" : 4,
            "componentType" : 5126,
            "count" : 140,
            "max" : [
                0.1766219586133957,
                0.00014658475993201137,
                0.04283709079027176
            ],
            "min" : [
                -0.1766219586133957,
                -0.3512883186340332,
                -0.04283709079027176
            ],
            "type" : "VEC3"
        },
        {
            "bufferView" : 5,
            "componentType" : 5126,
            "count" : 140,
            "type" : "VEC3"
        },
        {
            "bufferView" : 6,
            "componentType" : 5126,
            "count" : 140,
            "type" : "VEC2"
        },
        {
            "bufferView" : 7,
            "componentType" : 5123,
            "count" : 234,
            "type" : "SCALAR"
        },
        {
            "bufferView" : 8,
            "componentType" : 5126,
            "count" : 108,
            "max" : [
                0.014980711974203587,
                -0.35035088658332825,
                0.014980747364461422
            ],
            "min" : [
                -0.014980725012719631,
                -0.3886115252971649,
                -0.014980694279074669
            ],
            "type" : "VEC3"
        },
        {
            "bufferView" : 9,
            "componentType" : 5126,
            "count" : 108,
            "type" : "VEC3"
        },
        {
            "bufferView" : 10,
            "componentType" : 5126,
            "count" : 108,
            "type" : "VEC2"
        },
        {
            "bufferView" : 11,
            "componentType" : 5123,
            "count" : 174,
            "type" : "SCALAR"
        }
    ],
    "bufferViews" : [
        {
            "buffer" : 0,
            "byteLength" : 6312,
            "byteOffset" : 0
        },
        {
            "buffer" : 0,
            "byteLength" : 6312,
            "byteOffset" : 6312
        },
        {
            "buffer" : 0,
            "byteLength" : 4208,
            "byteOffset" : 12624
        },
        {
            "buffer" : 0,
            "byteLength" : 5376,
            "byteOffset" : 16832
        },
        {
            "buffer" : 0,
            "byteLength" : 1680,
            "byteOffset" : 22208
        },
        {
            "buffer" : 0,
            "byteLength" : 1680,
            "byteOffset" : 23888
        },
        {
            "buffer" : 0,
            "byteLength" : 1120,
            "byteOffset" : 25568
        },
        {
            "buffer" : 0,
            "byteLength" : 468,
            "byteOffset" : 26688
        },
        {
            "buffer" : 0,
            "byteLength" : 1296,
            "byteOffset" : 27156
        },
        {
            "buffer" : 0,
            "byteLength" : 1296,
            "byteOffset" : 28452
        },
        {
            "buffer" : 0,
            "byteLength" : 864,
            "byteOffset" : 29748
        },
        {
            "buffer" : 0,
            "byteLength" : 348,
            "byteOffset" : 30612
        }
    ],
    "buffers" : [
        {
            "byteLength" : 30960,
            "uri" : "ceil-lamp.bin"
        }
    ]
}
