{
    "asset" : {
        "generator" : "Khronos glTF Blender I/O v1.6.16",
        "version" : "2.0"
    },
    "extensionsUsed" : [
        "KHR_materials_clearcoat",
        "KHR_materials_transmission"
    ],
    "scene" : 0,
    "scenes" : [
        {
            "name" : "Scene",
            "nodes" : [
                2,
                9
            ]
        }
    ],
    "nodes" : [
        {
            "name" : "BottomFlap",
            "rotation" : [
                0.608761727809906,
                -4.0139402912586775e-10,
                3.1344363216057047e-10,
                0.7933531403541565
            ],
            "translation" : [
                1.0706225402751235e-14,
                0.07915002107620239,
                -2.0622793750479929e-10
            ]
        },
        {
            "children" : [
                0
            ],
            "name" : "Body",
            "rotation" : [
                0.7071065902709961,
                8.735636583878659e-06,
                8.735636583878659e-06,
                0.7071070671081543
            ],
            "translation" : [
                1.4210854715202004e-14,
                0.006736500188708305,
                0.09999999403953552
            ]
        },
        {
            "children" : [
                1
            ],
            "name" : "Armature",
            "translation" : [
                -21,
                2.140000104904175,
                0.14999999105930328
            ]
        },
        {
            "name" : "MinuteBody",
            "rotation" : [
                2.1074331613135655e-08,
                -5.1981189130856364e-08,
                0.7071073651313782,
                0.7071062922477722
            ],
            "translation" : [
                -1.302700779855974e-15,
                0.019999999552965164,
                -2.516776820078086e-16
            ]
        },
        {
            "name" : "HourBody",
            "rotation" : [
                6.32211794027171e-08,
                -9.824392321888809e-08,
                0.7071073651313782,
                0.7071062922477722
            ],
            "translation" : [
                -1.3027006739768556e-15,
                0.019999999552965164,
                -3.582346702943719e-15
            ]
        },
        {
            "children" : [
                3,
                4
            ],
            "name" : "Base",
            "rotation" : [
                0.5000008344650269,
                -0.5000000596046448,
                -0.5,
                0.4999992847442627
            ],
            "scale" : [
                1,
                0.9999999403953552,
                1
            ]
        },
        {
            "mesh" : 0,
            "name" : "HourHand.001",
            "skin" : 0
        },
        {
            "mesh" : 1,
            "name" : "MinuteHand.001",
            "skin" : 0
        },
        {
            "children" : [
                6,
                7
            ],
            "mesh" : 2,
            "name" : "Clock",
            "skin" : 0
        },
        {
            "children" : [
                8,
                5
            ],
            "name" : "ClockArmature"
        }
    ],
    "materials" : [
        {
            "doubleSided" : true,
            "extensions" : {
                "KHR_materials_clearcoat" : {
                    "clearcoatFactor" : 0.5714285969734192,
                    "clearcoatRoughnessFactor" : 0.053809523582458496
                },
                "KHR_materials_transmission" : {
                    "transmissionFactor" : 0.5884353518486023
                }
            },
            "name" : "BlackPlastic",
            "pbrMetallicRoughness" : {
                "baseColorFactor" : [
                    0.025393981486558914,
                    0.025393981486558914,
                    0.025393981486558914,
                    1
                ],
                "metallicFactor" : 0,
                "roughnessFactor" : 0.5
            }
        },
        {
            "doubleSided" : true,
            "extensions" : {
                "KHR_materials_clearcoat" : {
                    "clearcoatFactor" : 0.5714285969734192,
                    "clearcoatRoughnessFactor" : 0.053809523582458496
                },
                "KHR_materials_transmission" : {
                    "transmissionFactor" : 0.5884353518486023
                }
            },
            "name" : "WhitePlastic",
            "pbrMetallicRoughness" : {
                "baseColorFactor" : [
                    0.6266639828681946,
                    0.602956235408783,
                    0.4898477792739868,
                    1
                ],
                "metallicFactor" : 0,
                "roughnessFactor" : 0.5
            }
        }
    ],
    "meshes" : [
        {
            "name" : "Cube.030",
            "primitives" : [
                {
                    "attributes" : {
                        "POSITION" : 0,
                        "NORMAL" : 1,
                        "TEXCOORD_0" : 2,
                        "JOINTS_0" : 3,
                        "WEIGHTS_0" : 4
                    },
                    "indices" : 5,
                    "material" : 0
                }
            ]
        },
        {
            "name" : "Cube.029",
            "primitives" : [
                {
                    "attributes" : {
                        "POSITION" : 7,
                        "NORMAL" : 8,
                        "TEXCOORD_0" : 9,
                        "JOINTS_0" : 10,
                        "WEIGHTS_0" : 11
                    },
                    "indices" : 12,
                    "material" : 0
                }
            ]
        },
        {
            "name" : "Cylinder.003",
            "primitives" : [
                {
                    "attributes" : {
                        "POSITION" : 13,
                        "NORMAL" : 14,
                        "TEXCOORD_0" : 15,
                        "JOINTS_0" : 16,
                        "WEIGHTS_0" : 17
                    },
                    "indices" : 18,
                    "material" : 0
                },
                {
                    "attributes" : {
                        "POSITION" : 19,
                        "NORMAL" : 20,
                        "TEXCOORD_0" : 21,
                        "JOINTS_0" : 22,
                        "WEIGHTS_0" : 23
                    },
                    "indices" : 24,
                    "material" : 1
                }
            ]
        }
    ],
    "skins" : [
        {
            "inverseBindMatrices" : 6,
            "joints" : [
                5,
                3,
                4
            ],
            "name" : "ClockArmature"
        }
    ],
    "accessors" : [
        {
            "bufferView" : 0,
            "componentType" : 5126,
            "count" : 311,
            "max" : [
                0.014016285538673401,
                0.21387620270252228,
                0.04000004380941391
            ],
            "min" : [
                -0.013983732089400291,
                -0.019999967887997627,
                0.029999975115060806
            ],
            "type" : "VEC3"
        },
        {
            "bufferView" : 1,
            "componentType" : 5126,
            "count" : 311,
            "type" : "VEC3"
        },
        {
            "bufferView" : 2,
            "componentType" : 5126,
            "count" : 311,
            "type" : "VEC2"
        },
        {
            "bufferView" : 3,
            "componentType" : 5121,
            "count" : 311,
            "type" : "VEC4"
        },
        {
            "bufferView" : 4,
            "componentType" : 5126,
            "count" : 311,
            "type" : "VEC4"
        },
        {
            "bufferView" : 5,
            "componentType" : 5123,
            "count" : 492,
            "type" : "SCALAR"
        },
        {
            "bufferView" : 6,
            "componentType" : 5126,
            "count" : 3,
            "type" : "MAT4"
        },
        {
            "bufferView" : 7,
            "componentType" : 5126,
            "count" : 316,
            "max" : [
                0.014016285538673401,
                0.33388859033584595,
                0.03000004217028618
            ],
            "min" : [
                -0.013983732089400291,
                -0.019999967887997627,
                0.019999973475933075
            ],
            "type" : "VEC3"
        },
        {
            "bufferView" : 8,
            "componentType" : 5126,
            "count" : 316,
            "type" : "VEC3"
        },
        {
            "bufferView" : 9,
            "componentType" : 5126,
            "count" : 316,
            "type" : "VEC2"
        },
        {
            "bufferView" : 10,
            "componentType" : 5121,
            "count" : 316,
            "type" : "VEC4"
        },
        {
            "bufferView" : 11,
            "componentType" : 5126,
            "count" : 316,
            "type" : "VEC4"
        },
        {
            "bufferView" : 12,
            "componentType" : 5123,
            "count" : 504,
            "type" : "SCALAR"
        },
        {
            "bufferView" : 13,
            "componentType" : 5126,
            "count" : 3346,
            "max" : [
                0.3923141360282898,
                0.39231473207473755,
                0.04999999701976776
            ],
            "min" : [
                -0.39231404662132263,
                -0.39231351017951965,
                -0.05000004172325134
            ],
            "type" : "VEC3"
        },
        {
            "bufferView" : 14,
            "componentType" : 5126,
            "count" : 3346,
            "type" : "VEC3"
        },
        {
            "bufferView" : 15,
            "componentType" : 5126,
            "count" : 3346,
            "type" : "VEC2"
        },
        {
            "bufferView" : 16,
            "componentType" : 5121,
            "count" : 3346,
            "type" : "VEC4"
        },
        {
            "bufferView" : 17,
            "componentType" : 5126,
            "count" : 3346,
            "type" : "VEC4"
        },
        {
            "bufferView" : 18,
            "componentType" : 5123,
            "count" : 4800,
            "type" : "SCALAR"
        },
        {
            "bufferView" : 19,
            "componentType" : 5126,
            "count" : 704,
            "max" : [
                0.36475223302841187,
                0.36475273966789246,
                2.1068785827083047e-08
            ],
            "min" : [
                -0.3647521138191223,
                -0.36475154757499695,
                -5.8321639073710685e-08
            ],
            "type" : "VEC3"
        },
        {
            "bufferView" : 20,
            "componentType" : 5126,
            "count" : 704,
            "type" : "VEC3"
        },
        {
            "bufferView" : 21,
            "componentType" : 5126,
            "count" : 704,
            "type" : "VEC2"
        },
        {
            "bufferView" : 22,
            "componentType" : 5121,
            "count" : 704,
            "type" : "VEC4"
        },
        {
            "bufferView" : 23,
            "componentType" : 5126,
            "count" : 704,
            "type" : "VEC4"
        },
        {
            "bufferView" : 24,
            "componentType" : 5123,
            "count" : 960,
            "type" : "SCALAR"
        }
    ],
    "bufferViews" : [
        {
            "buffer" : 0,
            "byteLength" : 3732,
            "byteOffset" : 0
        },
        {
            "buffer" : 0,
            "byteLength" : 3732,
            "byteOffset" : 3732
        },
        {
            "buffer" : 0,
            "byteLength" : 2488,
            "byteOffset" : 7464
        },
        {
            "buffer" : 0,
            "byteLength" : 1244,
            "byteOffset" : 9952
        },
        {
            "buffer" : 0,
            "byteLength" : 4976,
            "byteOffset" : 11196
        },
        {
            "buffer" : 0,
            "byteLength" : 984,
            "byteOffset" : 16172
        },
        {
            "buffer" : 0,
            "byteLength" : 192,
            "byteOffset" : 17156
        },
        {
            "buffer" : 0,
            "byteLength" : 3792,
            "byteOffset" : 17348
        },
        {
            "buffer" : 0,
            "byteLength" : 3792,
            "byteOffset" : 21140
        },
        {
            "buffer" : 0,
            "byteLength" : 2528,
            "byteOffset" : 24932
        },
        {
            "buffer" : 0,
            "byteLength" : 1264,
            "byteOffset" : 27460
        },
        {
            "buffer" : 0,
            "byteLength" : 5056,
            "byteOffset" : 28724
        },
        {
            "buffer" : 0,
            "byteLength" : 1008,
            "byteOffset" : 33780
        },
        {
            "buffer" : 0,
            "byteLength" : 40152,
            "byteOffset" : 34788
        },
        {
            "buffer" : 0,
            "byteLength" : 40152,
            "byteOffset" : 74940
        },
        {
            "buffer" : 0,
            "byteLength" : 26768,
            "byteOffset" : 115092
        },
        {
            "buffer" : 0,
            "byteLength" : 13384,
            "byteOffset" : 141860
        },
        {
            "buffer" : 0,
            "byteLength" : 53536,
            "byteOffset" : 155244
        },
        {
            "buffer" : 0,
            "byteLength" : 9600,
            "byteOffset" : 208780
        },
        {
            "buffer" : 0,
            "byteLength" : 8448,
            "byteOffset" : 218380
        },
        {
            "buffer" : 0,
            "byteLength" : 8448,
            "byteOffset" : 226828
        },
        {
            "buffer" : 0,
            "byteLength" : 5632,
            "byteOffset" : 235276
        },
        {
            "buffer" : 0,
            "byteLength" : 2816,
            "byteOffset" : 240908
        },
        {
            "buffer" : 0,
            "byteLength" : 11264,
            "byteOffset" : 243724
        },
        {
            "buffer" : 0,
            "byteLength" : 1920,
            "byteOffset" : 254988
        }
    ],
    "buffers" : [
        {
            "byteLength" : 256908,
            "uri" : "data:application/octet-stream;base64,"
        }
    ]
}
