{
    "asset" : {
        "generator" : "Khronos glTF Blender I/O v1.6.16",
        "version" : "2.0"
    },
    "extensionsUsed" : [
        "KHR_materials_clearcoat",
        "KHR_materials_transmission"
    ],
    "scene" : 0,
    "scenes" : [
        {
            "name" : "Scene",
            "nodes" : [
                0
            ]
        }
    ],
    "nodes" : [
        {
            "mesh" : 0,
            "name" : "CoffeeMachine"
        }
    ],
    "materials" : [
        {
            "doubleSided" : true,
            "extensions" : {
                "KHR_materials_clearcoat" : {
                    "clearcoatFactor" : 0.4285714030265808,
                    "clearcoatRoughnessFactor" : 0.27551019191741943
                },
                "KHR_materials_transmission" : {
                    "transmissionFactor" : 0.051020409911870956
                }
            },
            "name" : "BlackMetal",
            "pbrMetallicRoughness" : {
                "baseColorFactor" : [
                    0.021979352459311485,
                    0.021979352459311485,
                    0.021979352459311485,
                    1
                ],
                "metallicFactor" : 0.875,
                "roughnessFactor" : 0.4659864008426666
            }
        },
        {
            "doubleSided" : true,
            "extensions" : {
                "KHR_materials_clearcoat" : {
                    "clearcoatFactor" : 0.5714285969734192,
                    "clearcoatRoughnessFactor" : 0.053809523582458496
                },
                "KHR_materials_transmission" : {
                    "transmissionFactor" : 0.5884353518486023
                }
            },
            "name" : "BlackPlastic",
            "pbrMetallicRoughness" : {
                "baseColorFactor" : [
                    0.025393981486558914,
                    0.025393981486558914,
                    0.025393981486558914,
                    1
                ],
                "metallicFactor" : 0,
                "roughnessFactor" : 0.5
            }
        },
        {
            "doubleSided" : true,
            "emissiveFactor" : [
                0.1024739220738411,
                0.009058698080480099,
                0.010432382114231586
            ],
            "extensions" : {
                "KHR_materials_transmission" : {
                    "transmissionFactor" : 0.08163265138864517
                }
            },
            "name" : "RedButton",
            "pbrMetallicRoughness" : {
                "baseColorFactor" : [
                    0.21403515338897705,
                    0.04177707061171532,
                    0.03954731673002243,
                    1
                ],
                "metallicFactor" : 0,
                "roughnessFactor" : 0.5
            }
        },
        {
            "doubleSided" : true,
            "name" : "GreyPlastic",
            "pbrMetallicRoughness" : {
                "baseColorFactor" : [
                    0.1106889471411705,
                    0.1106889471411705,
                    0.1106889471411705,
                    1
                ],
                "metallicFactor" : 0.14800000190734863,
                "roughnessFactor" : 0.4000000059604645
            }
        },
        {
            "doubleSided" : true,
            "extensions" : {
                "KHR_materials_clearcoat" : {
                    "clearcoatFactor" : 0.6020408272743225,
                    "clearcoatRoughnessFactor" : 0.1796598583459854
                }
            },
            "name" : "ShinySilver",
            "pbrMetallicRoughness" : {
                "baseColorFactor" : [
                    0.4575320780277252,
                    0.4575320780277252,
                    0.4575320780277252,
                    1
                ],
                "metallicFactor" : 0.8299319744110107,
                "roughnessFactor" : 0.795918345451355
            }
        }
    ],
    "meshes" : [
        {
            "name" : "Cube",
            "primitives" : [
                {
                    "attributes" : {
                        "POSITION" : 0,
                        "NORMAL" : 1,
                        "TEXCOORD_0" : 2
                    },
                    "indices" : 3,
                    "material" : 0
                },
                {
                    "attributes" : {
                        "POSITION" : 4,
                        "NORMAL" : 5,
                        "TEXCOORD_0" : 6
                    },
                    "indices" : 7,
                    "material" : 1
                },
                {
                    "attributes" : {
                        "POSITION" : 8,
                        "NORMAL" : 9,
                        "TEXCOORD_0" : 10
                    },
                    "indices" : 11,
                    "material" : 2
                },
                {
                    "attributes" : {
                        "POSITION" : 12,
                        "NORMAL" : 13,
                        "TEXCOORD_0" : 14
                    },
                    "indices" : 15,
                    "material" : 3
                },
                {
                    "attributes" : {
                        "POSITION" : 16,
                        "NORMAL" : 17,
                        "TEXCOORD_0" : 18
                    },
                    "indices" : 19,
                    "material" : 4
                }
            ]
        }
    ],
    "accessors" : [
        {
            "bufferView" : 0,
            "componentType" : 5126,
            "count" : 769,
            "max" : [
                -0.019728003069758415,
                0.4049999415874481,
                0.08027196675539017
            ],
            "min" : [
                -0.18027198314666748,
                0.04999999701976776,
                -0.08027196675539017
            ],
            "type" : "VEC3"
        },
        {
            "bufferView" : 1,
            "componentType" : 5126,
            "count" : 769,
            "type" : "VEC3"
        },
        {
            "bufferView" : 2,
            "componentType" : 5126,
            "count" : 769,
            "type" : "VEC2"
        },
        {
            "bufferView" : 3,
            "componentType" : 5123,
            "count" : 1098,
            "type" : "SCALAR"
        },
        {
            "bufferView" : 4,
            "componentType" : 5126,
            "count" : 2386,
            "max" : [
                0.20000004768371582,
                0.4139999449253082,
                0.1029999628663063
            ],
            "min" : [
                -0.1902601420879364,
                0.04974999651312828,
                -0.09999996423721313
            ],
            "type" : "VEC3"
        },
        {
            "bufferView" : 5,
            "componentType" : 5126,
            "count" : 2386,
            "type" : "VEC3"
        },
        {
            "bufferView" : 6,
            "componentType" : 5126,
            "count" : 2386,
            "type" : "VEC2"
        },
        {
            "bufferView" : 7,
            "componentType" : 5123,
            "count" : 3945,
            "type" : "SCALAR"
        },
        {
            "bufferView" : 8,
            "componentType" : 5126,
            "count" : 285,
            "max" : [
                -0.1319960057735443,
                0.35899990797042847,
                0.10993258655071259
            ],
            "min" : [
                -0.16799601912498474,
                0.31099992990493774,
                0.10024996101856232
            ],
            "type" : "VEC3"
        },
        {
            "bufferView" : 9,
            "componentType" : 5126,
            "count" : 285,
            "type" : "VEC3"
        },
        {
            "bufferView" : 10,
            "componentType" : 5126,
            "count" : 285,
            "type" : "VEC2"
        },
        {
            "bufferView" : 11,
            "componentType" : 5123,
            "count" : 420,
            "type" : "SCALAR"
        },
        {
            "bufferView" : 12,
            "componentType" : 5126,
            "count" : 678,
            "max" : [
                0.20000004768371582,
                0.38999995589256287,
                0.09999996423721313
            ],
            "min" : [
                -0.18999998271465302,
                0.30974993109703064,
                -0.09999996423721313
            ],
            "type" : "VEC3"
        },
        {
            "bufferView" : 13,
            "componentType" : 5126,
            "count" : 678,
            "type" : "VEC3"
        },
        {
            "bufferView" : 14,
            "componentType" : 5126,
            "count" : 678,
            "type" : "VEC2"
        },
        {
            "bufferView" : 15,
            "componentType" : 5123,
            "count" : 1968,
            "type" : "SCALAR"
        },
        {
            "bufferView" : 16,
            "componentType" : 5126,
            "count" : 1951,
            "max" : [
                0.20000004768371582,
                0.4002499580383301,
                0.09999996423721313
            ],
            "min" : [
                -0.19999998807907104,
                0,
                -0.09999996423721313
            ],
            "type" : "VEC3"
        },
        {
            "bufferView" : 17,
            "componentType" : 5126,
            "count" : 1951,
            "type" : "VEC3"
        },
        {
            "bufferView" : 18,
            "componentType" : 5126,
            "count" : 1951,
            "type" : "VEC2"
        },
        {
            "bufferView" : 19,
            "componentType" : 5123,
            "count" : 3867,
            "type" : "SCALAR"
        }
    ],
    "bufferViews" : [
        {
            "buffer" : 0,
            "byteLength" : 9228,
            "byteOffset" : 0
        },
        {
            "buffer" : 0,
            "byteLength" : 9228,
            "byteOffset" : 9228
        },
        {
            "buffer" : 0,
            "byteLength" : 6152,
            "byteOffset" : 18456
        },
        {
            "buffer" : 0,
            "byteLength" : 2196,
            "byteOffset" : 24608
        },
        {
            "buffer" : 0,
            "byteLength" : 28632,
            "byteOffset" : 26804
        },
        {
            "buffer" : 0,
            "byteLength" : 28632,
            "byteOffset" : 55436
        },
        {
            "buffer" : 0,
            "byteLength" : 19088,
            "byteOffset" : 84068
        },
        {
            "buffer" : 0,
            "byteLength" : 7890,
            "byteOffset" : 103156
        },
        {
            "buffer" : 0,
            "byteLength" : 3420,
            "byteOffset" : 111048
        },
        {
            "buffer" : 0,
            "byteLength" : 3420,
            "byteOffset" : 114468
        },
        {
            "buffer" : 0,
            "byteLength" : 2280,
            "byteOffset" : 117888
        },
        {
            "buffer" : 0,
            "byteLength" : 840,
            "byteOffset" : 120168
        },
        {
            "buffer" : 0,
            "byteLength" : 8136,
            "byteOffset" : 121008
        },
        {
            "buffer" : 0,
            "byteLength" : 8136,
            "byteOffset" : 129144
        },
        {
            "buffer" : 0,
            "byteLength" : 5424,
            "byteOffset" : 137280
        },
        {
            "buffer" : 0,
            "byteLength" : 3936,
            "byteOffset" : 142704
        },
        {
            "buffer" : 0,
            "byteLength" : 23412,
            "byteOffset" : 146640
        },
        {
            "buffer" : 0,
            "byteLength" : 23412,
            "byteOffset" : 170052
        },
        {
            "buffer" : 0,
            "byteLength" : 15608,
            "byteOffset" : 193464
        },
        {
            "buffer" : 0,
            "byteLength" : 7734,
            "byteOffset" : 209072
        }
    ],
    "buffers" : [
        {
            "byteLength" : 216808,
            "uri" : "data:application/octet-stream;base64,"
        }
    ]
}
