{
    "asset" : {
        "generator" : "Khronos glTF Blender I/O v1.6.16",
        "version" : "2.0"
    },
    "extensionsUsed" : [
        "KHR_materials_clearcoat",
        "KHR_materials_transmission"
    ],
    "scene" : 0,
    "scenes" : [
        {
            "name" : "Scene",
            "nodes" : [
                0
            ]
        }
    ],
    "nodes" : [
        {
            "mesh" : 0,
            "name" : "CoffeeMachine"
        }
    ],
    "materials" : [
        {
            "doubleSided" : true,
            "extensions" : {
                "KHR_materials_clearcoat" : {
                    "clearcoatFactor" : 0.4285714030265808,
                    "clearcoatRoughnessFactor" : 0.27551019191741943
                },
                "KHR_materials_transmission" : {
                    "transmissionFactor" : 0.051020409911870956
                }
            },
            "name" : "BlackMetal",
            "pbrMetallicRoughness" : {
                "baseColorFactor" : [
                    0.021979352459311485,
                    0.021979352459311485,
                    0.021979352459311485,
                    1
                ],
                "metallicFactor" : 0.875,
                "roughnessFactor" : 0.4659864008426666
            }
        },
        {
            "doubleSided" : true,
            "extensions" : {
                "KHR_materials_clearcoat" : {
                    "clearcoatFactor" : 0.5714285969734192,
                    "clearcoatRoughnessFactor" : 0.053809523582458496
                },
                "KHR_materials_transmission" : {
                    "transmissionFactor" : 0.5884353518486023
                }
            },
            "name" : "BlackPlastic",
            "pbrMetallicRoughness" : {
                "baseColorFactor" : [
                    0.025393981486558914,
                    0.025393981486558914,
                    0.025393981486558914,
                    1
                ],
                "metallicFactor" : 0,
                "roughnessFactor" : 0.5
            }
        },
        {
            "doubleSided" : true,
            "emissiveFactor" : [
                0.1024739220738411,
                0.009058698080480099,
                0.010432382114231586
            ],
            "extensions" : {
                "KHR_materials_transmission" : {
                    "transmissionFactor" : 0.08163265138864517
                }
            },
            "name" : "RedButton",
            "pbrMetallicRoughness" : {
                "baseColorFactor" : [
                    0.21403515338897705,
                    0.04177707061171532,
                    0.03954731673002243,
                    1
                ],
                "metallicFactor" : 0,
                "roughnessFactor" : 0.5
            }
        },
        {
            "doubleSided" : true,
            "name" : "GreyPlastic",
            "pbrMetallicRoughness" : {
                "baseColorFactor" : [
                    0.1106889471411705,
                    0.1106889471411705,
                    0.1106889471411705,
                    1
                ],
                "metallicFactor" : 0.14800000190734863,
                "roughnessFactor" : 0.4000000059604645
            }
        },
        {
            "doubleSided" : true,
            "extensions" : {
                "KHR_materials_clearcoat" : {
                    "clearcoatFactor" : 0.6020408272743225,
                    "clearcoatRoughnessFactor" : 0.1796598583459854
                }
            },
            "name" : "ShinySilver",
            "pbrMetallicRoughness" : {
                "baseColorFactor" : [
                    0.4575320780277252,
                    0.4575320780277252,
                    0.4575320780277252,
                    1
                ],
                "metallicFactor" : 0.8299319744110107,
                "roughnessFactor" : 0.795918345451355
            }
        },
        {
            "doubleSided" : true,
            "name" : "ColorBand",
            "pbrMetallicRoughness" : {
                "baseColorFactor" : [
                    0.800000011920929,
                    0.800000011920929,
                    0.800000011920929,
                    1
                ],
                "metallicFactor" : 0.14800000190734863,
                "roughnessFactor" : 0.4000000059604645
            }
        }
    ],
    "meshes" : [
        {
            "name" : "Cube",
            "primitives" : [
                {
                    "attributes" : {
                        "POSITION" : 0,
                        "NORMAL" : 1,
                        "TEXCOORD_0" : 2
                    },
                    "indices" : 3,
                    "material" : 0
                },
                {
                    "attributes" : {
                        "POSITION" : 4,
                        "NORMAL" : 5,
                        "TEXCOORD_0" : 6
                    },
                    "indices" : 7,
                    "material" : 1
                },
                {
                    "attributes" : {
                        "POSITION" : 8,
                        "NORMAL" : 9,
                        "TEXCOORD_0" : 10
                    },
                    "indices" : 11,
                    "material" : 2
                },
                {
                    "attributes" : {
                        "POSITION" : 12,
                        "NORMAL" : 13,
                        "TEXCOORD_0" : 14
                    },
                    "indices" : 15,
                    "material" : 3
                },
                {
                    "attributes" : {
                        "POSITION" : 16,
                        "NORMAL" : 17,
                        "TEXCOORD_0" : 18
                    },
                    "indices" : 19,
                    "material" : 4
                },
                {
                    "attributes" : {
                        "POSITION" : 20,
                        "NORMAL" : 21,
                        "TEXCOORD_0" : 22
                    },
                    "indices" : 23,
                    "material" : 5
                }
            ]
        }
    ],
    "accessors" : [
        {
            "bufferView" : 0,
            "componentType" : 5126,
            "count" : 756,
            "max" : [
                -0.019972797483205795,
                0.4049999415874481,
                0.08002717792987823
            ],
            "min" : [
                -0.18002718687057495,
                0.04999999701976776,
                -0.08002717792987823
            ],
            "type" : "VEC3"
        },
        {
            "bufferView" : 1,
            "componentType" : 5126,
            "count" : 756,
            "type" : "VEC3"
        },
        {
            "bufferView" : 2,
            "componentType" : 5126,
            "count" : 756,
            "type" : "VEC2"
        },
        {
            "bufferView" : 3,
            "componentType" : 5123,
            "count" : 1098,
            "type" : "SCALAR"
        },
        {
            "bufferView" : 4,
            "componentType" : 5126,
            "count" : 2423,
            "max" : [
                0.20000004768371582,
                0.4139999449253082,
                0.1029999628663063
            ],
            "min" : [
                -0.19002601504325867,
                0.04997499659657478,
                -0.09999996423721313
            ],
            "type" : "VEC3"
        },
        {
            "bufferView" : 5,
            "componentType" : 5126,
            "count" : 2423,
            "type" : "VEC3"
        },
        {
            "bufferView" : 6,
            "componentType" : 5126,
            "count" : 2423,
            "type" : "VEC2"
        },
        {
            "bufferView" : 7,
            "componentType" : 5123,
            "count" : 4092,
            "type" : "SCALAR"
        },
        {
            "bufferView" : 8,
            "componentType" : 5126,
            "count" : 292,
            "max" : [
                -0.1319960057735443,
                0.35899990797042847,
                0.10999323427677155
            ],
            "min" : [
                -0.16799601912498474,
                0.31099992990493774,
                0.10002496093511581
            ],
            "type" : "VEC3"
        },
        {
            "bufferView" : 9,
            "componentType" : 5126,
            "count" : 292,
            "type" : "VEC3"
        },
        {
            "bufferView" : 10,
            "componentType" : 5126,
            "count" : 292,
            "type" : "VEC2"
        },
        {
            "bufferView" : 11,
            "componentType" : 5123,
            "count" : 420,
            "type" : "SCALAR"
        },
        {
            "bufferView" : 12,
            "componentType" : 5126,
            "count" : 594,
            "max" : [
                0.20000004768371582,
                0.38999995589256287,
                0.09999996423721313
            ],
            "min" : [
                -0.18999998271465302,
                0.30997493863105774,
                -0.09999996423721313
            ],
            "type" : "VEC3"
        },
        {
            "bufferView" : 13,
            "componentType" : 5126,
            "count" : 594,
            "type" : "VEC3"
        },
        {
            "bufferView" : 14,
            "componentType" : 5126,
            "count" : 594,
            "type" : "VEC2"
        },
        {
            "bufferView" : 15,
            "componentType" : 5123,
            "count" : 1632,
            "type" : "SCALAR"
        },
        {
            "bufferView" : 16,
            "componentType" : 5126,
            "count" : 1908,
            "max" : [
                0.20000004768371582,
                0.400024950504303,
                0.09999996423721313
            ],
            "min" : [
                -0.19999998807907104,
                0,
                -0.09999996423721313
            ],
            "type" : "VEC3"
        },
        {
            "bufferView" : 17,
            "componentType" : 5126,
            "count" : 1908,
            "type" : "VEC3"
        },
        {
            "bufferView" : 18,
            "componentType" : 5126,
            "count" : 1908,
            "type" : "VEC2"
        },
        {
            "bufferView" : 19,
            "componentType" : 5123,
            "count" : 3816,
            "type" : "SCALAR"
        },
        {
            "bufferView" : 20,
            "componentType" : 5126,
            "count" : 132,
            "max" : [
                0.15000003576278687,
                0.3699999749660492,
                0.09999996423721313
            ],
            "min" : [
                -0.19999998807907104,
                0.3299999237060547,
                -0.09999996423721313
            ],
            "type" : "VEC3"
        },
        {
            "bufferView" : 21,
            "componentType" : 5126,
            "count" : 132,
            "type" : "VEC3"
        },
        {
            "bufferView" : 22,
            "componentType" : 5126,
            "count" : 132,
            "type" : "VEC2"
        },
        {
            "bufferView" : 23,
            "componentType" : 5123,
            "count" : 384,
            "type" : "SCALAR"
        }
    ],
    "bufferViews" : [
        {
            "buffer" : 0,
            "byteLength" : 9072,
            "byteOffset" : 0
        },
        {
            "buffer" : 0,
            "byteLength" : 9072,
            "byteOffset" : 9072
        },
        {
            "buffer" : 0,
            "byteLength" : 6048,
            "byteOffset" : 18144
        },
        {
            "buffer" : 0,
            "byteLength" : 2196,
            "byteOffset" : 24192
        },
        {
            "buffer" : 0,
            "byteLength" : 29076,
            "byteOffset" : 26388
        },
        {
            "buffer" : 0,
            "byteLength" : 29076,
            "byteOffset" : 55464
        },
        {
            "buffer" : 0,
            "byteLength" : 19384,
            "byteOffset" : 84540
        },
        {
            "buffer" : 0,
            "byteLength" : 8184,
            "byteOffset" : 103924
        },
        {
            "buffer" : 0,
            "byteLength" : 3504,
            "byteOffset" : 112108
        },
        {
            "buffer" : 0,
            "byteLength" : 3504,
            "byteOffset" : 115612
        },
        {
            "buffer" : 0,
            "byteLength" : 2336,
            "byteOffset" : 119116
        },
        {
            "buffer" : 0,
            "byteLength" : 840,
            "byteOffset" : 121452
        },
        {
            "buffer" : 0,
            "byteLength" : 7128,
            "byteOffset" : 122292
        },
        {
            "buffer" : 0,
            "byteLength" : 7128,
            "byteOffset" : 129420
        },
        {
            "buffer" : 0,
            "byteLength" : 4752,
            "byteOffset" : 136548
        },
        {
            "buffer" : 0,
            "byteLength" : 3264,
            "byteOffset" : 141300
        },
        {
            "buffer" : 0,
            "byteLength" : 22896,
            "byteOffset" : 144564
        },
        {
            "buffer" : 0,
            "byteLength" : 22896,
            "byteOffset" : 167460
        },
        {
            "buffer" : 0,
            "byteLength" : 15264,
            "byteOffset" : 190356
        },
        {
            "buffer" : 0,
            "byteLength" : 7632,
            "byteOffset" : 205620
        },
        {
            "buffer" : 0,
            "byteLength" : 1584,
            "byteOffset" : 213252
        },
        {
            "buffer" : 0,
            "byteLength" : 1584,
            "byteOffset" : 214836
        },
        {
            "buffer" : 0,
            "byteLength" : 1056,
            "byteOffset" : 216420
        },
        {
            "buffer" : 0,
            "byteLength" : 768,
            "byteOffset" : 217476
        }
    ],
    "buffers" : [
        {
            "byteLength" : 218244,
            "uri" : "data:application/octet-stream;base64,"
        }
    ]
}
