{
    "asset" : {
        "generator" : "Khronos glTF Blender I/O v1.6.16",
        "version" : "2.0"
    },
    "scene" : 0,
    "scenes" : [
        {
            "name" : "Scene",
            "nodes" : [
                0
            ]
        }
    ],
    "nodes" : [
        {
            "mesh" : 0,
            "name" : "ConcreteTile_Square"
        }
    ],
    "materials" : [
        {
            "doubleSided" : true,
            "name" : "Material",
            "pbrMetallicRoughness" : {
                "baseColorFactor" : [
                    0.800000011920929,
                    0.800000011920929,
                    0.800000011920929,
                    1
                ],
                "metallicFactor" : 0,
                "roughnessFactor" : 0.4000000059604645
            }
        },
        {
            "doubleSided" : true,
            "name" : "Concrete",
            "pbrMetallicRoughness" : {
                "baseColorFactor" : [
                    0.3588404655456543,
                    0.3588404655456543,
                    0.3588404655456543,
                    1
                ],
                "metallicFactor" : 0
            }
        }
    ],
    "meshes" : [
        {
            "name" : "Cube.031",
            "primitives" : [
                {
                    "attributes" : {
                        "POSITION" : 0,
                        "NORMAL" : 1,
                        "TEXCOORD_0" : 2
                    },
                    "indices" : 3,
                    "material" : 0
                },
                {
                    "attributes" : {
                        "POSITION" : 4,
                        "NORMAL" : 5,
                        "TEXCOORD_0" : 6
                    },
                    "indices" : 7,
                    "material" : 1
                }
            ]
        }
    ],
    "accessors" : [
        {
            "bufferView" : 0,
            "componentType" : 5126,
            "count" : 244,
            "max" : [
                1,
                -0.004999999888241291,
                1
            ],
            "min" : [
                -1,
                -0.09999996423721313,
                -1
            ],
            "type" : "VEC3"
        },
        {
            "bufferView" : 1,
            "componentType" : 5126,
            "count" : 244,
            "type" : "VEC3"
        },
        {
            "bufferView" : 2,
            "componentType" : 5126,
            "count" : 244,
            "type" : "VEC2"
        },
        {
            "bufferView" : 3,
            "componentType" : 5123,
            "count" : 840,
            "type" : "SCALAR"
        },
        {
            "bufferView" : 4,
            "componentType" : 5126,
            "count" : 273,
            "max" : [
                1,
                0,
                1
            ],
            "min" : [
                -1,
                -0.004999999888241291,
                -1
            ],
            "type" : "VEC3"
        },
        {
            "bufferView" : 5,
            "componentType" : 5126,
            "count" : 273,
            "type" : "VEC3"
        },
        {
            "bufferView" : 6,
            "componentType" : 5126,
            "count" : 273,
            "type" : "VEC2"
        },
        {
            "bufferView" : 7,
            "componentType" : 5123,
            "count" : 840,
            "type" : "SCALAR"
        }
    ],
    "bufferViews" : [
        {
            "buffer" : 0,
            "byteLength" : 2928,
            "byteOffset" : 0
        },
        {
            "buffer" : 0,
            "byteLength" : 2928,
            "byteOffset" : 2928
        },
        {
            "buffer" : 0,
            "byteLength" : 1952,
            "byteOffset" : 5856
        },
        {
            "buffer" : 0,
            "byteLength" : 1680,
            "byteOffset" : 7808
        },
        {
            "buffer" : 0,
            "byteLength" : 3276,
            "byteOffset" : 9488
        },
        {
            "buffer" : 0,
            "byteLength" : 3276,
            "byteOffset" : 12764
        },
        {
            "buffer" : 0,
            "byteLength" : 2184,
            "byteOffset" : 16040
        },
        {
            "buffer" : 0,
            "byteLength" : 1680,
            "byteOffset" : 18224
        }
    ],
    "buffers" : [
        {
            "byteLength" : 19904,
            "uri" : "data:application/octet-stream;base64,"
        }
    ]
}
