{
    "asset" : {
        "generator" : "Khronos glTF Blender I/O v1.6.16",
        "version" : "2.0"
    },
    "extensionsUsed" : [
        "KHR_materials_clearcoat"
    ],
    "scene" : 0,
    "scenes" : [
        {
            "name" : "Scene",
            "nodes" : [
                0
            ]
        }
    ],
    "nodes" : [
        {
            "mesh" : 0,
            "name" : "Door"
        }
    ],
    "materials" : [
        {
            "doubleSided" : true,
            "extensions" : {
                "KHR_materials_clearcoat" : {
                    "clearcoatFactor" : 0.3741496801376343,
                    "clearcoatRoughnessFactor" : 0.13544216752052307
                }
            },
            "name" : "Wood",
            "pbrMetallicRoughness" : {
                "baseColorFactor" : [
                    0.157434344291687,
                    0.09413126111030579,
                    0.032351866364479065,
                    1
                ],
                "metallicFactor" : 0,
                "roughnessFactor" : 0.7687075138092041
            }
        }
    ],
    "meshes" : [
        {
            "name" : "Cube.003",
            "primitives" : [
                {
                    "attributes" : {
                        "POSITION" : 0,
                        "NORMAL" : 1,
                        "TEXCOORD_0" : 2
                    },
                    "indices" : 3,
                    "material" : 0
                }
            ]
        }
    ],
    "accessors" : [
        {
            "bufferView" : 0,
            "componentType" : 5126,
            "count" : 2207,
            "max" : [
                0.6299999952316284,
                2.4000000953674316,
                0.049999967217445374
            ],
            "min" : [
                -0.6299999952316284,
                0,
                -0.049999967217445374
            ],
            "type" : "VEC3"
        },
        {
            "bufferView" : 1,
            "componentType" : 5126,
            "count" : 2207,
            "type" : "VEC3"
        },
        {
            "bufferView" : 2,
            "componentType" : 5126,
            "count" : 2207,
            "type" : "VEC2"
        },
        {
            "bufferView" : 3,
            "componentType" : 5123,
            "count" : 3240,
            "type" : "SCALAR"
        }
    ],
    "bufferViews" : [
        {
            "buffer" : 0,
            "byteLength" : 26484,
            "byteOffset" : 0
        },
        {
            "buffer" : 0,
            "byteLength" : 26484,
            "byteOffset" : 26484
        },
        {
            "buffer" : 0,
            "byteLength" : 17656,
            "byteOffset" : 52968
        },
        {
            "buffer" : 0,
            "byteLength" : 6480,
            "byteOffset" : 70624
        }
    ],
    "buffers" : [
        {
            "byteLength" : 77104,
            "uri" : "data:application/octet-stream;base64,"
        }
    ]
}
