{
    "asset" : {
        "generator" : "Khronos glTF Blender I/O v1.6.16",
        "version" : "2.0"
    },
    "extensionsUsed" : [
        "KHR_materials_clearcoat"
    ],
    "scene" : 0,
    "scenes" : [
        {
            "name" : "Scene",
            "nodes" : [
                0
            ]
        }
    ],
    "nodes" : [
        {
            "mesh" : 0,
            "name" : "ExteriorWall_Door_Str"
        }
    ],
    "materials" : [
        {
            "doubleSided" : true,
            "extensions" : {
                "KHR_materials_clearcoat" : {
                    "clearcoatFactor" : 0.07482992857694626,
                    "clearcoatRoughnessFactor" : 0.16605442762374878
                }
            },
            "name" : "Wall",
            "pbrMetallicRoughness" : {
                "baseColorFactor" : [
                    0.8829235434532166,
                    0.8434882164001465,
                    0.6084717512130737,
                    1
                ],
                "metallicFactor" : 0,
                "roughnessFactor" : 0.7108843326568604
            }
        },
        {
            "doubleSided" : true,
            "name" : "TileEdge",
            "pbrMetallicRoughness" : {
                "baseColorFactor" : [
                    0.5382243990898132,
                    0.5382243990898132,
                    0.5382243990898132,
                    1
                ],
                "metallicFactor" : 0
            }
        },
        {
            "doubleSided" : true,
            "name" : "ExteriorBrick",
            "pbrMetallicRoughness" : {
                "baseColorFactor" : [
                    0.7991030216217041,
                    0.7529423832893372,
                    0.46207699179649353,
                    1
                ],
                "metallicFactor" : 0
            }
        }
    ],
    "meshes" : [
        {
            "name" : "Cube.001",
            "primitives" : [
                {
                    "attributes" : {
                        "POSITION" : 0,
                        "NORMAL" : 1,
                        "TEXCOORD_0" : 2
                    },
                    "indices" : 3,
                    "material" : 0
                },
                {
                    "attributes" : {
                        "POSITION" : 4,
                        "NORMAL" : 5,
                        "TEXCOORD_0" : 6
                    },
                    "indices" : 7,
                    "material" : 1
                },
                {
                    "attributes" : {
                        "POSITION" : 8,
                        "NORMAL" : 9,
                        "TEXCOORD_0" : 10
                    },
                    "indices" : 11,
                    "material" : 2
                }
            ]
        }
    ],
    "accessors" : [
        {
            "bufferView" : 0,
            "componentType" : 5126,
            "count" : 270,
            "max" : [
                1,
                3,
                -2.8498956083922167e-08
            ],
            "min" : [
                -1,
                0,
                -0.14999999105930328
            ],
            "type" : "VEC3"
        },
        {
            "bufferView" : 1,
            "componentType" : 5126,
            "count" : 270,
            "type" : "VEC3"
        },
        {
            "bufferView" : 2,
            "componentType" : 5126,
            "count" : 270,
            "type" : "VEC2"
        },
        {
            "bufferView" : 3,
            "componentType" : 5123,
            "count" : 507,
            "type" : "SCALAR"
        },
        {
            "bufferView" : 4,
            "componentType" : 5126,
            "count" : 782,
            "max" : [
                1,
                3,
                -2.8498956083922167e-08
            ],
            "min" : [
                -1,
                0,
                -0.14999999105930328
            ],
            "type" : "VEC3"
        },
        {
            "bufferView" : 5,
            "componentType" : 5126,
            "count" : 782,
            "type" : "VEC3"
        },
        {
            "bufferView" : 6,
            "componentType" : 5126,
            "count" : 782,
            "type" : "VEC2"
        },
        {
            "bufferView" : 7,
            "componentType" : 5123,
            "count" : 1326,
            "type" : "SCALAR"
        },
        {
            "bufferView" : 8,
            "componentType" : 5126,
            "count" : 115,
            "max" : [
                1,
                2.994999885559082,
                -0.14997498691082
            ],
            "min" : [
                -1,
                0.004999999422580004,
                -0.14999999105930328
            ],
            "type" : "VEC3"
        },
        {
            "bufferView" : 9,
            "componentType" : 5126,
            "count" : 115,
            "type" : "VEC3"
        },
        {
            "bufferView" : 10,
            "componentType" : 5126,
            "count" : 115,
            "type" : "VEC2"
        },
        {
            "bufferView" : 11,
            "componentType" : 5123,
            "count" : 225,
            "type" : "SCALAR"
        }
    ],
    "bufferViews" : [
        {
            "buffer" : 0,
            "byteLength" : 3240,
            "byteOffset" : 0
        },
        {
            "buffer" : 0,
            "byteLength" : 3240,
            "byteOffset" : 3240
        },
        {
            "buffer" : 0,
            "byteLength" : 2160,
            "byteOffset" : 6480
        },
        {
            "buffer" : 0,
            "byteLength" : 1014,
            "byteOffset" : 8640
        },
        {
            "buffer" : 0,
            "byteLength" : 9384,
            "byteOffset" : 9656
        },
        {
            "buffer" : 0,
            "byteLength" : 9384,
            "byteOffset" : 19040
        },
        {
            "buffer" : 0,
            "byteLength" : 6256,
            "byteOffset" : 28424
        },
        {
            "buffer" : 0,
            "byteLength" : 2652,
            "byteOffset" : 34680
        },
        {
            "buffer" : 0,
            "byteLength" : 1380,
            "byteOffset" : 37332
        },
        {
            "buffer" : 0,
            "byteLength" : 1380,
            "byteOffset" : 38712
        },
        {
            "buffer" : 0,
            "byteLength" : 920,
            "byteOffset" : 40092
        },
        {
            "buffer" : 0,
            "byteLength" : 450,
            "byteOffset" : 41012
        }
    ],
    "buffers" : [
        {
            "byteLength" : 41464,
            "uri" : "data:application/octet-stream;base64,"
        }
    ]
}
