{
    "asset" : {
        "generator" : "Khronos glTF Blender I/O v1.6.16",
        "version" : "2.0"
    },
    "extensionsUsed" : [
        "KHR_materials_clearcoat"
    ],
    "scene" : 0,
    "scenes" : [
        {
            "name" : "Scene",
            "nodes" : [
                0
            ]
        }
    ],
    "nodes" : [
        {
            "mesh" : 0,
            "name" : "ExteriorWall_45Door_Capped",
            "scale" : [
                1.000006079673767,
                1,
                1
            ]
        }
    ],
    "materials" : [
        {
            "doubleSided" : true,
            "extensions" : {
                "KHR_materials_clearcoat" : {
                    "clearcoatFactor" : 0.07482992857694626,
                    "clearcoatRoughnessFactor" : 0.16605442762374878
                }
            },
            "name" : "Wall",
            "pbrMetallicRoughness" : {
                "baseColorFactor" : [
                    0.8829235434532166,
                    0.8434882164001465,
                    0.6084717512130737,
                    1
                ],
                "metallicFactor" : 0,
                "roughnessFactor" : 0.7108843326568604
            }
        },
        {
            "doubleSided" : true,
            "name" : "TileEdge",
            "pbrMetallicRoughness" : {
                "baseColorFactor" : [
                    0.5382243990898132,
                    0.5382243990898132,
                    0.5382243990898132,
                    1
                ],
                "metallicFactor" : 0
            }
        },
        {
            "doubleSided" : true,
            "name" : "ExteriorBrick",
            "pbrMetallicRoughness" : {
                "baseColorFactor" : [
                    0.7991030216217041,
                    0.7529423832893372,
                    0.46207699179649353,
                    1
                ],
                "metallicFactor" : 0
            }
        }
    ],
    "meshes" : [
        {
            "name" : "Cube.054",
            "primitives" : [
                {
                    "attributes" : {
                        "POSITION" : 0,
                        "NORMAL" : 1,
                        "TEXCOORD_0" : 2
                    },
                    "indices" : 3,
                    "material" : 0
                },
                {
                    "attributes" : {
                        "POSITION" : 4,
                        "NORMAL" : 5,
                        "TEXCOORD_0" : 6
                    },
                    "indices" : 7,
                    "material" : 1
                },
                {
                    "attributes" : {
                        "POSITION" : 8,
                        "NORMAL" : 9,
                        "TEXCOORD_0" : 10
                    },
                    "indices" : 11,
                    "material" : 2
                }
            ]
        }
    ],
    "accessors" : [
        {
            "bufferView" : 0,
            "componentType" : 5126,
            "count" : 731,
            "max" : [
                2.9344747066497803,
                3,
                0.043938636779785156
            ],
            "min" : [
                -2.934471607208252,
                0,
                -0.15000392496585846
            ],
            "type" : "VEC3"
        },
        {
            "bufferView" : 1,
            "componentType" : 5126,
            "count" : 731,
            "type" : "VEC3"
        },
        {
            "bufferView" : 2,
            "componentType" : 5126,
            "count" : 731,
            "type" : "VEC2"
        },
        {
            "bufferView" : 3,
            "componentType" : 5123,
            "count" : 1188,
            "type" : "SCALAR"
        },
        {
            "bufferView" : 4,
            "componentType" : 5126,
            "count" : 1605,
            "max" : [
                2.9344747066497803,
                3,
                -0.05859212949872017
            ],
            "min" : [
                -2.934471607208252,
                0,
                -0.15000468492507935
            ],
            "type" : "VEC3"
        },
        {
            "bufferView" : 5,
            "componentType" : 5126,
            "count" : 1605,
            "type" : "VEC3"
        },
        {
            "bufferView" : 6,
            "componentType" : 5126,
            "count" : 1605,
            "type" : "VEC2"
        },
        {
            "bufferView" : 7,
            "componentType" : 5123,
            "count" : 2196,
            "type" : "SCALAR"
        },
        {
            "bufferView" : 8,
            "componentType" : 5126,
            "count" : 517,
            "max" : [
                2.9344747066497803,
                2.994999885559082,
                -0.06212766841053963
            ],
            "min" : [
                -2.934471607208252,
                0.004999999422580004,
                -0.15000468492507935
            ],
            "type" : "VEC3"
        },
        {
            "bufferView" : 9,
            "componentType" : 5126,
            "count" : 517,
            "type" : "VEC3"
        },
        {
            "bufferView" : 10,
            "componentType" : 5126,
            "count" : 517,
            "type" : "VEC2"
        },
        {
            "bufferView" : 11,
            "componentType" : 5123,
            "count" : 786,
            "type" : "SCALAR"
        }
    ],
    "bufferViews" : [
        {
            "buffer" : 0,
            "byteLength" : 8772,
            "byteOffset" : 0
        },
        {
            "buffer" : 0,
            "byteLength" : 8772,
            "byteOffset" : 8772
        },
        {
            "buffer" : 0,
            "byteLength" : 5848,
            "byteOffset" : 17544
        },
        {
            "buffer" : 0,
            "byteLength" : 2376,
            "byteOffset" : 23392
        },
        {
            "buffer" : 0,
            "byteLength" : 19260,
            "byteOffset" : 25768
        },
        {
            "buffer" : 0,
            "byteLength" : 19260,
            "byteOffset" : 45028
        },
        {
            "buffer" : 0,
            "byteLength" : 12840,
            "byteOffset" : 64288
        },
        {
            "buffer" : 0,
            "byteLength" : 4392,
            "byteOffset" : 77128
        },
        {
            "buffer" : 0,
            "byteLength" : 6204,
            "byteOffset" : 81520
        },
        {
            "buffer" : 0,
            "byteLength" : 6204,
            "byteOffset" : 87724
        },
        {
            "buffer" : 0,
            "byteLength" : 4136,
            "byteOffset" : 93928
        },
        {
            "buffer" : 0,
            "byteLength" : 1572,
            "byteOffset" : 98064
        }
    ],
    "buffers" : [
        {
            "byteLength" : 99636,
            "uri" : "data:application/octet-stream;base64,"
        }
    ]
}
