{
    "asset" : {
        "generator" : "Khronos glTF Blender I/O v1.6.16",
        "version" : "2.0"
    },
    "extensionsUsed" : [
        "KHR_materials_clearcoat",
        "KHR_materials_transmission"
    ],
    "scene" : 0,
    "scenes" : [
        {
            "name" : "Scene",
            "nodes" : [
                0
            ]
        }
    ],
    "nodes" : [
        {
            "mesh" : 0,
            "name" : "ExteriorWall_Window_Str"
        }
    ],
    "materials" : [
        {
            "doubleSided" : true,
            "extensions" : {
                "KHR_materials_clearcoat" : {
                    "clearcoatFactor" : 0.07482992857694626,
                    "clearcoatRoughnessFactor" : 0.16605442762374878
                }
            },
            "name" : "Wall",
            "pbrMetallicRoughness" : {
                "baseColorFactor" : [
                    0.8829235434532166,
                    0.8434882164001465,
                    0.6084717512130737,
                    1
                ],
                "metallicFactor" : 0,
                "roughnessFactor" : 0.7108843326568604
            }
        },
        {
            "doubleSided" : true,
            "extensions" : {
                "KHR_materials_clearcoat" : {
                    "clearcoatFactor" : 0.5714285969734192,
                    "clearcoatRoughnessFactor" : 0.053809523582458496
                },
                "KHR_materials_transmission" : {
                    "transmissionFactor" : 0.5884353518486023
                }
            },
            "name" : "WhitePlastic",
            "pbrMetallicRoughness" : {
                "baseColorFactor" : [
                    0.6266639828681946,
                    0.602956235408783,
                    0.4898477792739868,
                    1
                ],
                "metallicFactor" : 0,
                "roughnessFactor" : 0.5
            }
        },
        {
            "doubleSided" : true,
            "extensions" : {
                "KHR_materials_clearcoat" : {
                    "clearcoatFactor" : 1,
                    "clearcoatRoughnessFactor" : 0.029999999329447746
                },
                "KHR_materials_transmission" : {
                    "transmissionFactor" : 0.25
                }
            },
            "name" : "Glass",
            "pbrMetallicRoughness" : {
                "baseColorFactor" : [
                    0.43695417046546936,
                    0.6881104707717896,
                    0.8000000715255737,
                    1
                ],
                "metallicFactor" : 0,
                "roughnessFactor" : 0.125
            }
        },
        {
            "doubleSided" : true,
            "name" : "TileEdge",
            "pbrMetallicRoughness" : {
                "baseColorFactor" : [
                    0.5382243990898132,
                    0.5382243990898132,
                    0.5382243990898132,
                    1
                ],
                "metallicFactor" : 0
            }
        },
        {
            "doubleSided" : true,
            "name" : "ExteriorBrick",
            "pbrMetallicRoughness" : {
                "baseColorFactor" : [
                    0.7991030216217041,
                    0.7529423832893372,
                    0.46207699179649353,
                    1
                ],
                "metallicFactor" : 0
            }
        }
    ],
    "meshes" : [
        {
            "name" : "Cube.034",
            "primitives" : [
                {
                    "attributes" : {
                        "POSITION" : 0,
                        "NORMAL" : 1,
                        "TEXCOORD_0" : 2
                    },
                    "indices" : 3,
                    "material" : 0
                },
                {
                    "attributes" : {
                        "POSITION" : 4,
                        "NORMAL" : 5,
                        "TEXCOORD_0" : 6
                    },
                    "indices" : 7,
                    "material" : 1
                },
                {
                    "attributes" : {
                        "POSITION" : 8,
                        "NORMAL" : 9,
                        "TEXCOORD_0" : 10
                    },
                    "indices" : 11,
                    "material" : 2
                },
                {
                    "attributes" : {
                        "POSITION" : 12,
                        "NORMAL" : 13,
                        "TEXCOORD_0" : 14
                    },
                    "indices" : 15,
                    "material" : 3
                },
                {
                    "attributes" : {
                        "POSITION" : 16,
                        "NORMAL" : 17,
                        "TEXCOORD_0" : 18
                    },
                    "indices" : 19,
                    "material" : 4
                }
            ]
        }
    ],
    "accessors" : [
        {
            "bufferView" : 0,
            "componentType" : 5126,
            "count" : 153,
            "max" : [
                1,
                3,
                -1.4521428504110645e-08
            ],
            "min" : [
                -1,
                0,
                -0.14999999105930328
            ],
            "type" : "VEC3"
        },
        {
            "bufferView" : 1,
            "componentType" : 5126,
            "count" : 153,
            "type" : "VEC3"
        },
        {
            "bufferView" : 2,
            "componentType" : 5126,
            "count" : 153,
            "type" : "VEC2"
        },
        {
            "bufferView" : 3,
            "componentType" : 5123,
            "count" : 342,
            "type" : "SCALAR"
        },
        {
            "bufferView" : 4,
            "componentType" : 5126,
            "count" : 693,
            "max" : [
                0.8999999761581421,
                2.6999998092651367,
                -0.009999995119869709
            ],
            "min" : [
                -0.9000024199485779,
                1.2000000476837158,
                -0.14499999582767487
            ],
            "type" : "VEC3"
        },
        {
            "bufferView" : 5,
            "componentType" : 5126,
            "count" : 693,
            "type" : "VEC3"
        },
        {
            "bufferView" : 6,
            "componentType" : 5126,
            "count" : 693,
            "type" : "VEC2"
        },
        {
            "bufferView" : 7,
            "componentType" : 5123,
            "count" : 1224,
            "type" : "SCALAR"
        },
        {
            "bufferView" : 8,
            "componentType" : 5126,
            "count" : 80,
            "max" : [
                0.8730000853538513,
                2.6797499656677246,
                -0.009999995119869709
            ],
            "min" : [
                -0.8730019330978394,
                1.221750020980835,
                -0.009999995119869709
            ],
            "type" : "VEC3"
        },
        {
            "bufferView" : 9,
            "componentType" : 5126,
            "count" : 80,
            "type" : "VEC3"
        },
        {
            "bufferView" : 10,
            "componentType" : 5126,
            "count" : 80,
            "type" : "VEC2"
        },
        {
            "bufferView" : 11,
            "componentType" : 5123,
            "count" : 120,
            "type" : "SCALAR"
        },
        {
            "bufferView" : 12,
            "componentType" : 5126,
            "count" : 1136,
            "max" : [
                1,
                3,
                -1.4521428504110645e-08
            ],
            "min" : [
                -1,
                0,
                -0.15000015497207642
            ],
            "type" : "VEC3"
        },
        {
            "bufferView" : 13,
            "componentType" : 5126,
            "count" : 1136,
            "type" : "VEC3"
        },
        {
            "bufferView" : 14,
            "componentType" : 5126,
            "count" : 1136,
            "type" : "VEC2"
        },
        {
            "bufferView" : 15,
            "componentType" : 5123,
            "count" : 1902,
            "type" : "SCALAR"
        },
        {
            "bufferView" : 16,
            "componentType" : 5126,
            "count" : 227,
            "max" : [
                1,
                2.994999885559082,
                -0.14999999105930328
            ],
            "min" : [
                -1,
                0.004999999422580004,
                -0.15000015497207642
            ],
            "type" : "VEC3"
        },
        {
            "bufferView" : 17,
            "componentType" : 5126,
            "count" : 227,
            "type" : "VEC3"
        },
        {
            "bufferView" : 18,
            "componentType" : 5126,
            "count" : 227,
            "type" : "VEC2"
        },
        {
            "bufferView" : 19,
            "componentType" : 5123,
            "count" : 360,
            "type" : "SCALAR"
        }
    ],
    "bufferViews" : [
        {
            "buffer" : 0,
            "byteLength" : 1836,
            "byteOffset" : 0
        },
        {
            "buffer" : 0,
            "byteLength" : 1836,
            "byteOffset" : 1836
        },
        {
            "buffer" : 0,
            "byteLength" : 1224,
            "byteOffset" : 3672
        },
        {
            "buffer" : 0,
            "byteLength" : 684,
            "byteOffset" : 4896
        },
        {
            "buffer" : 0,
            "byteLength" : 8316,
            "byteOffset" : 5580
        },
        {
            "buffer" : 0,
            "byteLength" : 8316,
            "byteOffset" : 13896
        },
        {
            "buffer" : 0,
            "byteLength" : 5544,
            "byteOffset" : 22212
        },
        {
            "buffer" : 0,
            "byteLength" : 2448,
            "byteOffset" : 27756
        },
        {
            "buffer" : 0,
            "byteLength" : 960,
            "byteOffset" : 30204
        },
        {
            "buffer" : 0,
            "byteLength" : 960,
            "byteOffset" : 31164
        },
        {
            "buffer" : 0,
            "byteLength" : 640,
            "byteOffset" : 32124
        },
        {
            "buffer" : 0,
            "byteLength" : 240,
            "byteOffset" : 32764
        },
        {
            "buffer" : 0,
            "byteLength" : 13632,
            "byteOffset" : 33004
        },
        {
            "buffer" : 0,
            "byteLength" : 13632,
            "byteOffset" : 46636
        },
        {
            "buffer" : 0,
            "byteLength" : 9088,
            "byteOffset" : 60268
        },
        {
            "buffer" : 0,
            "byteLength" : 3804,
            "byteOffset" : 69356
        },
        {
            "buffer" : 0,
            "byteLength" : 2724,
            "byteOffset" : 73160
        },
        {
            "buffer" : 0,
            "byteLength" : 2724,
            "byteOffset" : 75884
        },
        {
            "buffer" : 0,
            "byteLength" : 1816,
            "byteOffset" : 78608
        },
        {
            "buffer" : 0,
            "byteLength" : 720,
            "byteOffset" : 80424
        }
    ],
    "buffers" : [
        {
            "byteLength" : 81144,
            "uri" : "data:application/octet-stream;base64,"
        }
    ]
}
