{
    "asset" : {
        "generator" : "Khronos glTF Blender I/O v1.6.16",
        "version" : "2.0"
    },
    "extensionsUsed" : [
        "KHR_materials_clearcoat"
    ],
    "scene" : 0,
    "scenes" : [
        {
            "name" : "Scene",
            "nodes" : [
                0
            ]
        }
    ],
    "nodes" : [
        {
            "mesh" : 0,
            "name" : "FloorTile.001"
        }
    ],
    "materials" : [
        {
            "doubleSided" : true,
            "name" : "Material",
            "pbrMetallicRoughness" : {
                "baseColorFactor" : [
                    0.800000011920929,
                    0.800000011920929,
                    0.800000011920929,
                    1
                ],
                "metallicFactor" : 0,
                "roughnessFactor" : 0.4000000059604645
            }
        },
        {
            "doubleSided" : true,
            "extensions" : {
                "KHR_materials_clearcoat" : {
                    "clearcoatFactor" : 0.054421767592430115,
                    "clearcoatRoughnessFactor" : 1
                }
            },
            "name" : "PrimaryTile",
            "pbrMetallicRoughness" : {
                "baseColorFactor" : [
                    0.009018296375870705,
                    0.009018296375870705,
                    0.009018296375870705,
                    1
                ],
                "metallicFactor" : 0,
                "roughnessFactor" : 0.5782312750816345
            }
        },
        {
            "doubleSided" : true,
            "name" : "SecondaryTile",
            "pbrMetallicRoughness" : {
                "baseColorFactor" : [
                    0.8000000715255737,
                    0.7509722113609314,
                    0.45965710282325745,
                    1
                ],
                "metallicFactor" : 0,
                "roughnessFactor" : 0.578000009059906
            }
        },
        {
            "doubleSided" : true,
            "name" : "TileEdge",
            "pbrMetallicRoughness" : {
                "baseColorFactor" : [
                    0.5382243990898132,
                    0.5382243990898132,
                    0.5382243990898132,
                    1
                ],
                "metallicFactor" : 0
            }
        }
    ],
    "meshes" : [
        {
            "name" : "Cube.005",
            "primitives" : [
                {
                    "attributes" : {
                        "POSITION" : 0,
                        "NORMAL" : 1,
                        "TEXCOORD_0" : 2
                    },
                    "indices" : 3,
                    "material" : 0
                },
                {
                    "attributes" : {
                        "POSITION" : 4,
                        "NORMAL" : 5,
                        "TEXCOORD_0" : 6
                    },
                    "indices" : 7,
                    "material" : 1
                },
                {
                    "attributes" : {
                        "POSITION" : 8,
                        "NORMAL" : 9,
                        "TEXCOORD_0" : 10
                    },
                    "indices" : 11,
                    "material" : 2
                },
                {
                    "attributes" : {
                        "POSITION" : 12,
                        "NORMAL" : 13,
                        "TEXCOORD_0" : 14
                    },
                    "indices" : 15,
                    "material" : 3
                }
            ]
        }
    ],
    "accessors" : [
        {
            "bufferView" : 0,
            "componentType" : 5126,
            "count" : 30,
            "max" : [
                1,
                -0.004999999888241291,
                1
            ],
            "min" : [
                -1,
                -0.09999996423721313,
                -1
            ],
            "type" : "VEC3"
        },
        {
            "bufferView" : 1,
            "componentType" : 5126,
            "count" : 30,
            "type" : "VEC3"
        },
        {
            "bufferView" : 2,
            "componentType" : 5126,
            "count" : 30,
            "type" : "VEC2"
        },
        {
            "bufferView" : 3,
            "componentType" : 5123,
            "count" : 48,
            "type" : "SCALAR"
        },
        {
            "bufferView" : 4,
            "componentType" : 5126,
            "count" : 4,
            "max" : [
                0.9950000047683716,
                0,
                0.9950000047683716
            ],
            "min" : [
                0.004999999888241291,
                0,
                0.004999999888241291
            ],
            "type" : "VEC3"
        },
        {
            "bufferView" : 5,
            "componentType" : 5126,
            "count" : 4,
            "type" : "VEC3"
        },
        {
            "bufferView" : 6,
            "componentType" : 5126,
            "count" : 4,
            "type" : "VEC2"
        },
        {
            "bufferView" : 7,
            "componentType" : 5123,
            "count" : 6,
            "type" : "SCALAR"
        },
        {
            "bufferView" : 8,
            "componentType" : 5126,
            "count" : 6,
            "max" : [
                0.9950000047683716,
                0,
                0.9950000643730164
            ],
            "min" : [
                -0.987929105758667,
                0,
                -0.9879290461540222
            ],
            "type" : "VEC3"
        },
        {
            "bufferView" : 9,
            "componentType" : 5126,
            "count" : 6,
            "type" : "VEC3"
        },
        {
            "bufferView" : 10,
            "componentType" : 5126,
            "count" : 6,
            "type" : "VEC2"
        },
        {
            "bufferView" : 11,
            "componentType" : 5123,
            "count" : 6,
            "type" : "SCALAR"
        },
        {
            "bufferView" : 12,
            "componentType" : 5126,
            "count" : 40,
            "max" : [
                1,
                0,
                1
            ],
            "min" : [
                -1,
                -0.005000000353902578,
                -1
            ],
            "type" : "VEC3"
        },
        {
            "bufferView" : 13,
            "componentType" : 5126,
            "count" : 40,
            "type" : "VEC3"
        },
        {
            "bufferView" : 14,
            "componentType" : 5126,
            "count" : 40,
            "type" : "VEC2"
        },
        {
            "bufferView" : 15,
            "componentType" : 5123,
            "count" : 60,
            "type" : "SCALAR"
        }
    ],
    "bufferViews" : [
        {
            "buffer" : 0,
            "byteLength" : 360,
            "byteOffset" : 0
        },
        {
            "buffer" : 0,
            "byteLength" : 360,
            "byteOffset" : 360
        },
        {
            "buffer" : 0,
            "byteLength" : 240,
            "byteOffset" : 720
        },
        {
            "buffer" : 0,
            "byteLength" : 96,
            "byteOffset" : 960
        },
        {
            "buffer" : 0,
            "byteLength" : 48,
            "byteOffset" : 1056
        },
        {
            "buffer" : 0,
            "byteLength" : 48,
            "byteOffset" : 1104
        },
        {
            "buffer" : 0,
            "byteLength" : 32,
            "byteOffset" : 1152
        },
        {
            "buffer" : 0,
            "byteLength" : 12,
            "byteOffset" : 1184
        },
        {
            "buffer" : 0,
            "byteLength" : 72,
            "byteOffset" : 1196
        },
        {
            "buffer" : 0,
            "byteLength" : 72,
            "byteOffset" : 1268
        },
        {
            "buffer" : 0,
            "byteLength" : 48,
            "byteOffset" : 1340
        },
        {
            "buffer" : 0,
            "byteLength" : 12,
            "byteOffset" : 1388
        },
        {
            "buffer" : 0,
            "byteLength" : 480,
            "byteOffset" : 1400
        },
        {
            "buffer" : 0,
            "byteLength" : 480,
            "byteOffset" : 1880
        },
        {
            "buffer" : 0,
            "byteLength" : 320,
            "byteOffset" : 2360
        },
        {
            "buffer" : 0,
            "byteLength" : 120,
            "byteOffset" : 2680
        }
    ],
    "buffers" : [
        {
            "byteLength" : 2800,
            "uri" : "data:application/octet-stream;base64,"
        }
    ]
}
