{
    "asset" : {
        "generator" : "Khronos glTF Blender I/O v1.6.16",
        "version" : "2.0"
    },
    "extensionsUsed" : [
        "KHR_materials_clearcoat"
    ],
    "scene" : 0,
    "scenes" : [
        {
            "name" : "Scene",
            "nodes" : [
                0
            ]
        }
    ],
    "nodes" : [
        {
            "mesh" : 0,
            "name" : "InteriorWall_45Door"
        }
    ],
    "materials" : [
        {
            "doubleSided" : true,
            "extensions" : {
                "KHR_materials_clearcoat" : {
                    "clearcoatFactor" : 0.07482992857694626,
                    "clearcoatRoughnessFactor" : 0.16605442762374878
                }
            },
            "name" : "Wall",
            "pbrMetallicRoughness" : {
                "baseColorFactor" : [
                    0.8829235434532166,
                    0.8434882164001465,
                    0.6084717512130737,
                    1
                ],
                "metallicFactor" : 0,
                "roughnessFactor" : 0.7108843326568604
            }
        },
        {
            "doubleSided" : true,
            "extensions" : {
                "KHR_materials_clearcoat" : {
                    "clearcoatFactor" : 0.07482993602752686,
                    "clearcoatRoughnessFactor" : 0.16605442762374878
                }
            },
            "name" : "WallColor",
            "pbrMetallicRoughness" : {
                "baseColorFactor" : [
                    0.058788347989320755,
                    0.08001182228326797,
                    0.024068035185337067,
                    1
                ],
                "metallicFactor" : 0,
                "roughnessFactor" : 0.7108843326568604
            }
        }
    ],
    "meshes" : [
        {
            "name" : "Cube.033",
            "primitives" : [
                {
                    "attributes" : {
                        "POSITION" : 0,
                        "NORMAL" : 1,
                        "TEXCOORD_0" : 2
                    },
                    "indices" : 3,
                    "material" : 0
                },
                {
                    "attributes" : {
                        "POSITION" : 4,
                        "NORMAL" : 5,
                        "TEXCOORD_0" : 6
                    },
                    "indices" : 7,
                    "material" : 1
                }
            ]
        }
    ],
    "accessors" : [
        {
            "bufferView" : 0,
            "componentType" : 5126,
            "count" : 826,
            "max" : [
                2.8284456729888916,
                3.0023369789123535,
                0.10619258880615234
            ],
            "min" : [
                -2.8284270763397217,
                0,
                -1.5219115994113963e-06
            ],
            "type" : "VEC3"
        },
        {
            "bufferView" : 1,
            "componentType" : 5126,
            "count" : 826,
            "type" : "VEC3"
        },
        {
            "bufferView" : 2,
            "componentType" : 5126,
            "count" : 826,
            "type" : "VEC2"
        },
        {
            "bufferView" : 3,
            "componentType" : 5123,
            "count" : 1254,
            "type" : "SCALAR"
        },
        {
            "bufferView" : 4,
            "componentType" : 5126,
            "count" : 104,
            "max" : [
                2.8284456729888916,
                2.0023374557495117,
                0.10619258880615234
            ],
            "min" : [
                -2.8284270763397217,
                1.0000009536743164,
                8.009374141693115e-08
            ],
            "type" : "VEC3"
        },
        {
            "bufferView" : 5,
            "componentType" : 5126,
            "count" : 104,
            "type" : "VEC3"
        },
        {
            "bufferView" : 6,
            "componentType" : 5126,
            "count" : 104,
            "type" : "VEC2"
        },
        {
            "bufferView" : 7,
            "componentType" : 5123,
            "count" : 168,
            "type" : "SCALAR"
        }
    ],
    "bufferViews" : [
        {
            "buffer" : 0,
            "byteLength" : 9912,
            "byteOffset" : 0
        },
        {
            "buffer" : 0,
            "byteLength" : 9912,
            "byteOffset" : 9912
        },
        {
            "buffer" : 0,
            "byteLength" : 6608,
            "byteOffset" : 19824
        },
        {
            "buffer" : 0,
            "byteLength" : 2508,
            "byteOffset" : 26432
        },
        {
            "buffer" : 0,
            "byteLength" : 1248,
            "byteOffset" : 28940
        },
        {
            "buffer" : 0,
            "byteLength" : 1248,
            "byteOffset" : 30188
        },
        {
            "buffer" : 0,
            "byteLength" : 832,
            "byteOffset" : 31436
        },
        {
            "buffer" : 0,
            "byteLength" : 336,
            "byteOffset" : 32268
        }
    ],
    "buffers" : [
        {
            "byteLength" : 32604,
            "uri" : "data:application/octet-stream;base64,"
        }
    ]
}
