{
    "asset" : {
        "generator" : "Khronos glTF Blender I/O v1.6.16",
        "version" : "2.0"
    },
    "extensionsUsed" : [
        "KHR_materials_clearcoat"
    ],
    "scene" : 0,
    "scenes" : [
        {
            "name" : "Scene",
            "nodes" : [
                0
            ]
        }
    ],
    "nodes" : [
        {
            "mesh" : 0,
            "name" : "InteriorWall_Plain_R45"
        }
    ],
    "materials" : [
        {
            "doubleSided" : true,
            "extensions" : {
                "KHR_materials_clearcoat" : {
                    "clearcoatFactor" : 0.07482992857694626,
                    "clearcoatRoughnessFactor" : 0.16605442762374878
                }
            },
            "name" : "Wall",
            "pbrMetallicRoughness" : {
                "baseColorFactor" : [
                    0.8829235434532166,
                    0.8434882164001465,
                    0.6084717512130737,
                    1
                ],
                "metallicFactor" : 0,
                "roughnessFactor" : 0.7108843326568604
            }
        },
        {
            "doubleSided" : true,
            "extensions" : {
                "KHR_materials_clearcoat" : {
                    "clearcoatFactor" : 0.07482993602752686,
                    "clearcoatRoughnessFactor" : 0.16605442762374878
                }
            },
            "name" : "WallColor",
            "pbrMetallicRoughness" : {
                "baseColorFactor" : [
                    0.058788347989320755,
                    0.08001182228326797,
                    0.024068035185337067,
                    1
                ],
                "metallicFactor" : 0,
                "roughnessFactor" : 0.7108843326568604
            }
        }
    ],
    "meshes" : [
        {
            "name" : "Cube.095",
            "primitives" : [
                {
                    "attributes" : {
                        "POSITION" : 0,
                        "NORMAL" : 1,
                        "TEXCOORD_0" : 2
                    },
                    "indices" : 3,
                    "material" : 0
                },
                {
                    "attributes" : {
                        "POSITION" : 4,
                        "NORMAL" : 5,
                        "TEXCOORD_0" : 6
                    },
                    "indices" : 7,
                    "material" : 1
                }
            ]
        }
    ],
    "accessors" : [
        {
            "bufferView" : 0,
            "componentType" : 5126,
            "count" : 95,
            "max" : [
                1,
                3,
                0.1499999612569809
            ],
            "min" : [
                -1,
                0,
                0
            ],
            "type" : "VEC3"
        },
        {
            "bufferView" : 1,
            "componentType" : 5126,
            "count" : 95,
            "type" : "VEC3"
        },
        {
            "bufferView" : 2,
            "componentType" : 5126,
            "count" : 95,
            "type" : "VEC2"
        },
        {
            "bufferView" : 3,
            "componentType" : 5123,
            "count" : 258,
            "type" : "SCALAR"
        },
        {
            "bufferView" : 4,
            "componentType" : 5126,
            "count" : 20,
            "max" : [
                1,
                2,
                0.1499999612569809
            ],
            "min" : [
                -1,
                1,
                0
            ],
            "type" : "VEC3"
        },
        {
            "bufferView" : 5,
            "componentType" : 5126,
            "count" : 20,
            "type" : "VEC3"
        },
        {
            "bufferView" : 6,
            "componentType" : 5126,
            "count" : 20,
            "type" : "VEC2"
        },
        {
            "bufferView" : 7,
            "componentType" : 5123,
            "count" : 42,
            "type" : "SCALAR"
        }
    ],
    "bufferViews" : [
        {
            "buffer" : 0,
            "byteLength" : 1140,
            "byteOffset" : 0
        },
        {
            "buffer" : 0,
            "byteLength" : 1140,
            "byteOffset" : 1140
        },
        {
            "buffer" : 0,
            "byteLength" : 760,
            "byteOffset" : 2280
        },
        {
            "buffer" : 0,
            "byteLength" : 516,
            "byteOffset" : 3040
        },
        {
            "buffer" : 0,
            "byteLength" : 240,
            "byteOffset" : 3556
        },
        {
            "buffer" : 0,
            "byteLength" : 240,
            "byteOffset" : 3796
        },
        {
            "buffer" : 0,
            "byteLength" : 160,
            "byteOffset" : 4036
        },
        {
            "buffer" : 0,
            "byteLength" : 84,
            "byteOffset" : 4196
        }
    ],
    "buffers" : [
        {
            "byteLength" : 4280,
            "uri" : "data:application/octet-stream;base64,"
        }
    ]
}
