{
    "asset" : {
        "generator" : "Khronos glTF Blender I/O v1.6.16",
        "version" : "2.0"
    },
    "extensionsUsed" : [
        "KHR_materials_clearcoat"
    ],
    "scene" : 0,
    "scenes" : [
        {
            "name" : "Scene",
            "nodes" : [
                0
            ]
        }
    ],
    "nodes" : [
        {
            "mesh" : 0,
            "name" : "InteriorWall_45Door_Capped"
        }
    ],
    "materials" : [
        {
            "doubleSided" : true,
            "extensions" : {
                "KHR_materials_clearcoat" : {
                    "clearcoatFactor" : 0.07482992857694626,
                    "clearcoatRoughnessFactor" : 0.16605442762374878
                }
            },
            "name" : "Wall",
            "pbrMetallicRoughness" : {
                "baseColorFactor" : [
                    0.8829235434532166,
                    0.8434882164001465,
                    0.6084717512130737,
                    1
                ],
                "metallicFactor" : 0,
                "roughnessFactor" : 0.7108843326568604
            }
        },
        {
            "doubleSided" : true,
            "extensions" : {
                "KHR_materials_clearcoat" : {
                    "clearcoatFactor" : 0.07482993602752686,
                    "clearcoatRoughnessFactor" : 0.16605442762374878
                }
            },
            "name" : "WallColor",
            "pbrMetallicRoughness" : {
                "baseColorFactor" : [
                    0.058788347989320755,
                    0.08001182228326797,
                    0.024068035185337067,
                    1
                ],
                "metallicFactor" : 0,
                "roughnessFactor" : 0.7108843326568604
            }
        }
    ],
    "meshes" : [
        {
            "name" : "Cube.033",
            "primitives" : [
                {
                    "attributes" : {
                        "POSITION" : 0,
                        "NORMAL" : 1,
                        "TEXCOORD_0" : 2
                    },
                    "indices" : 3,
                    "material" : 0
                },
                {
                    "attributes" : {
                        "POSITION" : 4,
                        "NORMAL" : 5,
                        "TEXCOORD_0" : 6
                    },
                    "indices" : 7,
                    "material" : 1
                }
            ]
        }
    ],
    "accessors" : [
        {
            "bufferView" : 0,
            "componentType" : 5126,
            "count" : 868,
            "max" : [
                2.8284265995025635,
                3.0000009536743164,
                0.1500018835067749
            ],
            "min" : [
                -2.828423023223877,
                0,
                -1.6322680949087953e-06
            ],
            "type" : "VEC3"
        },
        {
            "bufferView" : 1,
            "componentType" : 5126,
            "count" : 868,
            "type" : "VEC3"
        },
        {
            "bufferView" : 2,
            "componentType" : 5126,
            "count" : 868,
            "type" : "VEC2"
        },
        {
            "bufferView" : 3,
            "componentType" : 5123,
            "count" : 1338,
            "type" : "SCALAR"
        },
        {
            "bufferView" : 4,
            "componentType" : 5126,
            "count" : 120,
            "max" : [
                2.8284265995025635,
                2.000000476837158,
                0.1500018835067749
            ],
            "min" : [
                -2.828423023223877,
                0.999999463558197,
                -1.6115295693452936e-06
            ],
            "type" : "VEC3"
        },
        {
            "bufferView" : 5,
            "componentType" : 5126,
            "count" : 120,
            "type" : "VEC3"
        },
        {
            "bufferView" : 6,
            "componentType" : 5126,
            "count" : 120,
            "type" : "VEC2"
        },
        {
            "bufferView" : 7,
            "componentType" : 5123,
            "count" : 192,
            "type" : "SCALAR"
        }
    ],
    "bufferViews" : [
        {
            "buffer" : 0,
            "byteLength" : 10416,
            "byteOffset" : 0
        },
        {
            "buffer" : 0,
            "byteLength" : 10416,
            "byteOffset" : 10416
        },
        {
            "buffer" : 0,
            "byteLength" : 6944,
            "byteOffset" : 20832
        },
        {
            "buffer" : 0,
            "byteLength" : 2676,
            "byteOffset" : 27776
        },
        {
            "buffer" : 0,
            "byteLength" : 1440,
            "byteOffset" : 30452
        },
        {
            "buffer" : 0,
            "byteLength" : 1440,
            "byteOffset" : 31892
        },
        {
            "buffer" : 0,
            "byteLength" : 960,
            "byteOffset" : 33332
        },
        {
            "buffer" : 0,
            "byteLength" : 384,
            "byteOffset" : 34292
        }
    ],
    "buffers" : [
        {
            "byteLength" : 34676,
            "uri" : "data:application/octet-stream;base64,"
        }
    ]
}
