{
    "asset" : {
        "generator" : "Khronos glTF Blender I/O v1.6.16",
        "version" : "2.0"
    },
    "extensionsUsed" : [
        "KHR_materials_clearcoat",
        "KHR_materials_transmission"
    ],
    "scene" : 0,
    "scenes" : [
        {
            "name" : "Scene",
            "nodes" : [
                0
            ]
        }
    ],
    "nodes" : [
        {
            "mesh" : 0,
            "name" : "InteriorWall_Window_Str"
        }
    ],
    "materials" : [
        {
            "doubleSided" : true,
            "name" : "Material.003",
            "pbrMetallicRoughness" : {
                "baseColorFactor" : [
                    0.800000011920929,
                    0.800000011920929,
                    0.800000011920929,
                    1
                ],
                "metallicFactor" : 0,
                "roughnessFactor" : 0.4000000059604645
            }
        },
        {
            "doubleSided" : true,
            "extensions" : {
                "KHR_materials_clearcoat" : {
                    "clearcoatFactor" : 0.07482992857694626,
                    "clearcoatRoughnessFactor" : 0.16605442762374878
                }
            },
            "name" : "Wall.001",
            "pbrMetallicRoughness" : {
                "baseColorFactor" : [
                    0.8829235434532166,
                    0.8434882164001465,
                    0.6084717512130737,
                    1
                ],
                "metallicFactor" : 0,
                "roughnessFactor" : 0.7108843326568604
            }
        },
        {
            "doubleSided" : true,
            "extensions" : {
                "KHR_materials_clearcoat" : {
                    "clearcoatFactor" : 0.07482993602752686,
                    "clearcoatRoughnessFactor" : 0.16605442762374878
                }
            },
            "name" : "WallColor.001",
            "pbrMetallicRoughness" : {
                "baseColorFactor" : [
                    0.058788347989320755,
                    0.08001182228326797,
                    0.024068035185337067,
                    1
                ],
                "metallicFactor" : 0,
                "roughnessFactor" : 0.7108843326568604
            }
        },
        {
            "doubleSided" : true,
            "extensions" : {
                "KHR_materials_clearcoat" : {
                    "clearcoatFactor" : 0.5714285969734192,
                    "clearcoatRoughnessFactor" : 0.053809523582458496
                },
                "KHR_materials_transmission" : {
                    "transmissionFactor" : 0.5884353518486023
                }
            },
            "name" : "WhitePlastic.001",
            "pbrMetallicRoughness" : {
                "baseColorFactor" : [
                    0.6266639828681946,
                    0.602956235408783,
                    0.4898477792739868,
                    1
                ],
                "metallicFactor" : 0,
                "roughnessFactor" : 0.5
            }
        },
        {
            "doubleSided" : true,
            "extensions" : {
                "KHR_materials_clearcoat" : {
                    "clearcoatFactor" : 1,
                    "clearcoatRoughnessFactor" : 0.029999999329447746
                },
                "KHR_materials_transmission" : {
                    "transmissionFactor" : 0.25
                }
            },
            "name" : "Glass.001",
            "pbrMetallicRoughness" : {
                "baseColorFactor" : [
                    0.43695417046546936,
                    0.6881104707717896,
                    0.8000000715255737,
                    1
                ],
                "metallicFactor" : 0,
                "roughnessFactor" : 0.125
            }
        }
    ],
    "meshes" : [
        {
            "name" : "Cube.103",
            "primitives" : [
                {
                    "attributes" : {
                        "POSITION" : 0,
                        "NORMAL" : 1,
                        "TEXCOORD_0" : 2
                    },
                    "indices" : 3,
                    "material" : 0
                },
                {
                    "attributes" : {
                        "POSITION" : 4,
                        "NORMAL" : 5,
                        "TEXCOORD_0" : 6
                    },
                    "indices" : 7,
                    "material" : 1
                },
                {
                    "attributes" : {
                        "POSITION" : 8,
                        "NORMAL" : 9,
                        "TEXCOORD_0" : 10
                    },
                    "indices" : 11,
                    "material" : 2
                },
                {
                    "attributes" : {
                        "POSITION" : 12,
                        "NORMAL" : 13,
                        "TEXCOORD_0" : 14
                    },
                    "indices" : 15,
                    "material" : 3
                },
                {
                    "attributes" : {
                        "POSITION" : 16,
                        "NORMAL" : 17,
                        "TEXCOORD_0" : 18
                    },
                    "indices" : 19,
                    "material" : 4
                }
            ]
        }
    ],
    "accessors" : [
        {
            "bufferView" : 0,
            "componentType" : 5126,
            "count" : 634,
            "max" : [
                0.8729999661445618,
                2.6797499656677246,
                0.02002495899796486
            ],
            "min" : [
                -0.8730000853538513,
                2.110976457595825,
                0.009999958798289299
            ],
            "type" : "VEC3"
        },
        {
            "bufferView" : 1,
            "componentType" : 5126,
            "count" : 634,
            "type" : "VEC3"
        },
        {
            "bufferView" : 2,
            "componentType" : 5126,
            "count" : 634,
            "type" : "VEC2"
        },
        {
            "bufferView" : 3,
            "componentType" : 5123,
            "count" : 858,
            "type" : "SCALAR"
        },
        {
            "bufferView" : 4,
            "componentType" : 5126,
            "count" : 484,
            "max" : [
                1,
                3,
                0.1499999612569809
            ],
            "min" : [
                -1,
                0,
                -1.4901161193847656e-08
            ],
            "type" : "VEC3"
        },
        {
            "bufferView" : 5,
            "componentType" : 5126,
            "count" : 484,
            "type" : "VEC3"
        },
        {
            "bufferView" : 6,
            "componentType" : 5126,
            "count" : 484,
            "type" : "VEC2"
        },
        {
            "bufferView" : 7,
            "componentType" : 5123,
            "count" : 1284,
            "type" : "SCALAR"
        },
        {
            "bufferView" : 8,
            "componentType" : 5126,
            "count" : 92,
            "max" : [
                1,
                2,
                0.1499999612569809
            ],
            "min" : [
                -1,
                1,
                -1.4901161193847656e-08
            ],
            "type" : "VEC3"
        },
        {
            "bufferView" : 9,
            "componentType" : 5126,
            "count" : 92,
            "type" : "VEC3"
        },
        {
            "bufferView" : 10,
            "componentType" : 5126,
            "count" : 92,
            "type" : "VEC2"
        },
        {
            "bufferView" : 11,
            "componentType" : 5123,
            "count" : 192,
            "type" : "SCALAR"
        },
        {
            "bufferView" : 12,
            "componentType" : 5126,
            "count" : 1607,
            "max" : [
                0.8999999761581421,
                2.6999998092651367,
                0.1499999612569809
            ],
            "min" : [
                -0.8999999761581421,
                1.2000000476837158,
                0.009999958798289299
            ],
            "type" : "VEC3"
        },
        {
            "bufferView" : 13,
            "componentType" : 5126,
            "count" : 1607,
            "type" : "VEC3"
        },
        {
            "bufferView" : 14,
            "componentType" : 5126,
            "count" : 1607,
            "type" : "VEC2"
        },
        {
            "bufferView" : 15,
            "componentType" : 5123,
            "count" : 2370,
            "type" : "SCALAR"
        },
        {
            "bufferView" : 16,
            "componentType" : 5126,
            "count" : 152,
            "max" : [
                0.8730000853538513,
                2.6797499656677246,
                0.010024959221482277
            ],
            "min" : [
                -0.8730000853538513,
                1.221750020980835,
                0.009999958798289299
            ],
            "type" : "VEC3"
        },
        {
            "bufferView" : 17,
            "componentType" : 5126,
            "count" : 152,
            "type" : "VEC3"
        },
        {
            "bufferView" : 18,
            "componentType" : 5126,
            "count" : 152,
            "type" : "VEC2"
        },
        {
            "bufferView" : 19,
            "componentType" : 5123,
            "count" : 228,
            "type" : "SCALAR"
        }
    ],
    "bufferViews" : [
        {
            "buffer" : 0,
            "byteLength" : 7608,
            "byteOffset" : 0
        },
        {
            "buffer" : 0,
            "byteLength" : 7608,
            "byteOffset" : 7608
        },
        {
            "buffer" : 0,
            "byteLength" : 5072,
            "byteOffset" : 15216
        },
        {
            "buffer" : 0,
            "byteLength" : 1716,
            "byteOffset" : 20288
        },
        {
            "buffer" : 0,
            "byteLength" : 5808,
            "byteOffset" : 22004
        },
        {
            "buffer" : 0,
            "byteLength" : 5808,
            "byteOffset" : 27812
        },
        {
            "buffer" : 0,
            "byteLength" : 3872,
            "byteOffset" : 33620
        },
        {
            "buffer" : 0,
            "byteLength" : 2568,
            "byteOffset" : 37492
        },
        {
            "buffer" : 0,
            "byteLength" : 1104,
            "byteOffset" : 40060
        },
        {
            "buffer" : 0,
            "byteLength" : 1104,
            "byteOffset" : 41164
        },
        {
            "buffer" : 0,
            "byteLength" : 736,
            "byteOffset" : 42268
        },
        {
            "buffer" : 0,
            "byteLength" : 384,
            "byteOffset" : 43004
        },
        {
            "buffer" : 0,
            "byteLength" : 19284,
            "byteOffset" : 43388
        },
        {
            "buffer" : 0,
            "byteLength" : 19284,
            "byteOffset" : 62672
        },
        {
            "buffer" : 0,
            "byteLength" : 12856,
            "byteOffset" : 81956
        },
        {
            "buffer" : 0,
            "byteLength" : 4740,
            "byteOffset" : 94812
        },
        {
            "buffer" : 0,
            "byteLength" : 1824,
            "byteOffset" : 99552
        },
        {
            "buffer" : 0,
            "byteLength" : 1824,
            "byteOffset" : 101376
        },
        {
            "buffer" : 0,
            "byteLength" : 1216,
            "byteOffset" : 103200
        },
        {
            "buffer" : 0,
            "byteLength" : 456,
            "byteOffset" : 104416
        }
    ],
    "buffers" : [
        {
            "byteLength" : 104872,
            "uri" : "data:application/octet-stream;base64,"
        }
    ]
}
