{
    "asset" : {
        "generator" : "Khronos glTF Blender I/O v1.6.16",
        "version" : "2.0"
    },
    "scene" : 0,
    "scenes" : [
        {
            "name" : "Scene",
            "nodes" : [
                0
            ]
        }
    ],
    "nodes" : [
        {
            "mesh" : 0,
            "name" : "PaperCup_Empty"
        }
    ],
    "materials" : [
        {
            "doubleSided" : true,
            "name" : "Material",
            "pbrMetallicRoughness" : {
                "baseColorFactor" : [
                    0.800000011920929,
                    0.800000011920929,
                    0.800000011920929,
                    1
                ],
                "metallicFactor" : 0,
                "roughnessFactor" : 0.4000000059604645
            }
        }
    ],
    "meshes" : [
        {
            "name" : "Cube",
            "primitives" : [
                {
                    "attributes" : {
                        "POSITION" : 0,
                        "NORMAL" : 1,
                        "TEXCOORD_0" : 2
                    },
                    "indices" : 3,
                    "material" : 0
                }
            ]
        }
    ],
    "accessors" : [
        {
            "bufferView" : 0,
            "componentType" : 5126,
            "count" : 1268,
            "max" : [
                0.03998851031064987,
                0.15000003576278687,
                0.03998851031064987
            ],
            "min" : [
                -0.03998850658535957,
                -2.9802322387695312e-08,
                -0.03998851031064987
            ],
            "type" : "VEC3"
        },
        {
            "bufferView" : 1,
            "componentType" : 5126,
            "count" : 1268,
            "type" : "VEC3"
        },
        {
            "bufferView" : 2,
            "componentType" : 5126,
            "count" : 1268,
            "type" : "VEC2"
        },
        {
            "bufferView" : 3,
            "componentType" : 5123,
            "count" : 1824,
            "type" : "SCALAR"
        }
    ],
    "bufferViews" : [
        {
            "buffer" : 0,
            "byteLength" : 15216,
            "byteOffset" : 0
        },
        {
            "buffer" : 0,
            "byteLength" : 15216,
            "byteOffset" : 15216
        },
        {
            "buffer" : 0,
            "byteLength" : 10144,
            "byteOffset" : 30432
        },
        {
            "buffer" : 0,
            "byteLength" : 3648,
            "byteOffset" : 40576
        }
    ],
    "buffers" : [
        {
            "byteLength" : 44224,
            "uri" : "data:application/octet-stream;base64,"
        }
    ]
}
