{
    "asset" : {
        "generator" : "Khronos glTF Blender I/O v1.6.16",
        "version" : "2.0"
    },
    "extensionsUsed" : [
        "KHR_materials_clearcoat",
        "KHR_materials_transmission"
    ],
    "scene" : 0,
    "scenes" : [
        {
            "name" : "Scene",
            "nodes" : [
                0
            ]
        }
    ],
    "nodes" : [
        {
            "mesh" : 0,
            "name" : "PaperCup_Ready"
        }
    ],
    "materials" : [
        {
            "doubleSided" : true,
            "name" : "Material",
            "pbrMetallicRoughness" : {
                "baseColorFactor" : [
                    0.800000011920929,
                    0.800000011920929,
                    0.800000011920929,
                    1
                ],
                "metallicFactor" : 0,
                "roughnessFactor" : 0.4000000059604645
            }
        },
        {
            "doubleSided" : true,
            "extensions" : {
                "KHR_materials_clearcoat" : {
                    "clearcoatFactor" : 0.3741496801376343,
                    "clearcoatRoughnessFactor" : 0.13544216752052307
                }
            },
            "name" : "Wood",
            "pbrMetallicRoughness" : {
                "baseColorFactor" : [
                    0.157434344291687,
                    0.09413126111030579,
                    0.032351866364479065,
                    1
                ],
                "metallicFactor" : 0,
                "roughnessFactor" : 0.7687075138092041
            }
        },
        {
            "doubleSided" : true,
            "extensions" : {
                "KHR_materials_clearcoat" : {
                    "clearcoatFactor" : 0.5714285969734192,
                    "clearcoatRoughnessFactor" : 0.053809523582458496
                },
                "KHR_materials_transmission" : {
                    "transmissionFactor" : 0.5884353518486023
                }
            },
            "name" : "BlackPlastic",
            "pbrMetallicRoughness" : {
                "baseColorFactor" : [
                    0.025393981486558914,
                    0.025393981486558914,
                    0.025393981486558914,
                    1
                ],
                "metallicFactor" : 0,
                "roughnessFactor" : 0.5
            }
        }
    ],
    "meshes" : [
        {
            "name" : "Cube.001",
            "primitives" : [
                {
                    "attributes" : {
                        "POSITION" : 0,
                        "NORMAL" : 1,
                        "TEXCOORD_0" : 2
                    },
                    "indices" : 3,
                    "material" : 0
                },
                {
                    "attributes" : {
                        "POSITION" : 4,
                        "NORMAL" : 5,
                        "TEXCOORD_0" : 6
                    },
                    "indices" : 7,
                    "material" : 1
                },
                {
                    "attributes" : {
                        "POSITION" : 8,
                        "NORMAL" : 9,
                        "TEXCOORD_0" : 10
                    },
                    "indices" : 11,
                    "material" : 2
                }
            ]
        }
    ],
    "accessors" : [
        {
            "bufferView" : 0,
            "componentType" : 5126,
            "count" : 1220,
            "max" : [
                0.040025025606155396,
                0.15000003576278687,
                0.039990171790122986
            ],
            "min" : [
                -0.0400250218808651,
                -2.9802322387695312e-08,
                -0.040025025606155396
            ],
            "type" : "VEC3"
        },
        {
            "bufferView" : 1,
            "componentType" : 5126,
            "count" : 1220,
            "type" : "VEC3"
        },
        {
            "bufferView" : 2,
            "componentType" : 5126,
            "count" : 1220,
            "type" : "VEC2"
        },
        {
            "bufferView" : 3,
            "componentType" : 5123,
            "count" : 1776,
            "type" : "SCALAR"
        },
        {
            "bufferView" : 4,
            "componentType" : 5126,
            "count" : 304,
            "max" : [
                0.03765296936035156,
                0.09999824315309525,
                0.037652965635061264
            ],
            "min" : [
                -0.037652961909770966,
                0.04993527755141258,
                -0.037652965635061264
            ],
            "type" : "VEC3"
        },
        {
            "bufferView" : 5,
            "componentType" : 5126,
            "count" : 304,
            "type" : "VEC3"
        },
        {
            "bufferView" : 6,
            "componentType" : 5126,
            "count" : 304,
            "type" : "VEC2"
        },
        {
            "bufferView" : 7,
            "componentType" : 5123,
            "count" : 432,
            "type" : "SCALAR"
        },
        {
            "bufferView" : 8,
            "componentType" : 5126,
            "count" : 1390,
            "max" : [
                0.04120216891169548,
                0.1570250391960144,
                0.041221968829631805
            ],
            "min" : [
                -0.04120216518640518,
                0.14697502553462982,
                -0.04120216891169548
            ],
            "type" : "VEC3"
        },
        {
            "bufferView" : 9,
            "componentType" : 5126,
            "count" : 1390,
            "type" : "VEC3"
        },
        {
            "bufferView" : 10,
            "componentType" : 5126,
            "count" : 1390,
            "type" : "VEC2"
        },
        {
            "bufferView" : 11,
            "componentType" : 5123,
            "count" : 2028,
            "type" : "SCALAR"
        }
    ],
    "bufferViews" : [
        {
            "buffer" : 0,
            "byteLength" : 14640,
            "byteOffset" : 0
        },
        {
            "buffer" : 0,
            "byteLength" : 14640,
            "byteOffset" : 14640
        },
        {
            "buffer" : 0,
            "byteLength" : 9760,
            "byteOffset" : 29280
        },
        {
            "buffer" : 0,
            "byteLength" : 3552,
            "byteOffset" : 39040
        },
        {
            "buffer" : 0,
            "byteLength" : 3648,
            "byteOffset" : 42592
        },
        {
            "buffer" : 0,
            "byteLength" : 3648,
            "byteOffset" : 46240
        },
        {
            "buffer" : 0,
            "byteLength" : 2432,
            "byteOffset" : 49888
        },
        {
            "buffer" : 0,
            "byteLength" : 864,
            "byteOffset" : 52320
        },
        {
            "buffer" : 0,
            "byteLength" : 16680,
            "byteOffset" : 53184
        },
        {
            "buffer" : 0,
            "byteLength" : 16680,
            "byteOffset" : 69864
        },
        {
            "buffer" : 0,
            "byteLength" : 11120,
            "byteOffset" : 86544
        },
        {
            "buffer" : 0,
            "byteLength" : 4056,
            "byteOffset" : 97664
        }
    ],
    "buffers" : [
        {
            "byteLength" : 101720,
            "uri" : "data:application/octet-stream;base64,"
        }
    ]
}
