{
    "asset" : {
        "generator" : "Khronos glTF Blender I/O v1.6.16",
        "version" : "2.0"
    },
    "extensionsUsed" : [
        "KHR_materials_clearcoat",
        "KHR_materials_transmission"
    ],
    "scene" : 0,
    "scenes" : [
        {
            "name" : "Scene",
            "nodes" : [
                1
            ]
        }
    ],
    "nodes" : [
        {
            "mesh" : 0,
            "name" : "Register_Drawer"
        },
        {
            "children" : [
                0
            ],
            "mesh" : 1,
            "name" : "Register_Body"
        }
    ],
    "materials" : [
        {
            "doubleSided" : true,
            "extensions" : {
                "KHR_materials_clearcoat" : {
                    "clearcoatFactor" : 0.4285714030265808,
                    "clearcoatRoughnessFactor" : 0.27551019191741943
                },
                "KHR_materials_transmission" : {
                    "transmissionFactor" : 0.051020409911870956
                }
            },
            "name" : "BlackMetal",
            "pbrMetallicRoughness" : {
                "baseColorFactor" : [
                    0.021979352459311485,
                    0.021979352459311485,
                    0.021979352459311485,
                    1
                ],
                "metallicFactor" : 0.875,
                "roughnessFactor" : 0.4659864008426666
            }
        },
        {
            "doubleSided" : true,
            "extensions" : {
                "KHR_materials_clearcoat" : {
                    "clearcoatFactor" : 0.6020408272743225,
                    "clearcoatRoughnessFactor" : 0.1796598583459854
                }
            },
            "name" : "ShinySilver",
            "pbrMetallicRoughness" : {
                "baseColorFactor" : [
                    0.4575320780277252,
                    0.4575320780277252,
                    0.4575320780277252,
                    1
                ],
                "metallicFactor" : 0.8299319744110107,
                "roughnessFactor" : 0.795918345451355
            }
        },
        {
            "doubleSided" : true,
            "name" : "Material",
            "pbrMetallicRoughness" : {
                "baseColorFactor" : [
                    0.800000011920929,
                    0.800000011920929,
                    0.800000011920929,
                    1
                ],
                "metallicFactor" : 0,
                "roughnessFactor" : 0.4000000059604645
            }
        },
        {
            "doubleSided" : true,
            "extensions" : {
                "KHR_materials_clearcoat" : {
                    "clearcoatFactor" : 0.5714285969734192,
                    "clearcoatRoughnessFactor" : 0.053809523582458496
                },
                "KHR_materials_transmission" : {
                    "transmissionFactor" : 0.5884353518486023
                }
            },
            "name" : "BlackPlastic",
            "pbrMetallicRoughness" : {
                "baseColorFactor" : [
                    0.025393981486558914,
                    0.025393981486558914,
                    0.025393981486558914,
                    1
                ],
                "metallicFactor" : 0,
                "roughnessFactor" : 0.5
            }
        },
        {
            "doubleSided" : true,
            "emissiveFactor" : [
                0.010836867291363905,
                0,
                0.6208501642487079
            ],
            "name" : "LCDScreen",
            "pbrMetallicRoughness" : {
                "baseColorFactor" : [
                    0.0764150395989418,
                    0.10921323299407959,
                    0.2956925630569458,
                    1
                ],
                "metallicFactor" : 0,
                "roughnessFactor" : 0.5
            }
        }
    ],
    "meshes" : [
        {
            "name" : "Cube.001",
            "primitives" : [
                {
                    "attributes" : {
                        "POSITION" : 0,
                        "NORMAL" : 1,
                        "TEXCOORD_0" : 2
                    },
                    "indices" : 3,
                    "material" : 0
                },
                {
                    "attributes" : {
                        "POSITION" : 4,
                        "NORMAL" : 5,
                        "TEXCOORD_0" : 6
                    },
                    "indices" : 7,
                    "material" : 1
                }
            ]
        },
        {
            "name" : "Cube",
            "primitives" : [
                {
                    "attributes" : {
                        "POSITION" : 8,
                        "NORMAL" : 9,
                        "TEXCOORD_0" : 10
                    },
                    "indices" : 11,
                    "material" : 2
                },
                {
                    "attributes" : {
                        "POSITION" : 12,
                        "NORMAL" : 13,
                        "TEXCOORD_0" : 14
                    },
                    "indices" : 15,
                    "material" : 3
                },
                {
                    "attributes" : {
                        "POSITION" : 16,
                        "NORMAL" : 17,
                        "TEXCOORD_0" : 18
                    },
                    "indices" : 19,
                    "material" : 4
                },
                {
                    "attributes" : {
                        "POSITION" : 20,
                        "NORMAL" : 21,
                        "TEXCOORD_0" : 22
                    },
                    "indices" : 23,
                    "material" : 0
                }
            ]
        }
    ],
    "accessors" : [
        {
            "bufferView" : 0,
            "componentType" : 5126,
            "count" : 1801,
            "max" : [
                0.2474999874830246,
                0.1069999635219574,
                0.1900000423192978
            ],
            "min" : [
                -0.23249998688697815,
                1.862645149230957e-09,
                -0.15649999678134918
            ],
            "type" : "VEC3"
        },
        {
            "bufferView" : 1,
            "componentType" : 5126,
            "count" : 1801,
            "type" : "VEC3"
        },
        {
            "bufferView" : 2,
            "componentType" : 5126,
            "count" : 1801,
            "type" : "VEC2"
        },
        {
            "bufferView" : 3,
            "componentType" : 5123,
            "count" : 3552,
            "type" : "SCALAR"
        },
        {
            "bufferView" : 4,
            "componentType" : 5126,
            "count" : 358,
            "max" : [
                0.009571918286383152,
                0.08791197836399078,
                0.19300004839897156
            ],
            "min" : [
                -0.009916359558701515,
                0.06784611195325851,
                0.1900000423192978
            ],
            "type" : "VEC3"
        },
        {
            "bufferView" : 5,
            "componentType" : 5126,
            "count" : 358,
            "type" : "VEC3"
        },
        {
            "bufferView" : 6,
            "componentType" : 5126,
            "count" : 358,
            "type" : "VEC2"
        },
        {
            "bufferView" : 7,
            "componentType" : 5123,
            "count" : 534,
            "type" : "SCALAR"
        },
        {
            "bufferView" : 8,
            "componentType" : 5126,
            "count" : 20,
            "max" : [
                0.22824999690055847,
                0.19616593420505524,
                0.06312531977891922
            ],
            "min" : [
                -0.19733549654483795,
                0.10319997370243073,
                -0.14499899744987488
            ],
            "type" : "VEC3"
        },
        {
            "bufferView" : 9,
            "componentType" : 5126,
            "count" : 20,
            "type" : "VEC3"
        },
        {
            "bufferView" : 10,
            "componentType" : 5126,
            "count" : 20,
            "type" : "VEC2"
        },
        {
            "bufferView" : 11,
            "componentType" : 5123,
            "count" : 30,
            "type" : "SCALAR"
        },
        {
            "bufferView" : 12,
            "componentType" : 5126,
            "count" : 4495,
            "max" : [
                0.2522500157356262,
                0.3766784965991974,
                0.06524208933115005
            ],
            "min" : [
                -0.1981230527162552,
                0.11975006759166718,
                -0.13326847553253174
            ],
            "type" : "VEC3"
        },
        {
            "bufferView" : 13,
            "componentType" : 5126,
            "count" : 4495,
            "type" : "VEC3"
        },
        {
            "bufferView" : 14,
            "componentType" : 5126,
            "count" : 4495,
            "type" : "VEC2"
        },
        {
            "bufferView" : 15,
            "componentType" : 5123,
            "count" : 6738,
            "type" : "SCALAR"
        },
        {
            "bufferView" : 16,
            "componentType" : 5126,
            "count" : 94,
            "max" : [
                0.24199999868869781,
                0.3664267063140869,
                0.05348039045929909
            ],
            "min" : [
                -0.05225079879164696,
                0.1846695840358734,
                -0.05145706236362457
            ],
            "type" : "VEC3"
        },
        {
            "bufferView" : 17,
            "componentType" : 5126,
            "count" : 94,
            "type" : "VEC3"
        },
        {
            "bufferView" : 18,
            "componentType" : 5126,
            "count" : 94,
            "type" : "VEC2"
        },
        {
            "bufferView" : 19,
            "componentType" : 5123,
            "count" : 150,
            "type" : "SCALAR"
        },
        {
            "bufferView" : 20,
            "componentType" : 5126,
            "count" : 2747,
            "max" : [
                0.2475000023841858,
                0.12000004947185516,
                0.18988002836704254
            ],
            "min" : [
                -0.23249998688697815,
                -7.450580596923828e-09,
                -0.17000001668930054
            ],
            "type" : "VEC3"
        },
        {
            "bufferView" : 21,
            "componentType" : 5126,
            "count" : 2747,
            "type" : "VEC3"
        },
        {
            "bufferView" : 22,
            "componentType" : 5126,
            "count" : 2747,
            "type" : "VEC2"
        },
        {
            "bufferView" : 23,
            "componentType" : 5123,
            "count" : 5205,
            "type" : "SCALAR"
        }
    ],
    "bufferViews" : [
        {
            "buffer" : 0,
            "byteLength" : 21612,
            "byteOffset" : 0
        },
        {
            "buffer" : 0,
            "byteLength" : 21612,
            "byteOffset" : 21612
        },
        {
            "buffer" : 0,
            "byteLength" : 14408,
            "byteOffset" : 43224
        },
        {
            "buffer" : 0,
            "byteLength" : 7104,
            "byteOffset" : 57632
        },
        {
            "buffer" : 0,
            "byteLength" : 4296,
            "byteOffset" : 64736
        },
        {
            "buffer" : 0,
            "byteLength" : 4296,
            "byteOffset" : 69032
        },
        {
            "buffer" : 0,
            "byteLength" : 2864,
            "byteOffset" : 73328
        },
        {
            "buffer" : 0,
            "byteLength" : 1068,
            "byteOffset" : 76192
        },
        {
            "buffer" : 0,
            "byteLength" : 240,
            "byteOffset" : 77260
        },
        {
            "buffer" : 0,
            "byteLength" : 240,
            "byteOffset" : 77500
        },
        {
            "buffer" : 0,
            "byteLength" : 160,
            "byteOffset" : 77740
        },
        {
            "buffer" : 0,
            "byteLength" : 60,
            "byteOffset" : 77900
        },
        {
            "buffer" : 0,
            "byteLength" : 53940,
            "byteOffset" : 77960
        },
        {
            "buffer" : 0,
            "byteLength" : 53940,
            "byteOffset" : 131900
        },
        {
            "buffer" : 0,
            "byteLength" : 35960,
            "byteOffset" : 185840
        },
        {
            "buffer" : 0,
            "byteLength" : 13476,
            "byteOffset" : 221800
        },
        {
            "buffer" : 0,
            "byteLength" : 1128,
            "byteOffset" : 235276
        },
        {
            "buffer" : 0,
            "byteLength" : 1128,
            "byteOffset" : 236404
        },
        {
            "buffer" : 0,
            "byteLength" : 752,
            "byteOffset" : 237532
        },
        {
            "buffer" : 0,
            "byteLength" : 300,
            "byteOffset" : 238284
        },
        {
            "buffer" : 0,
            "byteLength" : 32964,
            "byteOffset" : 238584
        },
        {
            "buffer" : 0,
            "byteLength" : 32964,
            "byteOffset" : 271548
        },
        {
            "buffer" : 0,
            "byteLength" : 21976,
            "byteOffset" : 304512
        },
        {
            "buffer" : 0,
            "byteLength" : 10410,
            "byteOffset" : 326488
        }
    ],
    "buffers" : [
        {
            "byteLength" : 336900,
            "uri" : "data:application/octet-stream;base64,"
        }
    ]
}
