{
    "asset" : {
        "generator" : "Khronos glTF Blender I/O v1.6.16",
        "version" : "2.0"
    },
    "extensionsUsed" : [
        "KHR_materials_clearcoat",
        "KHR_materials_transmission"
    ],
    "scene" : 0,
    "scenes" : [
        {
            "name" : "Scene",
            "nodes" : [
                0
            ]
        }
    ],
    "nodes" : [
        {
            "mesh" : 0,
            "name" : "EspressoMachine"
        }
    ],
    "materials" : [
        {
            "doubleSided" : true,
            "name" : "Material",
            "pbrMetallicRoughness" : {
                "baseColorFactor" : [
                    0.800000011920929,
                    0.800000011920929,
                    0.800000011920929,
                    1
                ],
                "metallicFactor" : 0,
                "roughnessFactor" : 0.4000000059604645
            }
        },
        {
            "doubleSided" : true,
            "name" : "ClearPLastic",
            "pbrMetallicRoughness" : {
                "baseColorFactor" : [
                    0.6008343696594238,
                    0.9428845643997192,
                    1,
                    1
                ],
                "metallicFactor" : 0,
                "roughnessFactor" : 0.5
            }
        },
        {
            "doubleSided" : true,
            "extensions" : {
                "KHR_materials_clearcoat" : {
                    "clearcoatFactor" : 0.6020408272743225,
                    "clearcoatRoughnessFactor" : 0.1796598583459854
                }
            },
            "name" : "ShinySilver",
            "pbrMetallicRoughness" : {
                "baseColorFactor" : [
                    0.4575320780277252,
                    0.4575320780277252,
                    0.4575320780277252,
                    1
                ],
                "metallicFactor" : 0.8299319744110107,
                "roughnessFactor" : 0.795918345451355
            }
        },
        {
            "doubleSided" : true,
            "extensions" : {
                "KHR_materials_clearcoat" : {
                    "clearcoatFactor" : 0.5714285969734192,
                    "clearcoatRoughnessFactor" : 0.053809523582458496
                },
                "KHR_materials_transmission" : {
                    "transmissionFactor" : 0.5884353518486023
                }
            },
            "name" : "BlackPlastic",
            "pbrMetallicRoughness" : {
                "baseColorFactor" : [
                    0.025393981486558914,
                    0.025393981486558914,
                    0.025393981486558914,
                    1
                ],
                "metallicFactor" : 0,
                "roughnessFactor" : 0.5
            }
        },
        {
            "doubleSided" : true,
            "extensions" : {
                "KHR_materials_clearcoat" : {
                    "clearcoatFactor" : 0.6496598720550537,
                    "clearcoatRoughnessFactor" : 0.1320408135652542
                },
                "KHR_materials_transmission" : {
                    "transmissionFactor" : 0.36054420471191406
                }
            },
            "name" : "MutedSilver",
            "pbrMetallicRoughness" : {
                "baseColorFactor" : [
                    0.5600000023841858,
                    0.5600000023841858,
                    0.5600000023841858,
                    1
                ],
                "roughnessFactor" : 0.7448979616165161
            }
        },
        {
            "doubleSided" : true,
            "name" : "ColorBand",
            "pbrMetallicRoughness" : {
                "baseColorFactor" : [
                    0.8000000715255737,
                    0.3072335124015808,
                    0.28149348497390747,
                    1
                ],
                "metallicFactor" : 0,
                "roughnessFactor" : 0.5
            }
        }
    ],
    "meshes" : [
        {
            "name" : "Cube",
            "primitives" : [
                {
                    "attributes" : {
                        "POSITION" : 0,
                        "NORMAL" : 1,
                        "TEXCOORD_0" : 2
                    },
                    "indices" : 3,
                    "material" : 0
                },
                {
                    "attributes" : {
                        "POSITION" : 4,
                        "NORMAL" : 5,
                        "TEXCOORD_0" : 6
                    },
                    "indices" : 7,
                    "material" : 1
                },
                {
                    "attributes" : {
                        "POSITION" : 8,
                        "NORMAL" : 9,
                        "TEXCOORD_0" : 10
                    },
                    "indices" : 11,
                    "material" : 2
                },
                {
                    "attributes" : {
                        "POSITION" : 12,
                        "NORMAL" : 13,
                        "TEXCOORD_0" : 14
                    },
                    "indices" : 15,
                    "material" : 3
                },
                {
                    "attributes" : {
                        "POSITION" : 16,
                        "NORMAL" : 17,
                        "TEXCOORD_0" : 18
                    },
                    "indices" : 19,
                    "material" : 4
                },
                {
                    "attributes" : {
                        "POSITION" : 20,
                        "NORMAL" : 21,
                        "TEXCOORD_0" : 22
                    },
                    "indices" : 23,
                    "material" : 5
                }
            ]
        }
    ],
    "accessors" : [
        {
            "bufferView" : 0,
            "componentType" : 5126,
            "count" : 133,
            "max" : [
                0.5856835246086121,
                1.5509185791015625,
                0.5000492930412292
            ],
            "min" : [
                -0.5845616459846497,
                1.0506685972213745,
                -0.28018462657928467
            ],
            "type" : "VEC3"
        },
        {
            "bufferView" : 1,
            "componentType" : 5126,
            "count" : 133,
            "type" : "VEC3"
        },
        {
            "bufferView" : 2,
            "componentType" : 5126,
            "count" : 133,
            "type" : "VEC2"
        },
        {
            "bufferView" : 3,
            "componentType" : 5123,
            "count" : 234,
            "type" : "SCALAR"
        },
        {
            "bufferView" : 4,
            "componentType" : 5126,
            "count" : 656,
            "max" : [
                0.6258953213691711,
                1.5509185791015625,
                0.7259138822555542
            ],
            "min" : [
                -0.624635636806488,
                0.575918436050415,
                0.49979928135871887
            ],
            "type" : "VEC3"
        },
        {
            "bufferView" : 5,
            "componentType" : 5126,
            "count" : 656,
            "type" : "VEC3"
        },
        {
            "bufferView" : 6,
            "componentType" : 5126,
            "count" : 656,
            "type" : "VEC2"
        },
        {
            "bufferView" : 7,
            "componentType" : 5123,
            "count" : 1224,
            "type" : "SCALAR"
        },
        {
            "bufferView" : 8,
            "componentType" : 5126,
            "count" : 1898,
            "max" : [
                0.6506299376487732,
                1.263690710067749,
                0.7506847977638245
            ],
            "min" : [
                -0.649370014667511,
                0.07591845095157623,
                -0.9340954422950745
            ],
            "type" : "VEC3"
        },
        {
            "bufferView" : 9,
            "componentType" : 5126,
            "count" : 1898,
            "type" : "VEC3"
        },
        {
            "bufferView" : 10,
            "componentType" : 5126,
            "count" : 1898,
            "type" : "VEC2"
        },
        {
            "bufferView" : 11,
            "componentType" : 5123,
            "count" : 2850,
            "type" : "SCALAR"
        },
        {
            "bufferView" : 12,
            "componentType" : 5126,
            "count" : 3728,
            "max" : [
                0.6506299376487732,
                1.5509185791015625,
                0.7506847977638245
            ],
            "min" : [
                -0.649370014667511,
                0.0009184069931507111,
                -0.9339407682418823
            ],
            "type" : "VEC3"
        },
        {
            "bufferView" : 13,
            "componentType" : 5126,
            "count" : 3728,
            "type" : "VEC3"
        },
        {
            "bufferView" : 14,
            "componentType" : 5126,
            "count" : 3728,
            "type" : "VEC2"
        },
        {
            "bufferView" : 15,
            "componentType" : 5123,
            "count" : 6126,
            "type" : "SCALAR"
        },
        {
            "bufferView" : 16,
            "componentType" : 5126,
            "count" : 416,
            "max" : [
                0.6506299376487732,
                1.501059889793396,
                0.7506847977638245
            ],
            "min" : [
                -0.649370014667511,
                0.1759185940027237,
                -0.6493151783943176
            ],
            "type" : "VEC3"
        },
        {
            "bufferView" : 17,
            "componentType" : 5126,
            "count" : 416,
            "type" : "VEC3"
        },
        {
            "bufferView" : 18,
            "componentType" : 5126,
            "count" : 416,
            "type" : "VEC2"
        },
        {
            "bufferView" : 19,
            "componentType" : 5123,
            "count" : 786,
            "type" : "SCALAR"
        },
        {
            "bufferView" : 20,
            "componentType" : 5126,
            "count" : 70,
            "max" : [
                0.6506299376487732,
                1.3009185791015625,
                0.2506847679615021
            ],
            "min" : [
                -0.649370014667511,
                1.1759185791015625,
                -0.6493151783943176
            ],
            "type" : "VEC3"
        },
        {
            "bufferView" : 21,
            "componentType" : 5126,
            "count" : 70,
            "type" : "VEC3"
        },
        {
            "bufferView" : 22,
            "componentType" : 5126,
            "count" : 70,
            "type" : "VEC2"
        },
        {
            "bufferView" : 23,
            "componentType" : 5123,
            "count" : 120,
            "type" : "SCALAR"
        }
    ],
    "bufferViews" : [
        {
            "buffer" : 0,
            "byteLength" : 1596,
            "byteOffset" : 0
        },
        {
            "buffer" : 0,
            "byteLength" : 1596,
            "byteOffset" : 1596
        },
        {
            "buffer" : 0,
            "byteLength" : 1064,
            "byteOffset" : 3192
        },
        {
            "buffer" : 0,
            "byteLength" : 468,
            "byteOffset" : 4256
        },
        {
            "buffer" : 0,
            "byteLength" : 7872,
            "byteOffset" : 4724
        },
        {
            "buffer" : 0,
            "byteLength" : 7872,
            "byteOffset" : 12596
        },
        {
            "buffer" : 0,
            "byteLength" : 5248,
            "byteOffset" : 20468
        },
        {
            "buffer" : 0,
            "byteLength" : 2448,
            "byteOffset" : 25716
        },
        {
            "buffer" : 0,
            "byteLength" : 22776,
            "byteOffset" : 28164
        },
        {
            "buffer" : 0,
            "byteLength" : 22776,
            "byteOffset" : 50940
        },
        {
            "buffer" : 0,
            "byteLength" : 15184,
            "byteOffset" : 73716
        },
        {
            "buffer" : 0,
            "byteLength" : 5700,
            "byteOffset" : 88900
        },
        {
            "buffer" : 0,
            "byteLength" : 44736,
            "byteOffset" : 94600
        },
        {
            "buffer" : 0,
            "byteLength" : 44736,
            "byteOffset" : 139336
        },
        {
            "buffer" : 0,
            "byteLength" : 29824,
            "byteOffset" : 184072
        },
        {
            "buffer" : 0,
            "byteLength" : 12252,
            "byteOffset" : 213896
        },
        {
            "buffer" : 0,
            "byteLength" : 4992,
            "byteOffset" : 226148
        },
        {
            "buffer" : 0,
            "byteLength" : 4992,
            "byteOffset" : 231140
        },
        {
            "buffer" : 0,
            "byteLength" : 3328,
            "byteOffset" : 236132
        },
        {
            "buffer" : 0,
            "byteLength" : 1572,
            "byteOffset" : 239460
        },
        {
            "buffer" : 0,
            "byteLength" : 840,
            "byteOffset" : 241032
        },
        {
            "buffer" : 0,
            "byteLength" : 840,
            "byteOffset" : 241872
        },
        {
            "buffer" : 0,
            "byteLength" : 560,
            "byteOffset" : 242712
        },
        {
            "buffer" : 0,
            "byteLength" : 240,
            "byteOffset" : 243272
        }
    ],
    "buffers" : [
        {
            "byteLength" : 243512,
            "uri" : "data:application/octet-stream;base64,"
        }
    ]
}
