{
    "asset" : {
        "generator" : "Khronos glTF Blender I/O v1.6.16",
        "version" : "2.0"
    },
    "extensionsUsed" : [
        "KHR_materials_clearcoat",
        "KHR_materials_transmission"
    ],
    "scene" : 0,
    "scenes" : [
        {
            "name" : "Scene",
            "nodes" : [
                0
            ]
        }
    ],
    "nodes" : [
        {
            "mesh" : 0,
            "name" : "Cube"
        }
    ],
    "materials" : [
        {
            "doubleSided" : true,
            "name" : "Material",
            "pbrMetallicRoughness" : {
                "baseColorFactor" : [
                    0.800000011920929,
                    0.800000011920929,
                    0.800000011920929,
                    1
                ],
                "metallicFactor" : 0,
                "roughnessFactor" : 0.4000000059604645
            }
        },
        {
            "doubleSided" : true,
            "name" : "ClearPLastic",
            "pbrMetallicRoughness" : {
                "baseColorFactor" : [
                    0.6008343696594238,
                    0.9428845643997192,
                    1,
                    1
                ],
                "metallicFactor" : 0,
                "roughnessFactor" : 0.5
            }
        },
        {
            "doubleSided" : true,
            "extensions" : {
                "KHR_materials_clearcoat" : {
                    "clearcoatFactor" : 0.6020408272743225,
                    "clearcoatRoughnessFactor" : 0.1796598583459854
                }
            },
            "name" : "ShinySilver",
            "pbrMetallicRoughness" : {
                "baseColorFactor" : [
                    0.4575320780277252,
                    0.4575320780277252,
                    0.4575320780277252,
                    1
                ],
                "metallicFactor" : 0.8299319744110107,
                "roughnessFactor" : 0.795918345451355
            }
        },
        {
            "doubleSided" : true,
            "extensions" : {
                "KHR_materials_clearcoat" : {
                    "clearcoatFactor" : 0.5714285969734192,
                    "clearcoatRoughnessFactor" : 0.053809523582458496
                },
                "KHR_materials_transmission" : {
                    "transmissionFactor" : 0.5884353518486023
                }
            },
            "name" : "BlackPlastic",
            "pbrMetallicRoughness" : {
                "baseColorFactor" : [
                    0.025393981486558914,
                    0.025393981486558914,
                    0.025393981486558914,
                    1
                ],
                "metallicFactor" : 0,
                "roughnessFactor" : 0.5
            }
        },
        {
            "doubleSided" : true,
            "extensions" : {
                "KHR_materials_clearcoat" : {
                    "clearcoatFactor" : 0.6496598720550537,
                    "clearcoatRoughnessFactor" : 0.1320408135652542
                },
                "KHR_materials_transmission" : {
                    "transmissionFactor" : 0.36054420471191406
                }
            },
            "name" : "MutedSilver",
            "pbrMetallicRoughness" : {
                "baseColorFactor" : [
                    0.5600000023841858,
                    0.5600000023841858,
                    0.5600000023841858,
                    1
                ],
                "roughnessFactor" : 0.7448979616165161
            }
        }
    ],
    "meshes" : [
        {
            "name" : "Cube",
            "primitives" : [
                {
                    "attributes" : {
                        "POSITION" : 0,
                        "NORMAL" : 1,
                        "TEXCOORD_0" : 2
                    },
                    "indices" : 3,
                    "material" : 0
                },
                {
                    "attributes" : {
                        "POSITION" : 4,
                        "NORMAL" : 5,
                        "TEXCOORD_0" : 6
                    },
                    "indices" : 7,
                    "material" : 1
                },
                {
                    "attributes" : {
                        "POSITION" : 8,
                        "NORMAL" : 9,
                        "TEXCOORD_0" : 10
                    },
                    "indices" : 11,
                    "material" : 2
                },
                {
                    "attributes" : {
                        "POSITION" : 12,
                        "NORMAL" : 13,
                        "TEXCOORD_0" : 14
                    },
                    "indices" : 15,
                    "material" : 3
                },
                {
                    "attributes" : {
                        "POSITION" : 16,
                        "NORMAL" : 17,
                        "TEXCOORD_0" : 18
                    },
                    "indices" : 19,
                    "material" : 4
                }
            ]
        }
    ],
    "accessors" : [
        {
            "bufferView" : 0,
            "componentType" : 5126,
            "count" : 172,
            "max" : [
                0.5855448246002197,
                1.5509185791015625,
                0.5000520944595337
            ],
            "min" : [
                -0.5842850208282471,
                1.0506685972213745,
                -0.28018462657928467
            ],
            "type" : "VEC3"
        },
        {
            "bufferView" : 1,
            "componentType" : 5126,
            "count" : 172,
            "type" : "VEC3"
        },
        {
            "bufferView" : 2,
            "componentType" : 5126,
            "count" : 172,
            "type" : "VEC2"
        },
        {
            "bufferView" : 3,
            "componentType" : 5123,
            "count" : 282,
            "type" : "SCALAR"
        },
        {
            "bufferView" : 4,
            "componentType" : 5126,
            "count" : 1440,
            "max" : [
                0.6258798241615295,
                1.5509185791015625,
                0.7259349226951599
            ],
            "min" : [
                -0.6246201395988464,
                0.575918436050415,
                0.4995492696762085
            ],
            "type" : "VEC3"
        },
        {
            "bufferView" : 5,
            "componentType" : 5126,
            "count" : 1440,
            "type" : "VEC3"
        },
        {
            "bufferView" : 6,
            "componentType" : 5126,
            "count" : 1440,
            "type" : "VEC2"
        },
        {
            "bufferView" : 7,
            "componentType" : 5123,
            "count" : 3015,
            "type" : "SCALAR"
        },
        {
            "bufferView" : 8,
            "componentType" : 5126,
            "count" : 3163,
            "max" : [
                0.6506299376487732,
                1.2635835409164429,
                0.7506847977638245
            ],
            "min" : [
                -0.649370014667511,
                0.07566845417022705,
                -0.934095561504364
            ],
            "type" : "VEC3"
        },
        {
            "bufferView" : 9,
            "componentType" : 5126,
            "count" : 3163,
            "type" : "VEC3"
        },
        {
            "bufferView" : 10,
            "componentType" : 5126,
            "count" : 3163,
            "type" : "VEC2"
        },
        {
            "bufferView" : 11,
            "componentType" : 5123,
            "count" : 5223,
            "type" : "SCALAR"
        },
        {
            "bufferView" : 12,
            "componentType" : 5126,
            "count" : 6933,
            "max" : [
                0.6506299376487732,
                1.5509185791015625,
                0.7506847977638245
            ],
            "min" : [
                -0.649370014667511,
                0.0009184069931507111,
                -0.9337212443351746
            ],
            "type" : "VEC3"
        },
        {
            "bufferView" : 13,
            "componentType" : 5126,
            "count" : 6933,
            "type" : "VEC3"
        },
        {
            "bufferView" : 14,
            "componentType" : 5126,
            "count" : 6933,
            "type" : "VEC2"
        },
        {
            "bufferView" : 15,
            "componentType" : 5123,
            "count" : 13542,
            "type" : "SCALAR"
        },
        {
            "bufferView" : 16,
            "componentType" : 5126,
            "count" : 1159,
            "max" : [
                0.6506299376487732,
                1.5010708570480347,
                0.7506847977638245
            ],
            "min" : [
                -0.649370014667511,
                0.1756685972213745,
                -0.6493151783943176
            ],
            "type" : "VEC3"
        },
        {
            "bufferView" : 17,
            "componentType" : 5126,
            "count" : 1159,
            "type" : "VEC3"
        },
        {
            "bufferView" : 18,
            "componentType" : 5126,
            "count" : 1159,
            "type" : "VEC2"
        },
        {
            "bufferView" : 19,
            "componentType" : 5123,
            "count" : 2646,
            "type" : "SCALAR"
        }
    ],
    "bufferViews" : [
        {
            "buffer" : 0,
            "byteLength" : 2064,
            "byteOffset" : 0
        },
        {
            "buffer" : 0,
            "byteLength" : 2064,
            "byteOffset" : 2064
        },
        {
            "buffer" : 0,
            "byteLength" : 1376,
            "byteOffset" : 4128
        },
        {
            "buffer" : 0,
            "byteLength" : 564,
            "byteOffset" : 5504
        },
        {
            "buffer" : 0,
            "byteLength" : 17280,
            "byteOffset" : 6068
        },
        {
            "buffer" : 0,
            "byteLength" : 17280,
            "byteOffset" : 23348
        },
        {
            "buffer" : 0,
            "byteLength" : 11520,
            "byteOffset" : 40628
        },
        {
            "buffer" : 0,
            "byteLength" : 6030,
            "byteOffset" : 52148
        },
        {
            "buffer" : 0,
            "byteLength" : 37956,
            "byteOffset" : 58180
        },
        {
            "buffer" : 0,
            "byteLength" : 37956,
            "byteOffset" : 96136
        },
        {
            "buffer" : 0,
            "byteLength" : 25304,
            "byteOffset" : 134092
        },
        {
            "buffer" : 0,
            "byteLength" : 10446,
            "byteOffset" : 159396
        },
        {
            "buffer" : 0,
            "byteLength" : 83196,
            "byteOffset" : 169844
        },
        {
            "buffer" : 0,
            "byteLength" : 83196,
            "byteOffset" : 253040
        },
        {
            "buffer" : 0,
            "byteLength" : 55464,
            "byteOffset" : 336236
        },
        {
            "buffer" : 0,
            "byteLength" : 27084,
            "byteOffset" : 391700
        },
        {
            "buffer" : 0,
            "byteLength" : 13908,
            "byteOffset" : 418784
        },
        {
            "buffer" : 0,
            "byteLength" : 13908,
            "byteOffset" : 432692
        },
        {
            "buffer" : 0,
            "byteLength" : 9272,
            "byteOffset" : 446600
        },
        {
            "buffer" : 0,
            "byteLength" : 5292,
            "byteOffset" : 455872
        }
    ],
    "buffers" : [
        {
            "byteLength" : 461164,
            "uri" : "data:application/octet-stream;base64,"
        }
    ]
}
