{
    "asset" : {
        "generator" : "Khronos glTF Blender I/O v1.6.16",
        "version" : "2.0"
    },
    "extensionsUsed" : [
        "KHR_materials_clearcoat",
        "KHR_materials_transmission"
    ],
    "scene" : 0,
    "scenes" : [
        {
            "name" : "Scene",
            "nodes" : [
                0
            ]
        }
    ],
    "nodes" : [
        {
            "mesh" : 0,
            "name" : "Cube"
        }
    ],
    "materials" : [
        {
            "doubleSided" : true,
            "extensions" : {
                "KHR_materials_clearcoat" : {
                    "clearcoatFactor" : 0.4285714030265808,
                    "clearcoatRoughnessFactor" : 0.27551019191741943
                },
                "KHR_materials_transmission" : {
                    "transmissionFactor" : 0.051020409911870956
                }
            },
            "name" : "BlackMetal",
            "pbrMetallicRoughness" : {
                "baseColorFactor" : [
                    0.021979352459311485,
                    0.021979352459311485,
                    0.021979352459311485,
                    1
                ],
                "metallicFactor" : 0.875,
                "roughnessFactor" : 0.4659864008426666
            }
        },
        {
            "doubleSided" : true,
            "extensions" : {
                "KHR_materials_clearcoat" : {
                    "clearcoatFactor" : 0.3741496801376343,
                    "clearcoatRoughnessFactor" : 0.13544216752052307
                }
            },
            "name" : "Wood",
            "pbrMetallicRoughness" : {
                "baseColorFactor" : [
                    0.157434344291687,
                    0.09413126111030579,
                    0.032351866364479065,
                    1
                ],
                "metallicFactor" : 0,
                "roughnessFactor" : 0.7687075138092041
            }
        }
    ],
    "meshes" : [
        {
            "name" : "Cube",
            "primitives" : [
                {
                    "attributes" : {
                        "POSITION" : 0,
                        "NORMAL" : 1,
                        "TEXCOORD_0" : 2
                    },
                    "indices" : 3,
                    "material" : 0
                },
                {
                    "attributes" : {
                        "POSITION" : 4,
                        "NORMAL" : 5,
                        "TEXCOORD_0" : 6
                    },
                    "indices" : 7,
                    "material" : 1
                }
            ]
        }
    ],
    "accessors" : [
        {
            "bufferView" : 0,
            "componentType" : 5126,
            "count" : 966,
            "max" : [
                0.6000000238418579,
                1.0699999332427979,
                0.6000000238418579
            ],
            "min" : [
                -0.6000000238418579,
                -5.960464477539063e-08,
                -0.6000000238418579
            ],
            "type" : "VEC3"
        },
        {
            "bufferView" : 1,
            "componentType" : 5126,
            "count" : 966,
            "type" : "VEC3"
        },
        {
            "bufferView" : 2,
            "componentType" : 5126,
            "count" : 966,
            "type" : "VEC2"
        },
        {
            "bufferView" : 3,
            "componentType" : 5123,
            "count" : 1533,
            "type" : "SCALAR"
        },
        {
            "bufferView" : 4,
            "componentType" : 5126,
            "count" : 322,
            "max" : [
                0.6000000238418579,
                1.100000023841858,
                1.100000023841858
            ],
            "min" : [
                -0.6000000238418579,
                1.0697499513626099,
                -1.100000023841858
            ],
            "type" : "VEC3"
        },
        {
            "bufferView" : 5,
            "componentType" : 5126,
            "count" : 322,
            "type" : "VEC3"
        },
        {
            "bufferView" : 6,
            "componentType" : 5126,
            "count" : 322,
            "type" : "VEC2"
        },
        {
            "bufferView" : 7,
            "componentType" : 5123,
            "count" : 507,
            "type" : "SCALAR"
        }
    ],
    "bufferViews" : [
        {
            "buffer" : 0,
            "byteLength" : 11592,
            "byteOffset" : 0
        },
        {
            "buffer" : 0,
            "byteLength" : 11592,
            "byteOffset" : 11592
        },
        {
            "buffer" : 0,
            "byteLength" : 7728,
            "byteOffset" : 23184
        },
        {
            "buffer" : 0,
            "byteLength" : 3066,
            "byteOffset" : 30912
        },
        {
            "buffer" : 0,
            "byteLength" : 3864,
            "byteOffset" : 33980
        },
        {
            "buffer" : 0,
            "byteLength" : 3864,
            "byteOffset" : 37844
        },
        {
            "buffer" : 0,
            "byteLength" : 2576,
            "byteOffset" : 41708
        },
        {
            "buffer" : 0,
            "byteLength" : 1014,
            "byteOffset" : 44284
        }
    ],
    "buffers" : [
        {
            "byteLength" : 45300,
            "uri" : "data:application/octet-stream;base64,"
        }
    ]
}
