{
    "asset" : {
        "generator" : "Khronos glTF Blender I/O v1.6.16",
        "version" : "2.0"
    },
    "extensionsUsed" : [
        "KHR_materials_clearcoat",
        "KHR_materials_transmission"
    ],
    "scene" : 0,
    "scenes" : [
        {
            "name" : "Scene",
            "nodes" : [
                0
            ]
        }
    ],
    "nodes" : [
        {
            "mesh" : 0,
            "name" : "wall_window"
        }
    ],
    "materials" : [
        {
            "doubleSided" : true,
            "name" : "Material",
            "pbrMetallicRoughness" : {
                "baseColorFactor" : [
                    0.800000011920929,
                    0.800000011920929,
                    0.800000011920929,
                    1
                ],
                "metallicFactor" : 0,
                "roughnessFactor" : 0.4000000059604645
            }
        },
        {
            "doubleSided" : true,
            "extensions" : {
                "KHR_materials_clearcoat" : {
                    "clearcoatFactor" : 0.07482992857694626,
                    "clearcoatRoughnessFactor" : 0.16605442762374878
                }
            },
            "name" : "Wall",
            "pbrMetallicRoughness" : {
                "baseColorFactor" : [
                    0.8829235434532166,
                    0.8434882164001465,
                    0.6084717512130737,
                    1
                ],
                "metallicFactor" : 0,
                "roughnessFactor" : 0.7108843326568604
            }
        },
        {
            "doubleSided" : true,
            "extensions" : {
                "KHR_materials_clearcoat" : {
                    "clearcoatFactor" : 0.07482993602752686,
                    "clearcoatRoughnessFactor" : 0.16605442762374878
                }
            },
            "name" : "WallColor",
            "pbrMetallicRoughness" : {
                "baseColorFactor" : [
                    0.058788347989320755,
                    0.08001182228326797,
                    0.024068035185337067,
                    1
                ],
                "metallicFactor" : 0,
                "roughnessFactor" : 0.7108843326568604
            }
        },
        {
            "doubleSided" : true,
            "extensions" : {
                "KHR_materials_clearcoat" : {
                    "clearcoatFactor" : 0.5714285969734192,
                    "clearcoatRoughnessFactor" : 0.053809523582458496
                },
                "KHR_materials_transmission" : {
                    "transmissionFactor" : 0.5884353518486023
                }
            },
            "name" : "WhitePlastic",
            "pbrMetallicRoughness" : {
                "baseColorFactor" : [
                    0.6266639828681946,
                    0.602956235408783,
                    0.4898477792739868,
                    1
                ],
                "metallicFactor" : 0,
                "roughnessFactor" : 0.5
            }
        },
        {
            "doubleSided" : true,
            "extensions" : {
                "KHR_materials_clearcoat" : {
                    "clearcoatFactor" : 1,
                    "clearcoatRoughnessFactor" : 0.029999999329447746
                },
                "KHR_materials_transmission" : {
                    "transmissionFactor" : 0.25
                }
            },
            "name" : "Glass",
            "pbrMetallicRoughness" : {
                "baseColorFactor" : [
                    0.43695417046546936,
                    0.6881104707717896,
                    0.8000000715255737,
                    1
                ],
                "metallicFactor" : 0,
                "roughnessFactor" : 0.125
            }
        }
    ],
    "meshes" : [
        {
            "name" : "Cube.002",
            "primitives" : [
                {
                    "attributes" : {
                        "POSITION" : 0,
                        "NORMAL" : 1,
                        "TEXCOORD_0" : 2
                    },
                    "indices" : 3,
                    "material" : 0
                },
                {
                    "attributes" : {
                        "POSITION" : 4,
                        "NORMAL" : 5,
                        "TEXCOORD_0" : 6
                    },
                    "indices" : 7,
                    "material" : 1
                },
                {
                    "attributes" : {
                        "POSITION" : 8,
                        "NORMAL" : 9,
                        "TEXCOORD_0" : 10
                    },
                    "indices" : 11,
                    "material" : 2
                },
                {
                    "attributes" : {
                        "POSITION" : 12,
                        "NORMAL" : 13,
                        "TEXCOORD_0" : 14
                    },
                    "indices" : 15,
                    "material" : 3
                },
                {
                    "attributes" : {
                        "POSITION" : 16,
                        "NORMAL" : 17,
                        "TEXCOORD_0" : 18
                    },
                    "indices" : 19,
                    "material" : 4
                }
            ]
        }
    ],
    "accessors" : [
        {
            "bufferView" : 0,
            "componentType" : 5126,
            "count" : 2238,
            "max" : [
                0.8730000853538513,
                2.6797499656677246,
                0.02024995908141136
            ],
            "min" : [
                -0.8730019330978394,
                1.221750020980835,
                -0.020249996334314346
            ],
            "type" : "VEC3"
        },
        {
            "bufferView" : 1,
            "componentType" : 5126,
            "count" : 2238,
            "type" : "VEC3"
        },
        {
            "bufferView" : 2,
            "componentType" : 5126,
            "count" : 2238,
            "type" : "VEC2"
        },
        {
            "bufferView" : 3,
            "componentType" : 5123,
            "count" : 3030,
            "type" : "SCALAR"
        },
        {
            "bufferView" : 4,
            "componentType" : 5126,
            "count" : 398,
            "max" : [
                1,
                3,
                0.1499999612569809
            ],
            "min" : [
                -1,
                0,
                -0.14999999105930328
            ],
            "type" : "VEC3"
        },
        {
            "bufferView" : 5,
            "componentType" : 5126,
            "count" : 398,
            "type" : "VEC3"
        },
        {
            "bufferView" : 6,
            "componentType" : 5126,
            "count" : 398,
            "type" : "VEC2"
        },
        {
            "bufferView" : 7,
            "componentType" : 5123,
            "count" : 840,
            "type" : "SCALAR"
        },
        {
            "bufferView" : 8,
            "componentType" : 5126,
            "count" : 98,
            "max" : [
                1,
                2,
                0.1499999612569809
            ],
            "min" : [
                -1,
                1,
                -0.14999999105930328
            ],
            "type" : "VEC3"
        },
        {
            "bufferView" : 9,
            "componentType" : 5126,
            "count" : 98,
            "type" : "VEC3"
        },
        {
            "bufferView" : 10,
            "componentType" : 5126,
            "count" : 98,
            "type" : "VEC2"
        },
        {
            "bufferView" : 11,
            "componentType" : 5123,
            "count" : 264,
            "type" : "SCALAR"
        },
        {
            "bufferView" : 12,
            "componentType" : 5126,
            "count" : 2277,
            "max" : [
                0.8999999761581421,
                2.6999998092651367,
                0.1499999612569809
            ],
            "min" : [
                -0.9000024199485779,
                1.2000000476837158,
                -0.14999999105930328
            ],
            "type" : "VEC3"
        },
        {
            "bufferView" : 13,
            "componentType" : 5126,
            "count" : 2277,
            "type" : "VEC3"
        },
        {
            "bufferView" : 14,
            "componentType" : 5126,
            "count" : 2277,
            "type" : "VEC2"
        },
        {
            "bufferView" : 15,
            "componentType" : 5123,
            "count" : 3426,
            "type" : "SCALAR"
        },
        {
            "bufferView" : 16,
            "componentType" : 5126,
            "count" : 304,
            "max" : [
                0.8730000853538513,
                2.6797499656677246,
                0.010249958373606205
            ],
            "min" : [
                -0.8730019330978394,
                1.221750020980835,
                -0.010249994695186615
            ],
            "type" : "VEC3"
        },
        {
            "bufferView" : 17,
            "componentType" : 5126,
            "count" : 304,
            "type" : "VEC3"
        },
        {
            "bufferView" : 18,
            "componentType" : 5126,
            "count" : 304,
            "type" : "VEC2"
        },
        {
            "bufferView" : 19,
            "componentType" : 5123,
            "count" : 456,
            "type" : "SCALAR"
        }
    ],
    "bufferViews" : [
        {
            "buffer" : 0,
            "byteLength" : 26856,
            "byteOffset" : 0
        },
        {
            "buffer" : 0,
            "byteLength" : 26856,
            "byteOffset" : 26856
        },
        {
            "buffer" : 0,
            "byteLength" : 17904,
            "byteOffset" : 53712
        },
        {
            "buffer" : 0,
            "byteLength" : 6060,
            "byteOffset" : 71616
        },
        {
            "buffer" : 0,
            "byteLength" : 4776,
            "byteOffset" : 77676
        },
        {
            "buffer" : 0,
            "byteLength" : 4776,
            "byteOffset" : 82452
        },
        {
            "buffer" : 0,
            "byteLength" : 3184,
            "byteOffset" : 87228
        },
        {
            "buffer" : 0,
            "byteLength" : 1680,
            "byteOffset" : 90412
        },
        {
            "buffer" : 0,
            "byteLength" : 1176,
            "byteOffset" : 92092
        },
        {
            "buffer" : 0,
            "byteLength" : 1176,
            "byteOffset" : 93268
        },
        {
            "buffer" : 0,
            "byteLength" : 784,
            "byteOffset" : 94444
        },
        {
            "buffer" : 0,
            "byteLength" : 528,
            "byteOffset" : 95228
        },
        {
            "buffer" : 0,
            "byteLength" : 27324,
            "byteOffset" : 95756
        },
        {
            "buffer" : 0,
            "byteLength" : 27324,
            "byteOffset" : 123080
        },
        {
            "buffer" : 0,
            "byteLength" : 18216,
            "byteOffset" : 150404
        },
        {
            "buffer" : 0,
            "byteLength" : 6852,
            "byteOffset" : 168620
        },
        {
            "buffer" : 0,
            "byteLength" : 3648,
            "byteOffset" : 175472
        },
        {
            "buffer" : 0,
            "byteLength" : 3648,
            "byteOffset" : 179120
        },
        {
            "buffer" : 0,
            "byteLength" : 2432,
            "byteOffset" : 182768
        },
        {
            "buffer" : 0,
            "byteLength" : 912,
            "byteOffset" : 185200
        }
    ],
    "buffers" : [
        {
            "byteLength" : 186112,
            "uri" : "data:application/octet-stream;base64,"
        }
    ]
}
