{
    "asset" : {
        "generator" : "Khronos glTF Blender I/O v1.6.16",
        "version" : "2.0"
    },
    "extensionsUsed" : [
        "KHR_materials_clearcoat"
    ],
    "scene" : 0,
    "scenes" : [
        {
            "name" : "Scene",
            "nodes" : [
                0
            ]
        }
    ],
    "nodes" : [
        {
            "mesh" : 0,
            "name" : "wall_door_angle"
        }
    ],
    "materials" : [
        {
            "doubleSided" : true,
            "extensions" : {
                "KHR_materials_clearcoat" : {
                    "clearcoatFactor" : 0.07482992857694626,
                    "clearcoatRoughnessFactor" : 0.16605442762374878
                }
            },
            "name" : "Wall",
            "pbrMetallicRoughness" : {
                "baseColorFactor" : [
                    0.8829235434532166,
                    0.8434882164001465,
                    0.6084717512130737,
                    1
                ],
                "metallicFactor" : 0,
                "roughnessFactor" : 0.7108843326568604
            }
        },
        {
            "doubleSided" : true,
            "extensions" : {
                "KHR_materials_clearcoat" : {
                    "clearcoatFactor" : 0.07482993602752686,
                    "clearcoatRoughnessFactor" : 0.16605442762374878
                }
            },
            "name" : "WallColor",
            "pbrMetallicRoughness" : {
                "baseColorFactor" : [
                    0.058788347989320755,
                    0.08001182228326797,
                    0.024068035185337067,
                    1
                ],
                "metallicFactor" : 0,
                "roughnessFactor" : 0.7108843326568604
            }
        }
    ],
    "meshes" : [
        {
            "name" : "Cube.004",
            "primitives" : [
                {
                    "attributes" : {
                        "POSITION" : 0,
                        "NORMAL" : 1,
                        "TEXCOORD_0" : 2
                    },
                    "indices" : 3,
                    "material" : 0
                },
                {
                    "attributes" : {
                        "POSITION" : 4,
                        "NORMAL" : 5,
                        "TEXCOORD_0" : 6
                    },
                    "indices" : 7,
                    "material" : 1
                }
            ]
        }
    ],
    "accessors" : [
        {
            "bufferView" : 0,
            "componentType" : 5126,
            "count" : 282,
            "max" : [
                2.8299999237060547,
                3,
                0.1499999612569809
            ],
            "min" : [
                -2.8299999237060547,
                0,
                -0.14999999105930328
            ],
            "type" : "VEC3"
        },
        {
            "bufferView" : 1,
            "componentType" : 5126,
            "count" : 282,
            "type" : "VEC3"
        },
        {
            "bufferView" : 2,
            "componentType" : 5126,
            "count" : 282,
            "type" : "VEC2"
        },
        {
            "bufferView" : 3,
            "componentType" : 5123,
            "count" : 888,
            "type" : "SCALAR"
        },
        {
            "bufferView" : 4,
            "componentType" : 5126,
            "count" : 48,
            "max" : [
                2.8299999237060547,
                2,
                0.1499999612569809
            ],
            "min" : [
                -2.8299999237060547,
                1,
                -0.14999999105930328
            ],
            "type" : "VEC3"
        },
        {
            "bufferView" : 5,
            "componentType" : 5126,
            "count" : 48,
            "type" : "VEC3"
        },
        {
            "bufferView" : 6,
            "componentType" : 5126,
            "count" : 48,
            "type" : "VEC2"
        },
        {
            "bufferView" : 7,
            "componentType" : 5123,
            "count" : 144,
            "type" : "SCALAR"
        }
    ],
    "bufferViews" : [
        {
            "buffer" : 0,
            "byteLength" : 3384,
            "byteOffset" : 0
        },
        {
            "buffer" : 0,
            "byteLength" : 3384,
            "byteOffset" : 3384
        },
        {
            "buffer" : 0,
            "byteLength" : 2256,
            "byteOffset" : 6768
        },
        {
            "buffer" : 0,
            "byteLength" : 1776,
            "byteOffset" : 9024
        },
        {
            "buffer" : 0,
            "byteLength" : 576,
            "byteOffset" : 10800
        },
        {
            "buffer" : 0,
            "byteLength" : 576,
            "byteOffset" : 11376
        },
        {
            "buffer" : 0,
            "byteLength" : 384,
            "byteOffset" : 11952
        },
        {
            "buffer" : 0,
            "byteLength" : 288,
            "byteOffset" : 12336
        }
    ],
    "buffers" : [
        {
            "byteLength" : 12624,
            "uri" : "data:application/octet-stream;base64,"
        }
    ]
}
