{
    "asset" : {
        "generator" : "Khronos glTF Blender I/O v1.6.16",
        "version" : "2.0"
    },
    "scene" : 0,
    "scenes" : [
        {
            "name" : "Scene",
            "nodes" : [
                0
            ]
        }
    ],
    "nodes" : [
        {
            "mesh" : 0,
            "name" : "Cube"
        }
    ],
    "materials" : [
        {
            "doubleSided" : true,
            "name" : "ClearPLastic",
            "pbrMetallicRoughness" : {
                "baseColorFactor" : [
                    0.6008343696594238,
                    0.9428845643997192,
                    1,
                    1
                ],
                "metallicFactor" : 0,
                "roughnessFactor" : 0.5
            }
        }
    ],
    "meshes" : [
        {
            "name" : "Cube.002",
            "primitives" : [
                {
                    "attributes" : {
                        "POSITION" : 0,
                        "NORMAL" : 1,
                        "TEXCOORD_0" : 2
                    },
                    "indices" : 3
                },
                {
                    "attributes" : {
                        "POSITION" : 4,
                        "NORMAL" : 5,
                        "TEXCOORD_0" : 6
                    },
                    "indices" : 7,
                    "material" : 0
                }
            ]
        }
    ],
    "accessors" : [
        {
            "bufferView" : 0,
            "componentType" : 5126,
            "count" : 315,
            "max" : [
                0.009992037899792194,
                0.11799996346235275,
                0.009992036037147045
            ],
            "min" : [
                -0.00999204907566309,
                0.10997496545314789,
                -0.00999204721301794
            ],
            "type" : "VEC3"
        },
        {
            "bufferView" : 1,
            "componentType" : 5126,
            "count" : 315,
            "type" : "VEC3"
        },
        {
            "bufferView" : 2,
            "componentType" : 5126,
            "count" : 315,
            "type" : "VEC2"
        },
        {
            "bufferView" : 3,
            "componentType" : 5123,
            "count" : 459,
            "type" : "SCALAR"
        },
        {
            "bufferView" : 4,
            "componentType" : 5126,
            "count" : 1204,
            "max" : [
                0.02399015985429287,
                0.10999996215105057,
                0.02399015799164772
            ],
            "min" : [
                -0.023990171030163765,
                -9.156860270032041e-10,
                -0.023990169167518616
            ],
            "type" : "VEC3"
        },
        {
            "bufferView" : 5,
            "componentType" : 5126,
            "count" : 1204,
            "type" : "VEC3"
        },
        {
            "bufferView" : 6,
            "componentType" : 5126,
            "count" : 1204,
            "type" : "VEC2"
        },
        {
            "bufferView" : 7,
            "componentType" : 5123,
            "count" : 1749,
            "type" : "SCALAR"
        }
    ],
    "bufferViews" : [
        {
            "buffer" : 0,
            "byteLength" : 3780,
            "byteOffset" : 0
        },
        {
            "buffer" : 0,
            "byteLength" : 3780,
            "byteOffset" : 3780
        },
        {
            "buffer" : 0,
            "byteLength" : 2520,
            "byteOffset" : 7560
        },
        {
            "buffer" : 0,
            "byteLength" : 918,
            "byteOffset" : 10080
        },
        {
            "buffer" : 0,
            "byteLength" : 14448,
            "byteOffset" : 11000
        },
        {
            "buffer" : 0,
            "byteLength" : 14448,
            "byteOffset" : 25448
        },
        {
            "buffer" : 0,
            "byteLength" : 9632,
            "byteOffset" : 39896
        },
        {
            "buffer" : 0,
            "byteLength" : 3498,
            "byteOffset" : 49528
        }
    ],
    "buffers" : [
        {
            "byteLength" : 53028,
            "uri" : "data:application/octet-stream;base64,"
        }
    ]
}
