{
    "asset" : {
        "generator" : "Khronos glTF Blender I/O v1.6.16",
        "version" : "2.0"
    },
    "scene" : 0,
    "scenes" : [
        {
            "name" : "Scene",
            "nodes" : [
                0
            ]
        }
    ],
    "nodes" : [
        {
            "mesh" : 0,
            "name" : "baristaScaleRef",
            "scale" : [
                0.362907737493515,
                0.362907737493515,
                0.362907737493515
            ],
            "translation" : [
                2.061666965484619,
                0.4965181350708008,
                0
            ]
        }
    ],
    "materials" : [
        {
            "doubleSided" : true,
            "name" : "Material",
            "pbrMetallicRoughness" : {
                "baseColorFactor" : [
                    0.800000011920929,
                    0.800000011920929,
                    0.800000011920929,
                    1
                ],
                "metallicFactor" : 0,
                "roughnessFactor" : 0.4000000059604645
            }
        }
    ],
    "meshes" : [
        {
            "name" : "Cube.003",
            "primitives" : [
                {
                    "attributes" : {
                        "POSITION" : 0,
                        "NORMAL" : 1,
                        "TEXCOORD_0" : 2
                    },
                    "indices" : 3,
                    "material" : 0
                }
            ]
        }
    ],
    "accessors" : [
        {
            "bufferView" : 0,
            "componentType" : 5126,
            "count" : 11939,
            "max" : [
                2.445326089859009,
                5.5178632736206055,
                0.7928580045700073
            ],
            "min" : [
                -2.445326089859009,
                -1.443785309791565,
                -1.1596230268478394
            ],
            "type" : "VEC3"
        },
        {
            "bufferView" : 1,
            "componentType" : 5126,
            "count" : 11939,
            "type" : "VEC3"
        },
        {
            "bufferView" : 2,
            "componentType" : 5126,
            "count" : 11939,
            "type" : "VEC2"
        },
        {
            "bufferView" : 3,
            "componentType" : 5123,
            "count" : 62424,
            "type" : "SCALAR"
        }
    ],
    "bufferViews" : [
        {
            "buffer" : 0,
            "byteLength" : 143268,
            "byteOffset" : 0
        },
        {
            "buffer" : 0,
            "byteLength" : 143268,
            "byteOffset" : 143268
        },
        {
            "buffer" : 0,
            "byteLength" : 95512,
            "byteOffset" : 286536
        },
        {
            "buffer" : 0,
            "byteLength" : 124848,
            "byteOffset" : 382048
        }
    ],
    "buffers" : [
        {
            "byteLength" : 506896,
            "uri" : "data:application/octet-stream;base64,"
        }
    ]
}
