{
    "asset" : {
        "generator" : "Khronos glTF Blender I/O v1.5.17",
        "version" : "2.0"
    },
    "scene" : 0,
    "scenes" : [
        {
            "name" : "Scene",
            "nodes" : [
                0
            ]
        }
    ],
    "nodes" : [
        {
            "mesh" : 0,
            "name" : "coffee-box1"
        }
    ],
    "materials" : [
        {
            "doubleSided" : true,
            "name" : "mat-paper-generic",
            "pbrMetallicRoughness" : {
                "baseColorTexture" : {
                    "index" : 0
                },
                "metallicFactor" : 0,
                "roughnessFactor" : 0.4779411554336548
            }
        }
    ],
    "meshes" : [
        {
            "name" : "mesh-coffee-box1",
            "primitives" : [
                {
                    "attributes" : {
                        "POSITION" : 0,
                        "NORMAL" : 1,
                        "TEXCOORD_0" : 2
                    },
                    "indices" : 3,
                    "material" : 0
                }
            ]
        }
    ],
    "textures" : [
        {
            "sampler" : 0,
            "source" : 0
        }
    ],
    "images" : [
        {
            "mimeType" : "image/png",
            "name" : "tx-ld49-outfrost",
            "uri" : "tx-ld49-outfrost.png"
        }
    ],
    "accessors" : [
        {
            "bufferView" : 0,
            "componentType" : 5126,
            "count" : 207,
            "max" : [
                0.049991242587566376,
                0.22933050990104675,
                0.03430824726819992
            ],
            "min" : [
                -0.049991242587566376,
                2.3675758598074026e-07,
                -0.03430824726819992
            ],
            "type" : "VEC3"
        },
        {
            "bufferView" : 1,
            "componentType" : 5126,
            "count" : 207,
            "type" : "VEC3"
        },
        {
            "bufferView" : 2,
            "componentType" : 5126,
            "count" : 207,
            "type" : "VEC2"
        },
        {
            "bufferView" : 3,
            "componentType" : 5123,
            "count" : 336,
            "type" : "SCALAR"
        }
    ],
    "bufferViews" : [
        {
            "buffer" : 0,
            "byteLength" : 2484,
            "byteOffset" : 0
        },
        {
            "buffer" : 0,
            "byteLength" : 2484,
            "byteOffset" : 2484
        },
        {
            "buffer" : 0,
            "byteLength" : 1656,
            "byteOffset" : 4968
        },
        {
            "buffer" : 0,
            "byteLength" : 672,
            "byteOffset" : 6624
        }
    ],
    "samplers" : [
        {
            "magFilter" : 9729,
            "minFilter" : 9987
        }
    ],
    "buffers" : [
        {
            "byteLength" : 7296,
            "uri" : "coffee-box-1.bin"
        }
    ]
}
