{
    "asset" : {
        "generator" : "Khronos glTF Blender I/O v1.5.17",
        "version" : "2.0"
    },
    "scene" : 0,
    "scenes" : [
        {
            "name" : "Scene",
            "nodes" : [
                0
            ]
        }
    ],
    "nodes" : [
        {
            "mesh" : 0,
            "name" : "tea-tin-2"
        }
    ],
    "materials" : [
        {
            "doubleSided" : true,
            "name" : "mat-metal-generic",
            "pbrMetallicRoughness" : {
                "baseColorTexture" : {
                    "index" : 0
                },
                "metallicFactor" : 0.800000011920929,
                "roughnessFactor" : 0.13970588147640228
            }
        }
    ],
    "meshes" : [
        {
            "name" : "mesh-tea-tin-2",
            "primitives" : [
                {
                    "attributes" : {
                        "POSITION" : 0,
                        "NORMAL" : 1,
                        "TEXCOORD_0" : 2
                    },
                    "indices" : 3,
                    "material" : 0
                }
            ]
        }
    ],
    "textures" : [
        {
            "sampler" : 0,
            "source" : 0
        }
    ],
    "images" : [
        {
            "mimeType" : "image/png",
            "name" : "tx-ld49-outfrost",
            "uri" : "tx-ld49-outfrost.png"
        }
    ],
    "accessors" : [
        {
            "bufferView" : 0,
            "componentType" : 5126,
            "count" : 2032,
            "max" : [
                0.09983325749635696,
                0.21180424094200134,
                0.09983325004577637
            ],
            "min" : [
                -0.09983324259519577,
                0,
                -0.09983325004577637
            ],
            "type" : "VEC3"
        },
        {
            "bufferView" : 1,
            "componentType" : 5126,
            "count" : 2032,
            "type" : "VEC3"
        },
        {
            "bufferView" : 2,
            "componentType" : 5126,
            "count" : 2032,
            "type" : "VEC2"
        },
        {
            "bufferView" : 3,
            "componentType" : 5123,
            "count" : 4020,
            "type" : "SCALAR"
        }
    ],
    "bufferViews" : [
        {
            "buffer" : 0,
            "byteLength" : 24384,
            "byteOffset" : 0
        },
        {
            "buffer" : 0,
            "byteLength" : 24384,
            "byteOffset" : 24384
        },
        {
            "buffer" : 0,
            "byteLength" : 16256,
            "byteOffset" : 48768
        },
        {
            "buffer" : 0,
            "byteLength" : 8040,
            "byteOffset" : 65024
        }
    ],
    "samplers" : [
        {
            "magFilter" : 9729,
            "minFilter" : 9987
        }
    ],
    "buffers" : [
        {
            "byteLength" : 73064,
            "uri" : "tea-tin-2.bin"
        }
    ]
}
