{
    "asset" : {
        "generator" : "Khronos glTF Blender I/O v1.5.17",
        "version" : "2.0"
    },
    "scene" : 0,
    "scenes" : [
        {
            "name" : "Scene",
            "nodes" : [
                0
            ]
        }
    ],
    "nodes" : [
        {
            "mesh" : 0,
            "name" : "tea-tin1"
        }
    ],
    "materials" : [
        {
            "doubleSided" : true,
            "name" : "mat-metal-generic",
            "pbrMetallicRoughness" : {
                "baseColorTexture" : {
                    "index" : 0
                },
                "metallicFactor" : 0.800000011920929,
                "roughnessFactor" : 0.13970588147640228
            }
        }
    ],
    "meshes" : [
        {
            "name" : "mesh-tea-tin1",
            "primitives" : [
                {
                    "attributes" : {
                        "POSITION" : 0,
                        "NORMAL" : 1,
                        "TEXCOORD_0" : 2
                    },
                    "indices" : 3,
                    "material" : 0
                }
            ]
        }
    ],
    "textures" : [
        {
            "sampler" : 0,
            "source" : 0
        }
    ],
    "images" : [
        {
            "mimeType" : "image/png",
            "name" : "tx-ld49-outfrost",
            "uri" : "tx-ld49-outfrost.png"
        }
    ],
    "accessors" : [
        {
            "bufferView" : 0,
            "componentType" : 5126,
            "count" : 2082,
            "max" : [
                0.062484242022037506,
                0.13456019759178162,
                0.062484242022037506
            ],
            "min" : [
                -0.062484242022037506,
                0,
                -0.062484242022037506
            ],
            "type" : "VEC3"
        },
        {
            "bufferView" : 1,
            "componentType" : 5126,
            "count" : 2082,
            "type" : "VEC3"
        },
        {
            "bufferView" : 2,
            "componentType" : 5126,
            "count" : 2082,
            "type" : "VEC2"
        },
        {
            "bufferView" : 3,
            "componentType" : 5123,
            "count" : 3312,
            "type" : "SCALAR"
        }
    ],
    "bufferViews" : [
        {
            "buffer" : 0,
            "byteLength" : 24984,
            "byteOffset" : 0
        },
        {
            "buffer" : 0,
            "byteLength" : 24984,
            "byteOffset" : 24984
        },
        {
            "buffer" : 0,
            "byteLength" : 16656,
            "byteOffset" : 49968
        },
        {
            "buffer" : 0,
            "byteLength" : 6624,
            "byteOffset" : 66624
        }
    ],
    "samplers" : [
        {
            "magFilter" : 9729,
            "minFilter" : 9987
        }
    ],
    "buffers" : [
        {
            "byteLength" : 73248,
            "uri" : "tea-tin-1.bin"
        }
    ]
}
