{
    "asset" : {
        "generator" : "Khronos glTF Blender I/O v1.6.16",
        "version" : "2.0"
    },
    "extensionsUsed" : [
        "KHR_materials_clearcoat",
        "KHR_materials_transmission"
    ],
    "scene" : 0,
    "scenes" : [
        {
            "name" : "Scene",
            "nodes" : [
                0
            ]
        }
    ],
    "nodes" : [
        {
            "mesh" : 0,
            "name" : "EspressoMachine"
        }
    ],
    "materials" : [
        {
            "doubleSided" : true,
            "name" : "Material",
            "pbrMetallicRoughness" : {
                "baseColorFactor" : [
                    0.800000011920929,
                    0.800000011920929,
                    0.800000011920929,
                    1
                ],
                "metallicFactor" : 0,
                "roughnessFactor" : 0.4000000059604645
            }
        },
        {
            "doubleSided" : true,
            "name" : "ClearPLastic",
            "pbrMetallicRoughness" : {
                "baseColorFactor" : [
                    0.6008343696594238,
                    0.9428845643997192,
                    1,
                    1
                ],
                "metallicFactor" : 0,
                "roughnessFactor" : 0.5
            }
        },
        {
            "doubleSided" : true,
            "extensions" : {
                "KHR_materials_clearcoat" : {
                    "clearcoatFactor" : 0.6020408272743225,
                    "clearcoatRoughnessFactor" : 0.1796598583459854
                }
            },
            "name" : "ShinySilver",
            "pbrMetallicRoughness" : {
                "baseColorFactor" : [
                    0.4575320780277252,
                    0.4575320780277252,
                    0.4575320780277252,
                    1
                ],
                "metallicFactor" : 0.8299319744110107,
                "roughnessFactor" : 0.795918345451355
            }
        },
        {
            "doubleSided" : true,
            "extensions" : {
                "KHR_materials_clearcoat" : {
                    "clearcoatFactor" : 0.5714285969734192,
                    "clearcoatRoughnessFactor" : 0.053809523582458496
                },
                "KHR_materials_transmission" : {
                    "transmissionFactor" : 0.5884353518486023
                }
            },
            "name" : "BlackPlastic",
            "pbrMetallicRoughness" : {
                "baseColorFactor" : [
                    0.025393981486558914,
                    0.025393981486558914,
                    0.025393981486558914,
                    1
                ],
                "metallicFactor" : 0,
                "roughnessFactor" : 0.5
            }
        },
        {
            "doubleSided" : true,
            "extensions" : {
                "KHR_materials_clearcoat" : {
                    "clearcoatFactor" : 0.6496598720550537,
                    "clearcoatRoughnessFactor" : 0.1320408135652542
                },
                "KHR_materials_transmission" : {
                    "transmissionFactor" : 0.36054420471191406
                }
            },
            "name" : "MutedSilver",
            "pbrMetallicRoughness" : {
                "baseColorFactor" : [
                    0.5600000023841858,
                    0.5600000023841858,
                    0.5600000023841858,
                    1
                ],
                "roughnessFactor" : 0.7448979616165161
            }
        }
    ],
    "meshes" : [
        {
            "name" : "Cube",
            "primitives" : [
                {
                    "attributes" : {
                        "POSITION" : 0,
                        "NORMAL" : 1,
                        "TEXCOORD_0" : 2
                    },
                    "indices" : 3,
                    "material" : 0
                },
                {
                    "attributes" : {
                        "POSITION" : 4,
                        "NORMAL" : 5,
                        "TEXCOORD_0" : 6
                    },
                    "indices" : 7,
                    "material" : 1
                },
                {
                    "attributes" : {
                        "POSITION" : 8,
                        "NORMAL" : 9,
                        "TEXCOORD_0" : 10
                    },
                    "indices" : 11,
                    "material" : 2
                },
                {
                    "attributes" : {
                        "POSITION" : 12,
                        "NORMAL" : 13,
                        "TEXCOORD_0" : 14
                    },
                    "indices" : 15,
                    "material" : 3
                },
                {
                    "attributes" : {
                        "POSITION" : 16,
                        "NORMAL" : 17,
                        "TEXCOORD_0" : 18
                    },
                    "indices" : 19,
                    "material" : 4
                }
            ]
        }
    ],
    "accessors" : [
        {
            "bufferView" : 0,
            "componentType" : 5126,
            "count" : 263,
            "max" : [
                0.584344208240509,
                1.5505170822143555,
                0.49795129895210266
            ],
            "min" : [
                -0.5859383940696716,
                0.8921419978141785,
                -0.5118505358695984
            ],
            "type" : "VEC3"
        },
        {
            "bufferView" : 1,
            "componentType" : 5126,
            "count" : 263,
            "type" : "VEC3"
        },
        {
            "bufferView" : 2,
            "componentType" : 5126,
            "count" : 263,
            "type" : "VEC2"
        },
        {
            "bufferView" : 3,
            "componentType" : 5123,
            "count" : 450,
            "type" : "SCALAR"
        },
        {
            "bufferView" : 4,
            "componentType" : 5126,
            "count" : 1396,
            "max" : [
                0.6251819729804993,
                1.5505170822143555,
                0.7238369584083557
            ],
            "min" : [
                -0.6260680556297302,
                0.5755168795585632,
                0.49670127034187317
            ],
            "type" : "VEC3"
        },
        {
            "bufferView" : 5,
            "componentType" : 5126,
            "count" : 1396,
            "type" : "VEC3"
        },
        {
            "bufferView" : 6,
            "componentType" : 5126,
            "count" : 1396,
            "type" : "VEC2"
        },
        {
            "bufferView" : 7,
            "componentType" : 5123,
            "count" : 3021,
            "type" : "SCALAR"
        },
        {
            "bufferView" : 8,
            "componentType" : 5126,
            "count" : 3229,
            "max" : [
                0.6495569348335266,
                1.2634291648864746,
                0.7482119202613831
            ],
            "min" : [
                -0.6504430174827576,
                0.07489224523305893,
                -0.9365643858909607
            ],
            "type" : "VEC3"
        },
        {
            "bufferView" : 9,
            "componentType" : 5126,
            "count" : 3229,
            "type" : "VEC3"
        },
        {
            "bufferView" : 10,
            "componentType" : 5126,
            "count" : 3229,
            "type" : "VEC2"
        },
        {
            "bufferView" : 11,
            "componentType" : 5123,
            "count" : 5385,
            "type" : "SCALAR"
        },
        {
            "bufferView" : 12,
            "componentType" : 5126,
            "count" : 7018,
            "max" : [
                0.6495569348335266,
                1.5505170822143555,
                0.7482119202613831
            ],
            "min" : [
                -0.6504430174827576,
                0.0005170968361198902,
                -0.9358691573143005
            ],
            "type" : "VEC3"
        },
        {
            "bufferView" : 13,
            "componentType" : 5126,
            "count" : 7018,
            "type" : "VEC3"
        },
        {
            "bufferView" : 14,
            "componentType" : 5126,
            "count" : 7018,
            "type" : "VEC2"
        },
        {
            "bufferView" : 15,
            "componentType" : 5123,
            "count" : 13527,
            "type" : "SCALAR"
        },
        {
            "bufferView" : 16,
            "componentType" : 5126,
            "count" : 1201,
            "max" : [
                0.6495569348335266,
                1.5008981227874756,
                0.7482119202613831
            ],
            "min" : [
                -0.6504430174827576,
                0.17489191889762878,
                -0.6517881751060486
            ],
            "type" : "VEC3"
        },
        {
            "bufferView" : 17,
            "componentType" : 5126,
            "count" : 1201,
            "type" : "VEC3"
        },
        {
            "bufferView" : 18,
            "componentType" : 5126,
            "count" : 1201,
            "type" : "VEC2"
        },
        {
            "bufferView" : 19,
            "componentType" : 5123,
            "count" : 2637,
            "type" : "SCALAR"
        }
    ],
    "bufferViews" : [
        {
            "buffer" : 0,
            "byteLength" : 3156,
            "byteOffset" : 0
        },
        {
            "buffer" : 0,
            "byteLength" : 3156,
            "byteOffset" : 3156
        },
        {
            "buffer" : 0,
            "byteLength" : 2104,
            "byteOffset" : 6312
        },
        {
            "buffer" : 0,
            "byteLength" : 900,
            "byteOffset" : 8416
        },
        {
            "buffer" : 0,
            "byteLength" : 16752,
            "byteOffset" : 9316
        },
        {
            "buffer" : 0,
            "byteLength" : 16752,
            "byteOffset" : 26068
        },
        {
            "buffer" : 0,
            "byteLength" : 11168,
            "byteOffset" : 42820
        },
        {
            "buffer" : 0,
            "byteLength" : 6042,
            "byteOffset" : 53988
        },
        {
            "buffer" : 0,
            "byteLength" : 38748,
            "byteOffset" : 60032
        },
        {
            "buffer" : 0,
            "byteLength" : 38748,
            "byteOffset" : 98780
        },
        {
            "buffer" : 0,
            "byteLength" : 25832,
            "byteOffset" : 137528
        },
        {
            "buffer" : 0,
            "byteLength" : 10770,
            "byteOffset" : 163360
        },
        {
            "buffer" : 0,
            "byteLength" : 84216,
            "byteOffset" : 174132
        },
        {
            "buffer" : 0,
            "byteLength" : 84216,
            "byteOffset" : 258348
        },
        {
            "buffer" : 0,
            "byteLength" : 56144,
            "byteOffset" : 342564
        },
        {
            "buffer" : 0,
            "byteLength" : 27054,
            "byteOffset" : 398708
        },
        {
            "buffer" : 0,
            "byteLength" : 14412,
            "byteOffset" : 425764
        },
        {
            "buffer" : 0,
            "byteLength" : 14412,
            "byteOffset" : 440176
        },
        {
            "buffer" : 0,
            "byteLength" : 9608,
            "byteOffset" : 454588
        },
        {
            "buffer" : 0,
            "byteLength" : 5274,
            "byteOffset" : 464196
        }
    ],
    "buffers" : [
        {
            "byteLength" : 469472,
            "uri" : "data:application/octet-stream;base64,"
        }
    ]
}
